<svg width="63" height="24" viewBox="0 0 63 24" fill="none" xmlns="http://www.w3.org/2000/svg">
<path d="M10.9714 5.75104C10.8587 5.75104 10.8463 5.8381 10.9829 6.00645C11.1623 6.41258 12.6723 8.48289 11.0605 13.8542C9.27716 19.5956 12.4053 23.8881 12.7678 23.8881C12.7875 23.8881 12.799 23.8755 12.8011 23.8497C12.8423 23.3491 12.1895 21.8183 12.3939 19.8385C12.5808 18.0281 13.6611 16.1984 14.0291 13.2081C14.6724 7.98128 11.5414 5.75104 10.9714 5.75104Z" fill="#6A6A6A"/>
<path d="M9.16179 19.8646C9.16179 18.8467 9.70444 17.9531 10.5155 17.4579C10.5145 17.2972 10.5169 17.1344 10.523 16.9694C9.4648 17.5029 8.73853 18.5986 8.73853 19.8646C8.73853 21.6547 10.1897 23.1059 11.9798 23.1059C12.014 23.1059 12.0479 23.1043 12.0818 23.1034C12.0007 22.9761 11.9164 22.8341 11.8306 22.6785C10.3458 22.6007 9.16179 21.3684 9.16179 19.8646Z" fill="#5E5E5E"/>
<path d="M15.2209 19.8645C15.2209 18.4983 14.3752 17.3304 13.1791 16.8535C13.1354 16.9907 13.0919 17.1255 13.0491 17.258C14.074 17.6801 14.7975 18.6892 14.7975 19.8645C14.7975 21.2124 13.8461 22.3417 12.5796 22.6175C12.6102 22.7659 12.6407 22.9041 12.669 23.0316C14.1278 22.7155 15.2209 21.4179 15.2209 19.8645Z" fill="#5E5E5E"/>
<path d="M11.9798 22.6825C11.9298 22.6825 11.88 22.6811 11.8306 22.6785C11.9163 22.8341 12.0007 22.976 12.0818 23.1033C12.2827 23.0971 12.4792 23.0729 12.6693 23.0316C12.641 22.9041 12.6105 22.7659 12.5799 22.6176C12.3864 22.6597 12.1858 22.6825 11.9798 22.6825Z" fill="#5E5E5E"/>
<path d="M16.1255 19.0415C16.1255 17.3447 15.1059 15.8863 13.6462 15.2447C13.6106 15.3866 13.5738 15.5253 13.5365 15.6617C14.8135 16.2523 15.7021 17.5447 15.7021 19.0416C15.7021 20.8829 14.358 22.4152 12.5996 22.7113C12.6313 22.8609 12.6624 22.9996 12.6904 23.1263C14.6414 22.7893 16.1255 21.0888 16.1255 19.0415Z" fill="#6B6B6B"/>
<path d="M8.25735 19.0416C8.25735 17.4535 9.25745 16.0952 10.6606 15.5615C10.6858 15.4033 10.7145 15.2435 10.7469 15.0823C9.05933 15.6072 7.83398 17.1813 7.83398 19.0416C7.83398 21.3312 9.69002 23.1872 11.9796 23.1872C12.0313 23.1872 12.0826 23.1859 12.1339 23.1841C12.0514 23.0586 11.9649 22.9174 11.8766 22.7612C9.87169 22.7064 8.25735 21.0595 8.25735 19.0416Z" fill="#6B6B6B"/>
<path d="M11.9797 22.7638C11.9452 22.7638 11.911 22.7621 11.8767 22.7611C11.965 22.9173 12.0515 23.0585 12.134 23.184C12.3229 23.177 12.5086 23.1577 12.6902 23.1263C12.6622 22.9996 12.6312 22.8609 12.5995 22.7113C12.3978 22.7452 12.191 22.7638 11.9797 22.7638Z" fill="#6B6B6B"/>
<path d="M17.1923 18.0916C17.1923 15.9367 15.8834 14.0876 14.0174 13.2957C13.9984 13.443 13.978 13.5881 13.9558 13.7299C14.4749 13.9647 14.9528 14.2938 15.3676 14.7087C16.2713 15.6124 16.7689 16.8137 16.7689 18.0916C16.7689 19.3694 16.2713 20.5708 15.3676 21.4744C14.6169 22.2251 13.6605 22.6953 12.6255 22.833C12.6583 22.984 12.6896 23.1225 12.7167 23.2476C15.2461 22.8917 17.1923 20.719 17.1923 18.0916Z" fill="#858585"/>
<path d="M8.60194 21.4745C7.69831 20.5708 7.20071 19.3695 7.20071 18.0916C7.20071 16.8138 7.69831 15.6124 8.60194 14.7088C9.31754 13.9932 10.2201 13.5325 11.1993 13.3717C11.241 13.2206 11.2799 13.0724 11.3166 12.9268C8.75619 13.2548 6.77734 15.4421 6.77734 18.0917C6.77734 20.9678 9.10885 23.2992 11.9848 23.2992C12.0595 23.2992 12.1337 23.2972 12.2077 23.2941C12.1235 23.172 12.0342 23.0319 11.9423 22.8752C10.6803 22.8642 9.49549 22.368 8.60194 21.4745Z" fill="#858585"/>
<path d="M11.9849 22.8756C11.9707 22.8756 11.9566 22.8752 11.9424 22.8751C12.0343 23.0317 12.1238 23.1719 12.2078 23.2939C12.3798 23.2867 12.5495 23.2711 12.7167 23.2475C12.6897 23.1225 12.6584 22.984 12.6256 22.8329C12.4149 22.861 12.201 22.8756 11.9849 22.8756Z" fill="#858585"/>
<path d="M18.1982 17.1973C18.1982 14.5079 16.4922 12.217 14.1034 11.3476C14.1107 11.4965 14.1149 11.6484 14.1154 11.8037C14.8412 12.0917 15.5073 12.5273 16.0759 13.096C17.1714 14.1915 17.7748 15.648 17.7748 17.1973C17.7748 18.7466 17.1714 20.2032 16.0759 21.2987C15.1419 22.2327 13.9455 22.8085 12.6528 22.9582C12.6867 23.1115 12.7181 23.2507 12.7432 23.3736C15.8178 22.9949 18.1982 20.3742 18.1982 17.1973Z" fill="#7F7F7F"/>
<path d="M11.9748 22.9975C10.4255 22.9975 8.96893 22.3942 7.87345 21.2987C6.77796 20.2032 6.17459 18.7466 6.17459 17.1973C6.17459 15.648 6.77796 14.1915 7.87345 13.096C8.88755 12.0819 10.2111 11.4899 11.6312 11.4075C11.6544 11.2618 11.675 11.1193 11.693 10.9804C8.38662 11.1278 5.75122 13.8547 5.75122 17.1973C5.75122 20.6345 8.53763 23.4208 11.9748 23.4208C12.0814 23.4208 12.1872 23.4181 12.2925 23.4128C12.2061 23.2947 12.1128 23.1557 12.0155 22.997C12.0019 22.9972 11.9883 22.9975 11.9748 22.9975Z" fill="#7F7F7F"/>
<path d="M12.0154 22.997C12.1126 23.1559 12.206 23.2949 12.2923 23.4129C12.4442 23.4052 12.5946 23.3919 12.7434 23.3736C12.7183 23.2507 12.6869 23.1114 12.653 22.9582C12.4428 22.9825 12.2301 22.9956 12.0154 22.997Z" fill="#7F7F7F"/>
<path d="M11.9851 23.1195C10.1725 23.1195 8.46846 22.4137 7.18681 21.132C5.90515 19.8504 5.19934 18.1463 5.19934 16.3338C5.19934 14.5212 5.90515 12.8172 7.18681 11.5355C8.4239 10.2984 10.0545 9.59802 11.7962 9.55081C11.7977 9.4045 11.7962 9.26328 11.7918 9.12735C7.89966 9.22979 4.77588 12.4169 4.77588 16.3339C4.77588 20.3154 8.00357 23.5431 11.9851 23.5431C12.1184 23.5431 12.2509 23.5392 12.3825 23.532C12.2938 23.4193 12.1954 23.2809 12.0913 23.1184C12.0559 23.1187 12.0205 23.1195 11.9851 23.1195Z" fill="#6C6C6C"/>
<path d="M19.194 16.3337C19.194 12.9707 16.8912 10.1457 13.7765 9.34906C13.821 9.50105 13.8619 9.65824 13.8987 9.82061C14.9775 10.136 15.9663 10.7185 16.7832 11.5354C18.0648 12.8171 18.7706 14.5211 18.7706 16.3337C18.7706 18.1462 18.0648 19.8503 16.7832 21.1319C15.667 22.2481 14.2304 22.9274 12.6809 23.0841C12.7157 23.2409 12.746 23.38 12.7679 23.5003C16.381 23.11 19.194 20.0506 19.194 16.3337Z" fill="#6C6C6C"/>
<path d="M12.0911 23.1182C12.1952 23.2807 12.2936 23.419 12.3822 23.5317C12.5117 23.5247 12.6403 23.5141 12.7679 23.5003C12.746 23.3799 12.7157 23.241 12.6809 23.0842C12.4859 23.104 12.2892 23.1151 12.0911 23.1182Z" fill="#6C6C6C"/>
<path d="M11.9797 23.2312C10.9174 23.2312 9.88709 23.0232 8.91735 22.613C7.98052 22.2168 7.13907 21.6494 6.41632 20.9267C5.69357 20.204 5.12624 19.3625 4.73 18.4257C4.31986 17.4559 4.11184 16.4256 4.11184 15.3633C4.11184 14.3009 4.31976 13.2706 4.73 12.3009C5.12624 11.3641 5.69367 10.5225 6.41632 9.79988C7.13907 9.07713 7.98052 8.5098 8.91735 8.11356C9.76477 7.75512 10.6584 7.55113 11.5793 7.50539C11.542 7.35438 11.5019 7.21561 11.4608 7.08868C7.1235 7.35663 3.68848 10.9585 3.68848 15.3633C3.68848 19.9425 7.40065 23.6545 11.9797 23.6545C12.1446 23.6545 12.3081 23.6492 12.4706 23.6397C12.3804 23.5344 12.2761 23.3966 12.1638 23.2289C12.1024 23.2304 12.0411 23.2312 11.9797 23.2312Z" fill="#A3A3A3"/>
<path d="M20.271 15.3632C20.271 11.0141 16.9222 7.44746 12.6626 7.10019C12.7697 7.24112 12.8758 7.39379 12.979 7.55803C13.6888 7.64764 14.3796 7.83332 15.042 8.11351C15.9788 8.50975 16.8203 9.07717 17.543 9.79983C18.2658 10.5226 18.8331 11.364 19.2293 12.3009C19.6395 13.2706 19.8475 14.301 19.8475 15.3632C19.8475 16.4256 19.6396 17.4559 19.2293 18.4256C18.8331 19.3625 18.2657 20.204 17.543 20.9267C16.8203 21.6494 15.9788 22.2167 15.042 22.613C14.295 22.9289 13.5118 23.1244 12.7059 23.1977C12.7411 23.3586 12.7701 23.4986 12.7869 23.6152C16.9873 23.2094 20.271 19.67 20.271 15.3632Z" fill="#A3A3A3"/>
<path d="M12.1636 23.2288C12.2759 23.3966 12.3802 23.5344 12.4704 23.6396C12.5765 23.6334 12.6819 23.6254 12.7869 23.6152C12.7701 23.4985 12.7412 23.3586 12.7059 23.1977C12.5262 23.2141 12.3454 23.2247 12.1636 23.2288Z" fill="#A3A3A3"/>
<path d="M21.4599 14.2862C21.4599 9.05044 17.2156 4.80609 11.9798 4.80609C6.7441 4.80609 2.49976 9.05044 2.49976 14.2862C2.49976 19.5219 6.7441 23.7662 11.9798 23.7662C12.1779 23.7662 12.3743 23.7594 12.5693 23.7474C12.4782 23.6549 12.3653 23.5175 12.2395 23.3389C12.1531 23.3413 12.0666 23.3428 11.9798 23.3428C10.757 23.3428 9.57096 23.1033 8.45471 22.6312C7.37626 22.175 6.4077 21.522 5.57575 20.69C4.7439 19.8581 4.09079 18.8895 3.63461 17.8111C3.16247 16.6948 2.92303 15.5088 2.92303 14.286C2.92303 13.0632 3.16247 11.8771 3.63461 10.7608C4.09079 9.6824 4.74381 8.71384 5.57575 7.88189C6.4076 7.05004 7.37626 6.39692 8.45471 5.94075C9.57096 5.46861 10.757 5.22916 11.9798 5.22916C13.2026 5.22916 14.3887 5.46861 15.5049 5.94075C16.5834 6.39692 17.552 7.04995 18.3839 7.88189C19.2157 8.71384 19.8689 9.6824 20.325 10.7608C20.7972 11.8771 21.0366 13.0632 21.0366 14.286C21.0366 15.5088 20.7972 16.6948 20.325 17.8111C19.8689 18.8895 19.2158 19.8581 18.3839 20.69C17.552 21.5219 16.5834 22.175 15.5049 22.6312C14.6186 23.0061 13.6884 23.2336 12.7306 23.3117C12.7659 23.479 12.7916 23.6195 12.7998 23.7304C17.6516 23.3148 21.4599 19.2455 21.4599 14.2862Z" fill="#DEDEDE"/>
<path d="M12.2393 23.3389C12.365 23.5176 12.478 23.6549 12.5691 23.7475C12.6463 23.7428 12.7231 23.7371 12.7997 23.7306C12.7915 23.6197 12.7658 23.4791 12.7305 23.3119C12.5674 23.3252 12.4038 23.3344 12.2393 23.3389Z" fill="#DADADA"/>
<path d="M22.7298 13.2701C22.7298 7.34413 17.9259 2.54019 11.9999 2.54019C6.07396 2.54019 1.27002 7.34413 1.27002 13.2701C1.27002 19.1961 6.07396 24 11.9999 24C12.2436 24 12.4852 23.9911 12.7249 23.9751C12.6407 23.9224 12.5072 23.7849 12.3462 23.5703C12.231 23.574 12.1158 23.5766 12 23.5766C10.6085 23.5766 9.25876 23.3042 7.98836 22.7669C6.76116 22.2479 5.65882 21.5046 4.71219 20.5579C3.76556 19.6113 3.02234 18.509 2.5032 17.2817C1.96584 16.0114 1.69348 14.6616 1.69348 13.2701C1.69348 11.8786 1.96593 10.5288 2.5032 9.25844C3.02225 8.03123 3.76547 6.92889 4.71219 5.98226C5.65882 5.03564 6.76116 4.29242 7.98836 3.77327C9.25876 3.23591 10.6085 2.96356 12 2.96356C13.3916 2.96356 14.7413 3.23601 16.0117 3.77327C17.2389 4.29232 18.3412 5.03554 19.2878 5.98226C20.2345 6.92889 20.9777 8.03123 21.4968 9.25844C22.0342 10.5288 22.3066 11.8786 22.3066 13.2701C22.3066 14.6616 22.0341 16.0114 21.4968 17.2817C20.9778 18.509 20.2346 19.6113 19.2878 20.5579C18.3412 21.5045 17.2389 22.2478 16.0117 22.7669C14.9789 23.2038 13.8937 23.4655 12.776 23.5481C12.8101 23.7229 12.8293 23.8626 12.8212 23.9615C12.8209 23.9644 12.8201 23.9666 12.8197 23.9691C18.3626 23.5504 22.7298 18.9203 22.7298 13.2701Z" fill="#808080"/>
<path d="M12.7558 23.4365C12.6131 23.447 12.4697 23.454 12.3259 23.4587C12.4869 23.6733 12.6205 23.8108 12.7047 23.8636C12.7363 23.8614 12.768 23.8599 12.7994 23.8576C12.7999 23.855 12.8007 23.8529 12.8009 23.8499C12.809 23.7508 12.7898 23.6112 12.7558 23.4365Z" fill="#959595"/>
<path d="M12.9171 0H11.0522C5.15709 0.452257 0.452355 5.15699 0 11.0521V12.917C0.467437 19.0095 5.47684 23.8303 11.6481 23.9999H12.3209C18.6922 23.8248 23.8248 18.6921 23.9999 12.3209V11.6482C23.8304 5.47684 19.0096 0.467437 12.9171 0ZM23.5766 12.3151C23.4092 18.3049 18.7059 23.1539 12.7773 23.5538C12.7975 23.6746 12.8073 23.7742 12.801 23.8498C12.7988 23.8756 12.7874 23.8883 12.7677 23.8883C12.7099 23.8883 12.5819 23.779 12.4148 23.5726C12.3816 23.5738 12.3484 23.5757 12.3152 23.5766H11.6542C8.78327 23.4963 6.05709 22.3588 3.97757 20.3734C1.90735 18.3969 0.645576 15.7435 0.423462 12.9008V11.0686C0.637937 8.32416 1.83116 5.73773 3.78445 3.78445C5.73773 1.83106 8.32416 0.637841 11.0686 0.423464H12.9007C15.7435 0.645577 18.3968 1.90735 20.3734 3.97757C22.3588 6.05709 23.4963 8.78327 23.5766 11.6542V12.3151Z" fill="#6B6B6B"/>
<path d="M12.7676 23.8882C12.7873 23.8882 12.7989 23.8756 12.8009 23.8498C12.8072 23.7741 12.7973 23.6746 12.7772 23.5538C12.6569 23.5619 12.5361 23.5682 12.4148 23.5726C12.5819 23.7789 12.7099 23.8882 12.7676 23.8882Z" fill="#6B6B6B"/>
<path d="M11.7797 6.74262C12.0552 7.00439 12.3649 7.36479 12.6571 7.84123C13.2674 8.83585 13.9278 10.5655 13.609 13.1566C13.4112 14.7634 13.0006 16.0331 12.6383 17.1533C12.3288 18.1107 12.0614 18.9376 11.9728 19.7952C11.8764 20.7284 11.9597 21.5594 12.0767 22.239C11.8533 21.8027 11.6209 21.2597 11.4231 20.6177C10.9642 19.1285 10.5989 16.768 11.4649 13.98L11.4655 13.978L11.4661 13.9761C12.348 11.0367 12.4525 8.60913 11.7797 6.74262ZM10.9714 5.75104C10.8587 5.75104 10.8463 5.8381 10.9829 6.00645C11.1623 6.41258 12.6723 8.48289 11.0605 13.8542C9.27716 19.5956 12.4053 23.8881 12.7678 23.8881C12.7875 23.8881 12.799 23.8755 12.8011 23.8497C12.8423 23.3491 12.1895 21.8183 12.3939 19.8385C12.5808 18.0281 13.6611 16.1984 14.0291 13.2081C14.6724 7.98128 11.5414 5.75104 10.9714 5.75104Z" fill="#6B6B6B"/>
<path d="M31.2066 11.6116C32.3553 11.6116 33.3902 11.2166 34.1206 10.4993C34.8485 9.78461 35.2493 8.77547 35.2493 7.65809C35.2493 6.53971 34.8485 5.52867 34.1207 4.81097C33.3895 4.09 32.3546 3.69284 31.2066 3.69284C30.0586 3.69284 29.0236 4.09 28.2924 4.81097C27.5646 5.52867 27.1638 6.53983 27.1638 7.65809C27.1638 8.77547 27.5646 9.78448 28.2925 10.4993C29.023 11.2166 30.0578 11.6116 31.2066 11.6116ZM28.8159 7.65809C28.8159 6.19156 29.799 5.1673 31.2066 5.1673C32.6141 5.1673 33.5972 6.19156 33.5972 7.65809C33.5972 9.11794 32.6141 10.1375 31.2066 10.1375C29.799 10.1375 28.8159 9.11794 28.8159 7.65809Z" fill="white"/>
<path d="M38.5462 10.1372C38.0528 10.1372 37.4034 9.88876 37.0602 9.1916L37.0118 9.09332L35.9368 10.118L35.9756 10.1744C36.3443 10.711 37.1756 11.6113 38.6019 11.6113C39.3761 11.6113 40.0409 11.3699 40.5243 10.9131C41.0087 10.4556 41.2647 9.82639 41.2647 9.09332C41.2647 8.2481 40.9052 7.74687 40.6041 7.47559C40.224 7.12921 39.6861 6.92547 39.0743 6.71379C38.6265 6.55364 38.3798 6.46531 38.2097 6.30567C38.0671 6.18118 38.0034 6.04535 38.0034 5.86555C38.0034 5.48465 38.2514 5.07779 38.9472 5.07779C39.4099 5.07779 39.7964 5.2804 40.0962 5.68008L40.1599 5.765L41.0233 4.6349L40.975 4.58513C40.4077 4.00111 39.6603 3.69241 38.8136 3.69241C37.1127 3.69241 36.3514 4.82869 36.3514 5.95476C36.3514 6.55704 36.5592 7.04177 36.9685 7.39482C37.3403 7.72305 37.795 7.90676 38.2311 8.05633L38.2832 8.07409C38.6822 8.21017 39.0949 8.35092 39.3485 8.58427C39.5312 8.75664 39.6126 8.94438 39.6126 9.19323C39.6123 9.75797 39.1839 10.1372 38.5462 10.1372Z" fill="white"/>
<path d="M43.9837 8.13867H46.9617V11.4444H48.5694V3.85968H46.9617V6.73137H43.9837V3.85968H42.376V11.4444H43.9837V8.13867Z" fill="white"/>
<path d="M56.7057 10.4989C57.4337 9.78414 57.8345 8.77513 57.8345 7.65775C57.8345 6.5395 57.4337 5.52834 56.7058 4.81064C55.9745 4.08966 54.9397 3.6925 53.7915 3.6925C52.6435 3.6925 51.6086 4.08966 50.8773 4.81064C50.1493 5.52834 49.7485 6.5395 49.7485 7.65775C49.7485 8.77513 50.1495 9.78414 50.8774 10.4989C51.6078 11.2163 52.6428 11.6113 53.7915 11.6113C54.9403 11.6113 55.9751 11.2163 56.7057 10.4989ZM51.4009 7.65775C51.4009 6.19123 52.384 5.16697 53.7915 5.16697C55.1991 5.16697 56.1822 6.19123 56.1822 7.65775C56.1822 9.1176 55.1991 10.1372 53.7915 10.1372C52.384 10.1372 51.4009 9.1176 51.4009 7.65775Z" fill="white"/>
<path d="M29.7487 15.1682C29.0171 15.1682 28.3933 15.3927 27.8943 15.8352C27.3187 16.3455 27.0017 17.0884 27.0017 17.927C27.0017 18.9735 27.5166 19.6137 27.8231 19.9018C28.325 20.3777 29.0478 20.6508 29.8065 20.6508C30.2648 20.6508 30.7119 20.5429 31.1357 20.3304L31.1766 20.3098V18.7195L31.0524 18.8322C30.67 19.1799 30.2644 19.2528 29.9916 19.2528C29.1898 19.2528 28.608 18.6854 28.608 17.9038C28.608 17.2383 29.0214 16.5667 29.9451 16.5667C30.3836 16.5667 30.7457 16.7041 31.052 16.9864L31.1765 17.1012V15.4972L31.1348 15.4769C30.7017 15.2664 30.2614 15.1682 29.7487 15.1682Z" fill="white"/>
<path d="M34.676 15.1682C33.8711 15.1682 33.2371 15.4061 32.7375 15.8959C32.2165 16.4173 31.9524 17.0969 31.9524 17.9157C31.9524 18.757 32.2174 19.4141 32.7621 19.9243C33.282 20.42 33.9086 20.6508 34.734 20.6508C36.3691 20.6508 37.0232 19.6432 37.2675 19.0425L37.3026 18.9561L35.8638 18.7249L35.8383 18.7695C35.6087 19.1707 35.2164 19.3917 34.7339 19.3917C34.1895 19.3917 33.9073 19.1137 33.787 18.9474C33.6555 18.7691 33.5728 18.5017 33.5603 18.221H37.3073V18.0312C37.3073 17.4841 37.2432 16.6801 36.6886 16.017C36.2194 15.4539 35.5423 15.1682 34.676 15.1682ZM33.6214 17.1701C33.7638 16.5782 34.262 16.312 34.7104 16.312C35.1659 16.312 35.6704 16.5782 35.8117 17.1701H33.6214Z" fill="white"/>
<path d="M41.3968 15.1682C40.8012 15.1682 40.3055 15.3935 39.9205 15.8387V15.3308H38.3606V20.489H39.9205V17.8575C39.9205 17.5499 39.9365 17.2247 40.128 16.9272C40.3131 16.6496 40.5693 16.5204 40.9342 16.5204C41.1101 16.5204 41.358 16.5606 41.5401 16.7522C41.7856 17.0089 41.7856 17.465 41.7856 17.6842V20.489H43.3457V17.2675C43.3457 16.7729 43.2961 16.2539 42.9357 15.8095C42.4673 15.2307 41.7035 15.1682 41.3968 15.1682Z" fill="white"/>
<path d="M46.2128 13.6181H44.6531V15.3308H44.0977V16.6822H44.6531V20.489H46.2128V16.6822H47.1849V15.3308H46.2128V13.6181Z" fill="white"/>
<path d="M50.3605 15.1682C49.5555 15.1682 48.9215 15.4061 48.4218 15.8959C47.9009 16.4174 47.6367 17.0969 47.6367 17.9157C47.6367 18.757 47.9017 19.4141 48.4464 19.9243C48.9663 20.42 49.5929 20.6508 50.4182 20.6508C52.0533 20.6508 52.7074 19.6432 52.9517 19.0425L52.9868 18.9561L51.548 18.7249L51.5226 18.7695C51.293 19.1707 50.9009 19.3917 50.4182 19.3917C49.8739 19.3917 49.5915 19.1137 49.4714 18.9474C49.34 18.7691 49.2572 18.5017 49.2446 18.221H52.9916V18.0312C52.9916 17.4841 52.9275 16.6801 52.373 16.017C51.9039 15.4539 51.2267 15.1682 50.3605 15.1682ZM49.306 17.1701C49.4484 16.5782 49.9466 16.312 50.3951 16.312C50.8506 16.312 51.3551 16.5782 51.4964 17.1701H49.306Z" fill="white"/>
<path d="M57.4619 16.807L57.6721 15.309L57.615 15.2886C57.4481 15.2291 57.243 15.1682 56.9886 15.1682C56.653 15.1682 56.3594 15.2461 56.1195 15.3978C56.0653 15.4278 55.8258 15.5725 55.6051 15.8892V15.3308H54.0449V20.489H55.6051V18.0081C55.6051 17.6362 55.6252 17.2476 55.8661 16.9436C56.0665 16.6935 56.3623 16.5667 56.7455 16.5667C57.01 16.5667 57.1831 16.615 57.3629 16.7387L57.4619 16.807Z" fill="white"/>
<path d="M62.0305 5.37909C62.0305 6.34552 61.2862 7.06095 60.3535 7.06095C59.4208 7.06095 58.6765 6.34565 58.6765 5.37909C58.6765 4.41241 59.416 3.69244 60.3535 3.69244C61.2912 3.69244 62.0305 4.41254 62.0305 5.37909ZM59.0148 5.37909C59.0148 6.14745 59.6045 6.7612 60.3536 6.7612C61.1027 6.7612 61.6923 6.14745 61.6923 5.37909C61.6923 4.61049 61.1027 3.99195 60.3536 3.99195C59.6045 3.99195 59.0148 4.61061 59.0148 5.37909ZM60.3294 4.53816C60.7354 4.53816 60.9191 4.79432 60.9191 5.04065C60.9191 5.26292 60.7693 5.44675 60.5373 5.49501L61.0351 6.15702H60.605L60.1555 5.55776V6.15702H59.7882V4.53816H60.3294ZM60.1554 5.25826H60.2183C60.3101 5.25826 60.5227 5.25334 60.5227 5.05514C60.5227 4.86198 60.3487 4.85707 60.2278 4.85707H60.1554V5.25826Z" fill="white"/>
</svg>
