<svg width="32" height="32" viewBox="0 0 32 32" fill="none" xmlns="http://www.w3.org/2000/svg">
<path d="M23.9078 30.4245L7.56084 30.44C3.96452 30.4433 1.01962 27.5041 1.01553 23.9078L1 7.56084C0.996733 3.96452 3.93591 1.01962 7.53224 1.01553L23.8792 1C27.4755 0.996733 30.4204 3.93591 30.4245 7.53224L30.44 23.8792C30.4441 27.4763 27.5041 30.4212 23.9078 30.4245Z" fill="white"/>
<path d="M15.7195 21.4419C12.5653 21.4419 9.99805 18.8754 9.99805 15.7204C9.99805 12.5655 12.5653 9.99902 15.7195 9.99902C18.8736 9.99902 21.4409 12.5655 21.4409 15.7204C21.4409 18.8754 18.8736 21.4419 15.7195 21.4419ZM15.7195 11.6337C13.466 11.6337 11.6327 13.467 11.6327 15.7204C11.6327 17.9739 13.466 19.8072 15.7195 19.8072C17.9729 19.8072 19.8062 17.9739 19.8062 15.7204C19.8062 13.467 17.9729 11.6337 15.7195 11.6337Z" fill="#0F0529"/>
<path d="M21.851 10.8163C22.5281 10.8163 23.077 10.2674 23.077 9.59028C23.077 8.91317 22.5281 8.36426 21.851 8.36426C21.1739 8.36426 20.625 8.91317 20.625 9.59028C20.625 10.2674 21.1739 10.8163 21.851 10.8163Z" fill="#0F0529"/>
<path d="M20.6233 26.346H10.8152C7.66103 26.346 5.09375 23.7795 5.09375 20.6245V10.8164C5.09375 7.66144 7.66103 5.09497 10.8152 5.09497H20.6233C23.7775 5.09497 26.3447 7.66144 26.3447 10.8164V20.6245C26.3447 23.7795 23.7775 26.346 20.6233 26.346ZM10.8152 6.72966C8.56175 6.72966 6.72844 8.56297 6.72844 10.8164V20.6245C6.72844 22.878 8.56175 24.7113 10.8152 24.7113H20.6233C22.8768 24.7113 24.7101 22.878 24.7101 20.6245V10.8164C24.7101 8.56297 22.8768 6.72966 20.6233 6.72966H10.8152Z" fill="#0F0529"/>
</svg>
