<svg width="135" height="52" viewBox="0 0 135 52" fill="none" xmlns="http://www.w3.org/2000/svg">
<path d="M23.7713 12.4606C23.5271 12.4606 23.5002 12.6493 23.7962 13.014C24.1849 13.894 27.4566 18.3797 23.9644 30.0174C20.1005 42.4572 26.878 51.7577 27.6635 51.7577C27.7062 51.7577 27.7312 51.7303 27.7357 51.6743C27.825 50.5898 26.4106 47.2731 26.8534 42.9834C27.2585 39.0609 29.5989 35.0966 30.3963 28.6176C31.7902 17.2928 25.0063 12.4606 23.7713 12.4606Z" fill="#D05045"/>
<path d="M19.8507 43.0399C19.8507 40.8344 21.0264 38.8984 22.7838 37.8254C22.7816 37.4772 22.7867 37.1245 22.7999 36.767C20.5072 37.923 18.9336 40.297 18.9336 43.0399C18.9336 46.9185 22.0778 50.0628 25.9564 50.0628C26.0305 50.0628 26.1039 50.0594 26.1773 50.0572C26.0016 49.7814 25.8189 49.4739 25.6331 49.1368C22.416 48.9681 19.8507 46.2981 19.8507 43.0399Z" fill="#72538D"/>
<path d="M32.9786 43.0399C32.9786 40.0799 31.1464 37.5493 28.5549 36.5159C28.46 36.8132 28.3658 37.1054 28.2731 37.3925C30.4937 38.307 32.0613 40.4934 32.0613 43.0399C32.0613 45.9603 29.9999 48.407 27.2559 49.0048C27.3223 49.3262 27.3883 49.6256 27.4496 49.9019C30.6104 49.217 32.9786 46.4057 32.9786 43.0399Z" fill="#72538D"/>
<path d="M25.9562 49.1454C25.8478 49.1454 25.74 49.1425 25.6328 49.1367C25.8185 49.4739 26.0014 49.7814 26.1771 50.0572C26.6125 50.0436 27.0381 49.9912 27.45 49.9019C27.3887 49.6256 27.3227 49.326 27.2563 49.0048C26.8372 49.096 26.4024 49.1454 25.9562 49.1454Z" fill="#72538D"/>
<path d="M34.9383 41.2566C34.9383 37.5802 32.7292 34.4203 29.5665 33.0303C29.4892 33.3377 29.4097 33.6382 29.3288 33.9338C32.0956 35.2133 34.021 38.0135 34.021 41.2569C34.021 45.2462 31.1087 48.5664 27.2988 49.2078C27.3676 49.532 27.4348 49.8325 27.4955 50.1071C31.7228 49.3769 34.9383 45.6925 34.9383 41.2566Z" fill="#2F76AC"/>
<path d="M17.8909 41.2567C17.8909 37.8158 20.0578 34.8727 23.0981 33.7165C23.1526 33.3736 23.2148 33.0275 23.285 32.6783C19.6285 33.8154 16.9736 37.2261 16.9736 41.2567C16.9736 46.2175 20.995 50.2389 25.9558 50.2389C26.0679 50.2389 26.179 50.2361 26.29 50.2321C26.1113 49.9603 25.924 49.6543 25.7326 49.3158C21.3887 49.197 17.8909 45.6288 17.8909 41.2567Z" fill="#2F76AC"/>
<path d="M25.9561 49.3215C25.8812 49.3215 25.8072 49.3179 25.7329 49.3158C25.9243 49.6542 26.1117 49.9602 26.2903 50.232C26.6996 50.2169 27.102 50.1749 27.4956 50.107C27.4349 49.8325 27.3676 49.532 27.2989 49.2078C26.862 49.2812 26.4138 49.3215 25.9561 49.3215Z" fill="#2F76AC"/>
<path d="M37.2503 39.1984C37.2503 34.5296 34.4144 30.5233 30.3713 28.8075C30.3302 29.1266 30.286 29.4409 30.2378 29.7481C31.3625 30.257 32.3979 30.9699 33.2968 31.869C35.2546 33.8268 36.3328 36.4298 36.3328 39.1984C36.3328 41.9671 35.2546 44.5702 33.2968 46.5279C31.6701 48.1545 29.5979 49.1732 27.3555 49.4716C27.4266 49.7988 27.4944 50.0988 27.553 50.3698C33.0334 49.5987 37.2503 44.8912 37.2503 39.1984Z" fill="#00A5D3"/>
<path d="M18.6379 46.5279C16.68 44.57 15.6019 41.9671 15.6019 39.1984C15.6019 36.4298 16.68 33.8267 18.6379 31.869C20.1883 30.3185 22.1439 29.3204 24.2656 28.972C24.3557 28.6446 24.4402 28.3235 24.5196 28.008C18.9721 28.7186 14.6846 33.4579 14.6846 39.1987C14.6846 45.43 19.7362 50.4814 25.9673 50.4814C26.1292 50.4814 26.2901 50.4772 26.4503 50.4704C26.268 50.206 26.0745 49.9023 25.8752 49.5628C23.141 49.5391 20.5739 48.4639 18.6379 46.5279Z" fill="#00A5D3"/>
<path d="M25.9671 49.5638C25.9363 49.5638 25.9058 49.563 25.875 49.5627C26.0742 49.902 26.268 50.2059 26.45 50.4703C26.8226 50.4546 27.1904 50.4208 27.5528 50.3697C27.4942 50.0989 27.4263 49.7987 27.3552 49.4715C26.8988 49.5322 26.4354 49.5638 25.9671 49.5638Z" fill="#00A5D3"/>
<path d="M39.4296 37.2609C39.4296 31.4338 35.7332 26.4702 30.5575 24.5864C30.5732 24.9092 30.5823 25.2383 30.5834 25.5748C32.1559 26.1986 33.5992 27.1425 34.8312 28.3746C37.2048 30.7482 38.5121 33.9041 38.5121 37.2609C38.5121 40.6178 37.2048 43.7737 34.8312 46.1472C32.8076 48.1709 30.2152 49.4185 27.4146 49.7428C27.488 50.0751 27.5559 50.3766 27.6104 50.6429C34.2721 49.8223 39.4296 44.1441 39.4296 37.2609Z" fill="#00A66F"/>
<path d="M25.9454 49.8281C22.5885 49.8281 19.4326 48.5208 17.0591 46.1472C14.6855 43.7737 13.3782 40.6178 13.3782 37.261C13.3782 33.9041 14.6855 30.7482 17.0591 28.3747C19.2563 26.1774 22.1241 24.8948 25.2008 24.7163C25.2511 24.4006 25.2959 24.0918 25.3347 23.791C18.171 24.1103 12.4609 30.0185 12.4609 37.261C12.4609 44.7082 18.4982 50.7452 25.9454 50.7452C26.1762 50.7452 26.4056 50.7392 26.6337 50.7278C26.4466 50.4719 26.2443 50.1708 26.0336 49.8268C26.0041 49.8272 25.9747 49.8281 25.9454 49.8281Z" fill="#00A66F"/>
<path d="M26.0332 49.8269C26.2439 50.1711 26.4461 50.4722 26.6333 50.7279C26.9624 50.7113 27.2881 50.6825 27.6106 50.6428C27.5561 50.3765 27.4882 50.0748 27.4148 49.7427C26.9592 49.7955 26.4983 49.8237 26.0332 49.8269Z" fill="#00A66F"/>
<path d="M25.9676 50.0922C22.0404 50.0922 18.3483 48.563 15.5713 45.7861C12.7944 43.0091 11.2652 39.317 11.2652 35.3898C11.2652 31.4626 12.7944 27.7705 15.5713 24.9936C18.2517 22.3132 21.7847 20.7957 25.5585 20.6934C25.5616 20.3764 25.5584 20.0704 25.5489 19.7759C17.1159 19.9978 10.3477 26.9033 10.3477 35.3901C10.3477 44.0166 17.341 51.01 25.9676 51.01C26.2566 51.01 26.5434 51.0015 26.8286 50.986C26.6366 50.7417 26.4233 50.4419 26.1978 50.0899C26.121 50.0905 26.0444 50.0922 25.9676 50.0922Z" fill="#058C59"/>
<path d="M41.5872 35.3898C41.5872 28.1034 36.5978 21.9824 29.8494 20.2564C29.9457 20.5857 30.0344 20.9263 30.1142 21.2781C32.4516 21.9614 34.5939 23.2235 36.3638 24.9935C39.1407 27.7705 40.67 31.4626 40.67 35.3898C40.67 39.317 39.1407 43.0091 36.3638 45.786C33.9455 48.2043 30.8328 49.6761 27.4756 50.0158C27.5509 50.3555 27.6167 50.6568 27.664 50.9174C35.4925 50.0718 41.5872 43.443 41.5872 35.3898Z" fill="#058C59"/>
<path d="M26.1973 50.0894C26.4228 50.4417 26.6361 50.7413 26.8281 50.9855C27.1086 50.9702 27.3872 50.9473 27.6637 50.9174C27.6164 50.6566 27.5506 50.3555 27.4753 50.0158C27.0528 50.0587 26.6265 50.0829 26.1973 50.0894Z" fill="#058C59"/>
<path d="M25.9561 50.3341C23.6543 50.3341 21.422 49.8834 19.3209 48.9948C17.2911 48.1362 15.468 46.9068 13.902 45.3411C12.3361 43.7751 11.1069 41.952 10.2483 39.9222C9.35969 37.8211 8.90899 35.5886 8.90899 33.287C8.90899 30.9852 9.35947 28.753 10.2483 26.6519C11.1069 24.6221 12.3363 22.7987 13.902 21.233C15.468 19.667 17.2911 18.4378 19.3209 17.5793C21.157 16.8027 23.0932 16.3607 25.0884 16.2616C25.0076 15.9344 24.9208 15.6337 24.8317 15.3587C15.4343 15.9393 7.9917 23.7434 7.9917 33.287C7.9917 43.2086 16.0348 51.2514 25.9561 51.2514C26.3132 51.2514 26.6676 51.2397 27.0196 51.2192C26.8242 50.991 26.5982 50.6925 26.3548 50.3292C26.222 50.3324 26.0891 50.3341 25.9561 50.3341Z" fill="#72B956"/>
<path d="M43.9203 33.2871C43.9203 23.8639 36.6647 16.1362 27.4355 15.3838C27.6677 15.6891 27.8975 16.0199 28.1211 16.3758C29.6591 16.5699 31.1557 16.9722 32.5909 17.5793C34.6207 18.4378 36.4438 19.6673 38.0098 21.233C39.5758 22.799 40.805 24.6221 41.6635 26.6519C42.5521 28.753 43.0028 30.9854 43.0028 33.2871C43.0028 35.5889 42.5524 37.8211 41.6635 39.9222C40.805 41.952 39.5756 43.7754 38.0098 45.3411C36.4438 46.9071 34.6207 48.1363 32.5909 48.9948C30.9723 49.6793 29.2754 50.1029 27.5293 50.2618C27.6057 50.6104 27.6685 50.9136 27.7048 51.1664C36.8056 50.287 43.9203 42.6183 43.9203 33.2871Z" fill="#72B956"/>
<path d="M26.3545 50.3293C26.5979 50.6927 26.8239 50.9913 27.0193 51.2192C27.2491 51.2058 27.4776 51.1884 27.7051 51.1663C27.6686 50.9136 27.606 50.6104 27.5296 50.2618C27.1402 50.2974 26.7485 50.3203 26.3545 50.3293Z" fill="#72B956"/>
<path d="M46.4963 30.9534C46.4963 19.6094 37.3002 10.4133 25.9562 10.4133C14.6121 10.4133 5.41602 19.6094 5.41602 30.9534C5.41602 42.2975 14.6121 51.4936 25.9562 51.4936C26.3852 51.4936 26.8109 51.4787 27.2333 51.4528C27.036 51.2523 26.7914 50.9546 26.5187 50.5676C26.3315 50.5729 26.1442 50.5761 25.9562 50.5761C23.3068 50.5761 20.737 50.0573 18.3184 49.0343C15.9818 48.0459 13.8832 46.631 12.0807 44.8285C10.2783 43.0259 8.86325 40.9274 7.87487 38.5908C6.8519 36.1722 6.3331 33.6024 6.3331 30.953C6.3331 28.3036 6.8519 25.7338 7.87487 23.3152C8.86325 20.9786 10.2781 18.8801 12.0807 17.0775C13.883 15.2752 15.9818 13.8601 18.3184 12.8717C20.737 11.8487 23.3068 11.3299 25.9562 11.3299C28.6056 11.3299 31.1754 11.8487 33.5939 12.8717C35.9306 13.8601 38.0291 15.275 39.8317 17.0775C41.634 18.8801 43.0491 20.9786 44.0375 23.3152C45.0604 25.7338 45.5792 28.3036 45.5792 30.953C45.5792 33.6024 45.0604 36.1722 44.0375 38.5908C43.0491 40.9274 41.6342 43.0259 39.8317 44.8285C38.0291 46.6308 35.9306 48.0459 33.5939 49.0343C31.6736 49.8466 29.658 50.3395 27.5828 50.5088C27.6594 50.8712 27.715 51.1757 27.7328 51.4159C38.2449 50.5154 46.4963 41.6987 46.4963 30.9534Z" fill="#F8E831"/>
<path d="M26.5186 50.5677C26.791 50.9548 27.0359 51.2522 27.2332 51.453C27.4004 51.4428 27.567 51.4305 27.7329 51.4163C27.7151 51.1761 27.6595 50.8714 27.5829 50.5092C27.2296 50.538 26.875 50.558 26.5186 50.5677Z" fill="#EFE435"/>
<path d="M49.2482 28.7519C49.2482 15.9123 38.8396 5.50378 26.0001 5.50378C13.1605 5.50378 2.75195 15.9123 2.75195 28.7519C2.75195 41.5915 13.1605 52 26.0001 52C26.528 52 27.0515 51.9807 27.5709 51.9461C27.3884 51.832 27.0992 51.534 26.7504 51.0689C26.5008 51.077 26.2511 51.0827 26.0003 51.0827C22.9853 51.0827 20.0609 50.4924 17.3084 49.3283C14.6494 48.2037 12.261 46.5934 10.21 44.5422C8.15897 42.4912 6.54865 40.1028 5.42384 37.4438C4.25955 34.6913 3.66945 31.7669 3.66945 28.7519C3.66945 25.7369 4.25977 22.8125 5.42384 20.06C6.54844 17.401 8.15875 15.0126 10.21 12.9616C12.261 10.9106 14.6494 9.30028 17.3084 8.17546C20.0609 7.01118 22.9853 6.42108 26.0003 6.42108C29.0153 6.42108 31.9397 7.01139 34.6922 8.17546C37.3511 9.30007 39.7395 10.9104 41.7906 12.9616C43.8416 15.0126 45.4519 17.401 46.5767 20.06C47.741 22.8125 48.3311 25.7369 48.3311 28.7519C48.3311 31.7669 47.7408 34.6913 46.5767 37.4438C45.4521 40.1028 43.8418 42.4912 41.7906 44.5422C39.7395 46.5932 37.3511 48.2035 34.6922 49.3283C32.4544 50.2749 30.1032 50.8419 27.6817 51.021C27.7555 51.3997 27.7971 51.7023 27.7795 51.9166C27.7788 51.923 27.7772 51.9277 27.7763 51.9332C39.7858 51.0259 49.2482 40.994 49.2482 28.7519Z" fill="#EC6641"/>
<path d="M27.6379 50.7791C27.3287 50.802 27.018 50.8171 26.7065 50.8273C27.0554 51.2922 27.3448 51.5901 27.5273 51.7045C27.5956 51.6998 27.6644 51.6966 27.7325 51.6915C27.7335 51.686 27.7352 51.6813 27.7357 51.675C27.7533 51.4602 27.7117 51.1577 27.6379 50.7791Z" fill="#F08240"/>
<path d="M27.9869 0H23.9464C11.1737 0.979891 0.980103 11.1735 0 23.9462V27.9867C1.01278 41.1872 11.8665 51.6323 25.2376 51.9998H26.6953C40.4998 51.6204 51.6204 40.4995 51.9998 26.6953V25.2378C51.6325 11.8665 41.1875 1.01278 27.9869 0ZM51.0827 26.6826C50.7199 39.6605 40.5295 50.1667 27.6841 51.0333C27.7279 51.2949 27.7491 51.5107 27.7355 51.6745C27.7308 51.7305 27.706 51.7579 27.6633 51.7579C27.5382 51.7579 27.2608 51.5211 26.8988 51.074C26.8267 51.0765 26.755 51.0806 26.6828 51.0827H25.2508C19.0304 50.9087 13.1237 48.4441 8.61807 44.1424C4.1326 39.86 1.39875 34.1109 0.917502 27.9517V23.9819C1.3822 18.0357 3.96752 12.4318 8.19964 8.19964C12.4318 3.9673 18.0357 1.38199 23.9819 0.917505H27.9515C34.1109 1.39875 39.8598 4.1326 44.1424 8.61807C48.4441 13.1237 50.9087 19.0304 51.0827 25.2508V26.6826Z" fill="#E94A44"/>
<path d="M27.6634 51.7579C27.7061 51.7579 27.7311 51.7305 27.7356 51.6745C27.7492 51.5105 27.7277 51.2949 27.6842 51.0333C27.4235 51.0509 27.1618 51.0645 26.8989 51.074C27.2609 51.5209 27.5382 51.7579 27.6634 51.7579Z" fill="#E94A44"/>
<path d="M25.5225 14.6091C26.1196 15.1762 26.7906 15.9571 27.4238 16.9894C28.7459 19.1444 30.1769 22.8919 29.486 28.506C29.0576 31.9874 28.1679 34.7384 27.383 37.1656C26.7123 39.24 26.133 41.0315 25.941 42.8897C25.7322 44.9116 25.9125 46.712 26.1661 48.1846C25.6821 47.2393 25.1786 46.0627 24.75 44.6718C23.7556 41.4451 22.9642 36.3307 24.8406 30.2901L24.8418 30.2858L24.8431 30.2816C26.7539 23.9129 26.9803 18.6532 25.5225 14.6091ZM23.7713 12.4606C23.5271 12.4606 23.5002 12.6493 23.7962 13.014C24.1849 13.894 27.4566 18.3797 23.9644 30.0174C20.1005 42.4572 26.878 51.7577 27.6635 51.7577C27.7062 51.7577 27.7312 51.7303 27.7357 51.6743C27.825 50.5898 26.4106 47.2731 26.8534 42.9834C27.2585 39.0609 29.5989 35.0966 30.3963 28.6176C31.7902 17.2928 25.0063 12.4606 23.7713 12.4606Z" fill="#E94A44"/>
<path d="M67.6143 25.1578C70.1032 25.1578 72.3454 24.302 73.928 22.7478C75.5051 21.1993 76.3735 19.0128 76.3735 16.5919C76.3735 14.1687 75.5051 11.9781 73.9282 10.4231C72.344 8.86099 70.1016 8.00049 67.6143 8.00049C65.1269 8.00049 62.8845 8.86099 61.3003 10.4231C59.7234 11.9781 58.855 14.169 58.855 16.5919C58.855 19.0128 59.7234 21.199 61.3005 22.7478C62.8831 24.302 65.1253 25.1578 67.6143 25.1578ZM62.4346 16.5919C62.4346 13.4144 64.5645 11.1952 67.6143 11.1952C70.664 11.1952 72.7939 13.4144 72.7939 16.5919C72.7939 19.7549 70.664 21.964 67.6143 21.964C64.5645 21.964 62.4346 19.7549 62.4346 16.5919Z" fill="white"/>
<path d="M83.5171 21.9638C82.4481 21.9638 81.041 21.4254 80.2974 19.9149L80.1925 19.702L77.8633 21.922L77.9474 22.0443C78.7462 23.207 80.5474 25.1576 83.6378 25.1576C85.3151 25.1576 86.7555 24.6346 87.803 23.6449C88.8524 22.6537 89.4072 21.2903 89.4072 19.702C89.4072 17.8707 88.6283 16.7847 87.9758 16.1969C87.1522 15.4464 85.9867 15.005 84.6613 14.5463C83.6911 14.1993 83.1565 14.008 82.788 13.6621C82.4789 13.3923 82.3411 13.098 82.3411 12.7085C82.3411 11.8832 82.8783 11.0017 84.3858 11.0017C85.3883 11.0017 86.2259 11.4406 86.8753 12.3066L87.0135 12.4906L88.8841 10.0421L88.7795 9.93422C87.5502 8.66885 85.931 8 84.0965 8C80.4112 8 78.7617 10.4619 78.7617 12.9017C78.7617 14.2067 79.2119 15.2569 80.0986 16.0219C80.9042 16.7331 81.8895 17.1311 82.8344 17.4551L82.9471 17.4936C83.8117 17.7885 84.7058 18.0934 85.2553 18.599C85.6512 18.9725 85.8276 19.3793 85.8276 19.9184C85.827 21.142 84.8988 21.9638 83.5171 21.9638Z" fill="white"/>
<path d="M95.298 17.6336H101.75V24.7961H105.234V8.36249H101.75V14.5845H95.298V8.36249H91.8145V24.7961H95.298V17.6336Z" fill="white"/>
<path d="M122.862 22.7475C124.439 21.1988 125.308 19.0126 125.308 16.5916C125.308 14.1687 124.439 11.9779 122.862 10.4229C121.278 8.86075 119.036 8.00024 116.548 8.00024C114.061 8.00024 111.818 8.86075 110.234 10.4229C108.657 11.9779 107.788 14.1687 107.788 16.5916C107.788 19.0126 108.657 21.1988 110.234 22.7475C111.816 24.3017 114.059 25.1576 116.548 25.1576C119.037 25.1576 121.279 24.3017 122.862 22.7475ZM111.368 16.5916C111.368 13.4141 113.498 11.1949 116.548 11.1949C119.598 11.1949 121.728 13.4141 121.728 16.5916C121.728 19.7546 119.598 21.9637 116.548 21.9637C113.498 21.9637 111.368 19.7546 111.368 16.5916Z" fill="white"/>
<path d="M64.4551 32.8645C62.8701 32.8645 61.5184 33.3507 60.4374 34.3095C59.1903 35.4152 58.5034 37.0248 58.5034 38.8419C58.5034 41.1092 59.6189 42.4963 60.2831 43.1206C61.3705 44.1518 62.9367 44.7434 64.5804 44.7434C65.5734 44.7434 66.5422 44.5097 67.4603 44.0491L67.5491 44.0046V40.5588L67.2799 40.8031C66.4513 41.5563 65.5725 41.7144 64.9815 41.7144C63.2444 41.7144 61.9836 40.4851 61.9836 38.7916C61.9836 37.3497 62.8794 35.8946 64.8807 35.8946C65.8308 35.8946 66.6154 36.1921 67.2791 36.8039L67.5488 37.0526V33.5773L67.4584 33.5334C66.5201 33.0772 65.566 32.8645 64.4551 32.8645Z" fill="white"/>
<path d="M75.1317 32.8645C73.3878 32.8645 72.014 33.3799 70.9315 34.4411C69.8027 35.5708 69.2305 37.0433 69.2305 38.8173C69.2305 40.6401 69.8046 42.0639 70.9848 43.1692C72.1112 44.2432 73.4688 44.7434 75.2573 44.7434C78.8 44.7434 80.2172 42.5602 80.7465 41.2588L80.8227 41.0715L77.7053 40.5705L77.6499 40.6672C77.1524 41.5364 76.3026 42.0153 75.257 42.0153C74.0776 42.0153 73.4661 41.413 73.2054 41.0526C72.9206 40.6663 72.7413 40.087 72.7143 39.4788H80.8328V39.0676C80.8328 37.8823 80.6938 36.1403 79.4924 34.7034C78.4757 33.4834 77.0086 32.8645 75.1317 32.8645ZM72.8467 37.202C73.1552 35.9194 74.2346 35.3425 75.2062 35.3425C76.1931 35.3425 77.2862 35.9194 77.5923 37.202H72.8467Z" fill="white"/>
<path d="M89.6923 32.8645C88.4018 32.8645 87.3278 33.3526 86.4935 34.3171V33.2167H83.1138V44.3928H86.4935V38.6912C86.4935 38.0248 86.5282 37.3202 86.9432 36.6756C87.3442 36.0742 87.8992 35.7941 88.6898 35.7941C89.0709 35.7941 89.6082 35.8812 90.0027 36.2964C90.5345 36.8525 90.5345 37.8408 90.5345 38.3158V44.3928H93.9148V37.413C93.9148 36.3412 93.8073 35.2167 93.0265 34.2538C92.0117 32.9999 90.3568 32.8645 89.6923 32.8645Z" fill="white"/>
<path d="M100.127 29.5059H96.7478V33.2166H95.5444V36.1448H96.7478V44.3927H100.127V36.1448H102.234V33.2166H100.127V29.5059Z" fill="white"/>
<path d="M109.114 32.8645C107.37 32.8645 105.997 33.3799 104.914 34.4411C103.785 35.571 103.213 37.0433 103.213 38.8173C103.213 40.6401 103.787 42.0639 104.967 43.1692C106.094 44.2432 107.451 44.7434 109.239 44.7434C112.782 44.7434 114.199 42.5602 114.729 41.2588L114.805 41.0715L111.687 40.5705L111.632 40.6672C111.135 41.5364 110.285 42.0153 109.239 42.0153C108.06 42.0153 107.448 41.413 107.188 41.0526C106.903 40.6663 106.724 40.087 106.697 39.4788H114.815V39.0676C114.815 37.8823 114.676 36.1403 113.475 34.7034C112.458 33.4834 110.991 32.8645 109.114 32.8645ZM106.83 37.202C107.138 35.9194 108.218 35.3425 109.189 35.3425C110.176 35.3425 111.269 35.9194 111.575 37.202H106.83Z" fill="white"/>
<path d="M124.501 36.4152L124.956 33.1694L124.832 33.1252C124.471 32.9964 124.026 32.8645 123.475 32.8645C122.748 32.8645 122.112 33.0332 121.592 33.3619C121.475 33.4269 120.956 33.7403 120.477 34.4266V33.2167H117.097V44.3928H120.477V39.0174C120.477 38.2118 120.521 37.3699 121.043 36.7111C121.477 36.1692 122.118 35.8946 122.948 35.8946C123.521 35.8946 123.897 35.9991 124.286 36.2672L124.501 36.4152Z" fill="white"/>
<path d="M134.399 11.6546C134.399 13.7486 132.787 15.2987 130.766 15.2987C128.745 15.2987 127.132 13.7488 127.132 11.6546C127.132 9.56018 128.735 8.00024 130.766 8.00024C132.797 8.00024 134.399 9.56045 134.399 11.6546ZM127.865 11.6546C127.865 13.3194 129.143 14.6492 130.766 14.6492C132.389 14.6492 133.667 13.3194 133.667 11.6546C133.667 9.98934 132.389 8.64917 130.766 8.64917C129.143 8.64917 127.865 9.98961 127.865 11.6546ZM130.714 9.83263C131.593 9.83263 131.991 10.3876 131.991 10.9214C131.991 11.4029 131.667 11.8013 131.164 11.9058L132.243 13.3402H131.311L130.337 12.0418V13.3402H129.541V9.83263H130.714ZM130.337 11.3928H130.473C130.672 11.3928 131.132 11.3822 131.132 10.9528C131.132 10.5342 130.755 10.5236 130.493 10.5236H130.337V11.3928Z" fill="white"/>
</svg>
