<svg width="104" height="40" viewBox="0 0 104 40" fill="none" xmlns="http://www.w3.org/2000/svg">
<path d="M18.2855 9.58508C18.0976 9.58508 18.0769 9.73019 18.3046 10.0108C18.6036 10.6876 21.1204 14.1382 18.434 23.0903C15.4618 32.6594 20.6753 39.8136 21.2795 39.8136C21.3123 39.8136 21.3316 39.7925 21.335 39.7494C21.4037 38.9152 20.3157 36.3639 20.6563 33.0641C20.9679 30.0468 22.7683 26.9973 23.3816 22.0135C24.4539 13.3021 19.2355 9.58508 18.2855 9.58508Z" fill="#D05045"/>
<path d="M15.2697 33.1076C15.2697 31.4111 16.1741 29.9218 17.5259 29.0964C17.5242 28.8286 17.5282 28.5573 17.5383 28.2823C15.7747 29.1715 14.5642 30.9976 14.5642 33.1076C14.5642 36.0912 16.9828 38.5098 19.9664 38.5098C20.0233 38.5098 20.0798 38.5072 20.1363 38.5055C20.0012 38.2933 19.8606 38.0568 19.7176 37.7975C17.243 37.6677 15.2697 35.6139 15.2697 33.1076Z" fill="#72538D"/>
<path d="M25.3682 33.1076C25.3682 30.8306 23.9588 28.884 21.9653 28.0891C21.8924 28.3178 21.8199 28.5426 21.7486 28.7634C23.4567 29.4669 24.6626 31.1487 24.6626 33.1076C24.6626 35.354 23.0769 37.2361 20.9661 37.6959C21.0172 37.9432 21.0679 38.1735 21.1151 38.386C23.5465 37.8592 25.3682 35.6966 25.3682 33.1076Z" fill="#72538D"/>
<path d="M19.966 37.8041C19.8826 37.8041 19.7997 37.8019 19.7173 37.7974C19.8601 38.0568 20.0008 38.2933 20.136 38.5055C20.4709 38.4951 20.7983 38.4547 21.1151 38.386C21.068 38.1735 21.0172 37.943 20.9661 37.6959C20.6437 37.7661 20.3093 37.8041 19.966 37.8041Z" fill="#72538D"/>
<path d="M26.8755 31.7358C26.8755 28.9078 25.1762 26.4771 22.7434 25.4079C22.684 25.6444 22.6228 25.8755 22.5606 26.1029C24.6888 27.0871 26.1699 29.2411 26.1699 31.736C26.1699 34.8047 23.9297 37.3587 20.999 37.8521C21.0519 38.1015 21.1036 38.3326 21.1503 38.5439C24.4021 37.9822 26.8755 35.148 26.8755 31.7358Z" fill="#2F76AC"/>
<path d="M13.7625 31.7359C13.7625 29.0891 15.4293 26.8252 17.768 25.9358C17.8099 25.672 17.8577 25.4058 17.9118 25.1371C15.0991 26.0118 13.0569 28.6355 13.0569 31.7359C13.0569 35.5519 16.1503 38.6452 19.9663 38.6452C20.0524 38.6452 20.138 38.6431 20.2233 38.64C20.0859 38.4309 19.9418 38.1956 19.7945 37.9352C16.4531 37.8438 13.7625 35.0991 13.7625 31.7359Z" fill="#2F76AC"/>
<path d="M19.9661 37.9396C19.9085 37.9396 19.8516 37.9368 19.7944 37.9352C19.9417 38.1955 20.0858 38.4309 20.2232 38.64C20.5381 38.6284 20.8475 38.5961 21.1503 38.5438C21.1036 38.3326 21.0519 38.1015 20.999 37.8521C20.6629 37.9086 20.3182 37.9396 19.9661 37.9396Z" fill="#2F76AC"/>
<path d="M28.6539 30.1526C28.6539 26.5612 26.4724 23.4794 23.3624 22.1596C23.3307 22.4051 23.2967 22.6468 23.2597 22.8831C24.1248 23.2745 24.9213 23.823 25.6127 24.5145C27.1188 26.0206 27.9481 28.0229 27.9481 30.1526C27.9481 32.2823 27.1188 34.2847 25.6127 35.7906C24.3614 37.0419 22.7674 37.8255 21.0425 38.055C21.0972 38.3067 21.1494 38.5375 21.1944 38.7459C25.4101 38.1528 28.6539 34.5317 28.6539 30.1526Z" fill="#00A5D3"/>
<path d="M14.3367 35.7906C12.8306 34.2846 12.0013 32.2823 12.0013 30.1526C12.0013 28.0229 12.8306 26.0205 14.3367 24.5146C15.5293 23.3219 17.0336 22.5541 18.6656 22.2861C18.735 22.0343 18.8 21.7873 18.861 21.5446C14.5937 22.0912 11.2957 25.7368 11.2957 30.1528C11.2957 34.9461 15.1815 38.8318 19.9747 38.8318C20.0992 38.8318 20.223 38.8285 20.3462 38.8233C20.206 38.6199 20.0571 38.3864 19.9038 38.1252C17.8006 38.1069 15.8259 37.2799 14.3367 35.7906Z" fill="#00A5D3"/>
<path d="M19.9747 38.126C19.951 38.126 19.9275 38.1253 19.9038 38.1252C20.0571 38.3861 20.2061 38.6199 20.3461 38.8233C20.6328 38.8112 20.9156 38.7852 21.1944 38.7459C21.1494 38.5376 21.0971 38.3067 21.0425 38.055C20.6914 38.1016 20.3349 38.126 19.9747 38.126Z" fill="#00A5D3"/>
<path d="M30.3302 28.6622C30.3302 24.1798 27.4869 20.3617 23.5055 18.9126C23.5176 19.1609 23.5246 19.414 23.5255 19.6729C24.7351 20.1528 25.8453 20.8788 26.793 21.8266C28.6188 23.6524 29.6244 26.0801 29.6244 28.6622C29.6244 31.2444 28.6188 33.672 26.793 35.4978C25.2364 37.0545 23.2423 38.0142 21.0879 38.2636C21.1444 38.5192 21.1966 38.7512 21.2385 38.956C26.3629 38.3248 30.3302 33.957 30.3302 28.6622Z" fill="#00A66F"/>
<path d="M19.9581 38.3292C17.3759 38.3292 14.9483 37.3236 13.1225 35.4978C11.2967 33.672 10.2911 31.2444 10.2911 28.6622C10.2911 26.08 11.2967 23.6524 13.1225 21.8266C14.8127 20.1365 17.0186 19.1498 19.3853 19.0125C19.424 18.7696 19.4585 18.5321 19.4883 18.3007C13.9778 18.5463 9.58545 23.0911 9.58545 28.6622C9.58545 34.3908 14.2295 39.0347 19.9581 39.0347C20.1357 39.0347 20.3121 39.0301 20.4876 39.0213C20.3436 38.8245 20.1881 38.5928 20.026 38.3283C20.0033 38.3286 19.9806 38.3292 19.9581 38.3292Z" fill="#00A66F"/>
<path d="M20.0256 38.3283C20.1877 38.5931 20.3433 38.8247 20.4872 39.0214C20.7404 39.0087 20.9909 38.9865 21.239 38.9559C21.1971 38.7511 21.1449 38.519 21.0884 38.2635C20.7379 38.3042 20.3834 38.3259 20.0256 38.3283Z" fill="#00A66F"/>
<path d="M19.9748 38.5324C16.9538 38.5324 14.1138 37.3561 11.9777 35.22C9.84159 33.0839 8.66524 30.2438 8.66524 27.2229C8.66524 24.202 9.84159 21.3619 11.9777 19.2258C14.0395 17.164 16.7572 15.9966 19.6601 15.918C19.6625 15.6741 19.6601 15.4387 19.6527 15.2122C13.1658 15.3829 7.95947 20.6948 7.95947 27.2231C7.95947 33.8589 13.339 39.2384 19.9748 39.2384C20.1971 39.2384 20.4178 39.2318 20.6371 39.2199C20.4894 39.0321 20.3254 38.8014 20.1519 38.5306C20.0928 38.5311 20.0339 38.5324 19.9748 38.5324Z" fill="#058C59"/>
<path d="M31.9899 27.2229C31.9899 21.618 28.1519 16.9095 22.9607 15.5818C23.0348 15.8352 23.1031 16.0971 23.1644 16.3678C24.9625 16.8933 26.6104 17.8642 27.9718 19.2258C30.1079 21.3619 31.2843 24.202 31.2843 27.2229C31.2843 30.2438 30.1079 33.0839 27.9718 35.22C26.1116 37.0802 23.7173 38.2123 21.1348 38.4736C21.1927 38.735 21.2433 38.9667 21.2797 39.1672C27.3016 38.5167 31.9899 33.4177 31.9899 27.2229Z" fill="#058C59"/>
<path d="M20.1516 38.5303C20.3251 38.8013 20.4892 39.0317 20.6369 39.2196C20.8527 39.2078 21.067 39.1902 21.2796 39.1672C21.2432 38.9666 21.1926 38.735 21.1347 38.4737C20.8097 38.5066 20.4818 38.5252 20.1516 38.5303Z" fill="#058C59"/>
<path d="M19.9662 38.7185C18.1956 38.7185 16.4785 38.3718 14.8622 37.6882C13.3009 37.0278 11.8984 36.0821 10.6939 34.8777C9.48928 33.6731 8.54373 32.2707 7.88333 30.7093C7.19976 29.0931 6.85307 27.3758 6.85307 25.6054C6.85307 23.8347 7.19959 22.1176 7.88333 20.5014C8.54373 18.94 9.48944 17.5374 10.6939 16.333C11.8984 15.1284 13.3009 14.1829 14.8622 13.5225C16.2746 12.9251 17.764 12.5851 19.2988 12.5089C19.2366 12.2572 19.1698 12.0259 19.1013 11.8144C11.8725 12.2609 6.14746 18.2641 6.14746 25.6054C6.14746 33.2373 12.3344 39.4241 19.9662 39.4241C20.2409 39.4241 20.5135 39.4151 20.7843 39.3993C20.634 39.2238 20.4601 38.9942 20.2729 38.7147C20.1707 38.7172 20.0686 38.7185 19.9662 38.7185Z" fill="#72B956"/>
<path d="M33.7848 25.6054C33.7848 18.3569 28.2036 12.4125 21.1042 11.8337C21.2828 12.0686 21.4596 12.323 21.6316 12.5967C22.8147 12.7461 23.9659 13.0556 25.0699 13.5225C26.6313 14.1829 28.0337 15.1286 29.2383 16.3331C30.4429 17.5377 31.3884 18.9401 32.0488 20.5014C32.7324 22.1177 33.0791 23.8349 33.0791 25.6054C33.0791 27.3761 32.7326 29.0932 32.0488 30.7094C31.3884 32.2708 30.4427 33.6733 29.2383 34.8778C28.0337 36.0823 26.6313 37.0279 25.0699 37.6883C23.8248 38.2148 22.5196 38.5406 21.1764 38.6629C21.2352 38.9311 21.2835 39.1643 21.3114 39.3587C28.312 38.6823 33.7848 32.7833 33.7848 25.6054Z" fill="#72B956"/>
<path d="M20.2727 38.7148C20.4599 38.9944 20.6338 39.224 20.7841 39.3993C20.9609 39.3891 21.1366 39.3757 21.3116 39.3587C21.2835 39.1643 21.2354 38.931 21.1766 38.6629C20.8771 38.6903 20.5758 38.7079 20.2727 38.7148Z" fill="#72B956"/>
<path d="M35.7662 23.8103C35.7662 15.0841 28.6923 8.01016 19.9661 8.01016C11.2399 8.01016 4.16602 15.0841 4.16602 23.8103C4.16602 32.5365 11.2399 39.6104 19.9661 39.6104C20.2962 39.6104 20.6236 39.5989 20.9486 39.579C20.7968 39.4248 20.6086 39.1958 20.3988 38.8981C20.2549 38.9021 20.1107 38.9046 19.9661 38.9046C17.9281 38.9046 15.9513 38.5055 14.0909 37.7186C12.2935 36.9583 10.6792 35.87 9.29267 34.4834C7.90626 33.0968 6.81773 31.4825 6.05744 29.6851C5.27054 27.8247 4.87147 25.8479 4.87147 23.8099C4.87147 21.7719 5.27054 19.7952 6.05744 17.9347C6.81773 16.1373 7.9061 14.5231 9.29267 13.1365C10.6791 11.7501 12.2935 10.6615 14.0909 9.90126C15.9513 9.11436 17.9281 8.71528 19.9661 8.71528C22.0041 8.71528 23.9809 9.11436 25.8413 9.90126C27.6387 10.6615 29.253 11.7499 30.6396 13.1365C32.026 14.5231 33.1145 16.1373 33.8748 17.9347C34.6617 19.7952 35.0608 21.7719 35.0608 23.8099C35.0608 25.8479 34.6617 27.8247 33.8748 29.6851C33.1145 31.4825 32.0261 33.0968 30.6396 34.4834C29.253 35.8698 27.6387 36.9583 25.8413 37.7186C24.3642 38.3434 22.8137 38.7226 21.2174 38.8528C21.2763 39.1316 21.3191 39.3659 21.3328 39.5506C29.419 38.8579 35.7662 32.0759 35.7662 23.8103Z" fill="#F8E831"/>
<path d="M20.3989 38.8982C20.6085 39.1959 20.7969 39.4248 20.9487 39.5792C21.0773 39.5713 21.2054 39.5619 21.333 39.5509C21.3193 39.3662 21.2766 39.1318 21.2176 38.8531C20.9459 38.8753 20.6731 38.8907 20.3989 38.8982Z" fill="#EFE435"/>
<path d="M37.8832 22.1169C37.8832 12.2403 29.8767 4.2337 20.0001 4.2337C10.1235 4.2337 2.11694 12.2403 2.11694 22.1169C2.11694 31.9934 10.1235 40 20.0001 40C20.4062 40 20.8089 39.9851 21.2084 39.9585C21.0681 39.8707 20.8456 39.6416 20.5772 39.2838C20.3853 39.29 20.1932 39.2944 20.0003 39.2944C17.681 39.2944 15.4315 38.8403 13.3142 37.9449C11.2688 37.0798 9.4316 35.8411 7.85389 34.2632C6.27618 32.6855 5.03748 30.8483 4.17224 28.8029C3.27664 26.6856 2.82271 24.4361 2.82271 22.1169C2.82271 19.7976 3.2768 17.5481 4.17224 15.4308C5.03732 13.3854 6.27602 11.5482 7.85389 9.97049C9.4316 8.39278 11.2688 7.15408 13.3142 6.28884C15.4315 5.39324 17.681 4.93931 20.0003 4.93931C22.3195 4.93931 24.569 5.3934 26.6863 6.28884C28.7317 7.15392 30.5689 8.39261 32.1466 9.97049C33.7243 11.5482 34.963 13.3854 35.8283 15.4308C36.7239 17.5481 37.1778 19.7976 37.1778 22.1169C37.1778 24.4361 36.7237 26.6856 35.8283 28.8029C34.9632 30.8483 33.7245 32.6855 32.1466 34.2632C30.5689 35.8409 28.7317 37.0796 26.6863 37.9449C24.965 38.673 23.1563 39.1091 21.2936 39.2469C21.3504 39.5382 21.3824 39.771 21.3689 39.9359C21.3684 39.9408 21.3671 39.9443 21.3664 39.9486C30.6045 39.2506 37.8832 31.5338 37.8832 22.1169Z" fill="#EC6641"/>
<path d="M21.2598 39.0608C21.022 39.0784 20.7831 39.09 20.5435 39.0979C20.8118 39.4555 21.0344 39.6847 21.1748 39.7726C21.2274 39.769 21.2802 39.7666 21.3326 39.7627C21.3335 39.7584 21.3348 39.7548 21.3351 39.7499C21.3486 39.5848 21.3166 39.352 21.2598 39.0608Z" fill="#F08240"/>
<path d="M21.5284 0H18.4203C8.59513 0.753762 0.753925 8.59497 0 18.4202V21.5282C0.779061 31.6825 9.12805 39.7171 19.4135 39.9998H20.5349C31.1536 39.708 39.708 31.1535 39.9998 20.5349V19.4137C39.7173 9.12806 31.6826 0.779061 21.5284 0ZM39.2943 20.5251C39.0152 30.5081 31.1765 38.5897 21.2955 39.2563C21.3291 39.4576 21.3454 39.6236 21.335 39.7496C21.3314 39.7927 21.3123 39.8137 21.2795 39.8137C21.1832 39.8137 20.9699 39.6316 20.6914 39.2877C20.6359 39.2896 20.5807 39.2927 20.5252 39.2943H19.4236C14.6388 39.1605 10.0951 37.2647 6.62928 33.9557C3.17892 30.6615 1.07596 26.2392 0.70577 21.5013V18.4476C1.06323 13.8736 3.05194 9.56288 6.30741 6.30741C9.56288 3.05177 13.8736 1.06307 18.4476 0.705773H21.5011C26.2392 1.07596 30.6614 3.17892 33.9557 6.62928C37.2647 10.0951 39.1605 14.6388 39.2943 19.4236V20.5251Z" fill="#E94A44"/>
<path d="M21.2795 39.8137C21.3123 39.8137 21.3316 39.7927 21.335 39.7496C21.3454 39.6234 21.329 39.4576 21.2955 39.2563C21.0949 39.2699 20.8936 39.2803 20.6914 39.2877C20.9699 39.6314 21.1832 39.8137 21.2795 39.8137Z" fill="#E94A44"/>
<path d="M19.6326 11.2377C20.0919 11.674 20.608 12.2747 21.0951 13.0687C22.1121 14.7264 23.2129 17.6091 22.6814 21.9276C22.3519 24.6056 21.6675 26.7218 21.0637 28.5889C20.5478 30.1846 20.1022 31.5627 19.9545 32.992C19.7939 34.5474 19.9326 35.9323 20.1276 37.0651C19.7553 36.3379 19.368 35.4328 19.0383 34.3629C18.2734 31.8808 17.6646 27.9466 19.108 23.3L19.109 23.2968L19.1099 23.2935C20.5798 18.3945 20.7539 14.3486 19.6326 11.2377ZM18.2855 9.58508C18.0976 9.58508 18.0769 9.73019 18.3046 10.0108C18.6036 10.6876 21.1204 14.1382 18.434 23.0903C15.4618 32.6594 20.6753 39.8136 21.2795 39.8136C21.3123 39.8136 21.3316 39.7925 21.335 39.7494C21.4037 38.9152 20.3157 36.3639 20.6563 33.0641C20.9679 30.0468 22.7683 26.9973 23.3816 22.0135C24.4539 13.3021 19.2355 9.58508 18.2855 9.58508Z" fill="#E94A44"/>
<path d="M52.0108 19.3523C53.9254 19.3523 55.6502 18.6939 56.8675 17.4984C58.0807 16.3073 58.7487 14.6254 58.7487 12.7631C58.7487 10.8991 58.0807 9.21405 56.8678 8.01788C55.6491 6.81625 53.9242 6.15433 52.0108 6.15433C50.0975 6.15433 48.3726 6.81625 47.1539 8.01788C45.941 9.21405 45.2729 10.8993 45.2729 12.7631C45.2729 14.6254 45.941 16.307 47.1541 17.4984C48.3715 18.6939 50.0963 19.3523 52.0108 19.3523ZM48.0265 12.7631C48.0265 10.3189 49.6649 8.61176 52.0108 8.61176C54.3568 8.61176 55.9952 10.3189 55.9952 12.7631C55.9952 15.1961 54.3568 16.8955 52.0108 16.8955C49.6649 16.8955 48.0265 15.1961 48.0265 12.7631Z" fill="black" fill-opacity="0.87"/>
<path d="M64.2437 16.8952C63.4213 16.8952 62.3389 16.4811 61.7669 15.3191L61.6863 15.1553L59.8945 16.8631L59.9592 16.9571C60.5737 17.8515 61.9593 19.352 64.3365 19.352C65.6267 19.352 66.7347 18.9496 67.5405 18.1884C68.3477 17.4259 68.7744 16.3771 68.7744 15.1553C68.7744 13.7466 68.1753 12.9113 67.6734 12.4591C67.0398 11.8818 66.1433 11.5423 65.1238 11.1895C64.3774 10.9225 63.9662 10.7753 63.6827 10.5093C63.445 10.3018 63.339 10.0754 63.339 9.77573C63.339 9.1409 63.7522 8.4628 64.9119 8.4628C65.683 8.4628 66.3273 8.80048 66.8269 9.46661L66.9331 9.60815L68.3721 7.72465L68.2916 7.6417C67.346 6.66834 66.1005 6.15384 64.6893 6.15384C61.8545 6.15384 60.5856 8.04763 60.5856 9.92441C60.5856 10.9282 60.9319 11.7361 61.614 12.3245C62.2337 12.8716 62.9916 13.1778 63.7184 13.427L63.8052 13.4566C64.4703 13.6834 65.158 13.918 65.5807 14.3069C65.8852 14.5942 66.0209 14.9071 66.0209 15.3219C66.0205 16.2631 65.3065 16.8952 64.2437 16.8952Z" fill="black" fill-opacity="0.87"/>
<path d="M73.3061 13.5643H78.2692V19.0739H80.9489V6.43268H78.2692V11.2188H73.3061V6.43268H70.6265V19.0739H73.3061V13.5643Z" fill="black" fill-opacity="0.87"/>
<path d="M94.509 17.4981C95.7224 16.3067 96.3904 14.6251 96.3904 12.7628C96.3904 10.899 95.7224 9.21374 94.5092 8.01758C93.2904 6.81595 91.5657 6.15402 89.6521 6.15402C87.7388 6.15402 86.0139 6.81595 84.795 8.01758C83.5818 9.21374 82.9138 10.899 82.9138 12.7628C82.9138 14.6251 83.582 16.3067 84.7952 17.4981C86.0126 18.6936 87.7376 19.352 89.6521 19.352C91.5667 19.352 93.2914 18.6936 94.509 17.4981ZM85.6678 12.7628C85.6678 10.3186 87.3062 8.61146 89.6521 8.61146C91.9981 8.61146 93.6365 10.3186 93.6365 12.7628C93.6365 15.1958 91.9981 16.8952 89.6521 16.8952C87.3062 16.8952 85.6678 15.1958 85.6678 12.7628Z" fill="black" fill-opacity="0.87"/>
<path d="M49.5809 25.2804C48.3617 25.2804 47.3219 25.6544 46.4903 26.3919C45.531 27.2424 45.0027 28.4806 45.0027 29.8784C45.0027 31.6224 45.8608 32.6895 46.3717 33.1697C47.2081 33.9629 48.4129 34.418 49.6773 34.418C50.4411 34.418 51.1864 34.2382 51.8926 33.8839L51.9609 33.8497V31.1991L51.7538 31.387C51.1165 31.9664 50.4405 32.088 49.9858 32.088C48.6496 32.088 47.6798 31.1424 47.6798 29.8397C47.6798 28.7305 48.3688 27.6112 49.9083 27.6112C50.6391 27.6112 51.2427 27.8401 51.7532 28.3107L51.9607 28.502V25.8287L51.8911 25.7949C51.1694 25.444 50.4354 25.2804 49.5809 25.2804Z" fill="black" fill-opacity="0.87"/>
<path d="M57.7935 25.2804C56.4521 25.2804 55.3953 25.6769 54.5627 26.4932C53.6943 27.3621 53.2542 28.4949 53.2542 29.8595C53.2542 31.2617 53.6958 32.3568 54.6036 33.2071C55.4701 34.0333 56.5144 34.418 57.8901 34.418C60.6153 34.418 61.7055 32.7386 62.1126 31.7375L62.1712 31.5935L59.7732 31.2081L59.7306 31.2824C59.348 31.9511 58.6942 32.3194 57.8899 32.3194C56.9827 32.3194 56.5123 31.8562 56.3118 31.579C56.0927 31.2818 55.9548 30.8362 55.934 30.3683H62.179V30.052C62.179 29.1402 62.0721 27.8002 61.1479 26.695C60.3659 25.7565 59.2373 25.2804 57.7935 25.2804ZM56.0358 28.6169C56.2731 27.6303 57.1035 27.1866 57.8509 27.1866C58.61 27.1866 59.4509 27.6303 59.6863 28.6169H56.0358Z" fill="black" fill-opacity="0.87"/>
<path d="M68.9942 25.2804C68.0016 25.2804 67.1754 25.6559 66.5337 26.3978V25.5513H63.9338V34.1483H66.5337V29.7625C66.5337 29.2498 66.5603 28.7078 66.8795 28.212C67.188 27.7494 67.6149 27.5339 68.2231 27.5339C68.5163 27.5339 68.9296 27.6009 69.233 27.9203C69.6421 28.3481 69.6421 29.1083 69.6421 29.4737V34.1483H72.2423V28.7792C72.2423 27.9548 72.1596 27.0898 71.559 26.3491C70.7784 25.3846 69.5054 25.2804 68.9942 25.2804Z" fill="black" fill-opacity="0.87"/>
<path d="M77.0209 22.6969H74.4213V25.5512H73.4956V27.8037H74.4213V34.1483H77.0209V27.8037H78.6411V25.5512H77.0209V22.6969Z" fill="black" fill-opacity="0.87"/>
<path d="M83.9341 25.2804C82.5924 25.2804 81.5359 25.6769 80.703 26.4932C79.8349 27.3623 79.3945 28.4949 79.3945 29.8595C79.3945 31.2617 79.8362 32.3568 80.744 33.2071C81.6105 34.0333 82.6548 34.418 84.0303 34.418C86.7555 34.418 87.8456 32.7386 88.2528 31.7375L88.3114 31.5935L85.9134 31.2081L85.871 31.2824C85.4884 31.9511 84.8348 32.3194 84.0303 32.3194C83.1231 32.3194 82.6525 31.8562 82.4524 31.579C82.2333 31.2818 82.0953 30.8362 82.0743 30.3683H88.3194V30.052C88.3194 29.1402 88.2125 27.8002 87.2883 26.695C86.5064 25.7565 85.3779 25.2804 83.9341 25.2804ZM82.1766 28.6169C82.4139 27.6303 83.2443 27.1866 83.9919 27.1866C84.751 27.1866 85.5919 27.6303 85.8273 28.6169H82.1766Z" fill="black" fill-opacity="0.87"/>
<path d="M95.7697 28.0117L96.12 25.515L96.0249 25.4809C95.7466 25.3818 95.4048 25.2804 94.9808 25.2804C94.4215 25.2804 93.9322 25.4102 93.5324 25.663C93.4421 25.713 93.0429 25.9541 92.6749 26.482V25.5513H90.0747V34.1483H92.6749V30.0134C92.6749 29.3937 92.7085 28.746 93.1101 28.2393C93.444 27.8225 93.937 27.6112 94.5757 27.6112C95.0165 27.6112 95.305 27.6916 95.6047 27.8978L95.7697 28.0117Z" fill="black" fill-opacity="0.87"/>
<path d="M103.384 8.9651C103.384 10.5758 102.143 11.7682 100.589 11.7682C99.0344 11.7682 97.7939 10.576 97.7939 8.9651C97.7939 7.35397 99.0264 6.15402 100.589 6.15402C102.152 6.15402 103.384 7.35418 103.384 8.9651ZM98.3578 8.9651C98.3578 10.2457 99.3406 11.2686 100.589 11.2686C101.838 11.2686 102.82 10.2457 102.82 8.9651C102.82 7.68409 101.838 6.6532 100.589 6.6532C99.3406 6.6532 98.3578 7.6843 98.3578 8.9651ZM100.549 7.56355C101.225 7.56355 101.532 7.99048 101.532 8.40104C101.532 8.77148 101.282 9.07787 100.895 9.1583L101.725 10.2616H101.008L100.259 9.26288V10.2616H99.6468V7.56355H100.549ZM100.259 8.76371H100.364C100.517 8.76371 100.871 8.75552 100.871 8.42519C100.871 8.10325 100.581 8.09506 100.379 8.09506H100.259V8.76371Z" fill="black" fill-opacity="0.87"/>
</svg>
