<svg width="282" height="44" viewBox="0 0 282 44" fill="none" xmlns="http://www.w3.org/2000/svg">
<path d="M28.1909 14.2415L26.2624 16.3704C26.502 16.4551 26.7173 16.5938 26.8936 16.77C27.2004 17.0769 27.3915 17.5021 27.3915 17.9704C27.3915 18.4387 27.2018 18.8639 26.8936 19.1708C26.7617 19.3026 26.6083 19.413 26.4387 19.4964C28.2568 19.7063 30.3145 20.5743 31.9227 22.1353C32.1596 22.3654 32.3857 22.609 32.601 22.8687C32.7827 21.4033 32.6602 19.9203 32.1798 18.5773C31.6522 17.1038 30.6887 15.7971 29.2164 14.8713C29.0038 14.738 28.853 14.6465 28.7036 14.555C28.5327 14.4514 28.3618 14.3478 28.1909 14.2415ZM25.1696 30.3144C25.1858 30.0184 25.4388 29.791 25.7349 29.8071C25.8479 29.8138 25.9515 29.8542 26.0336 29.9188C26.1763 30.009 26.2745 30.1637 26.2839 30.3441C26.2934 30.5109 26.3109 30.6751 26.3378 30.8379C26.685 32.9991 28.4628 35.2208 31.1018 36.8626C33.784 38.5326 37.3395 39.5849 41.1857 39.3642C41.7846 39.3306 42.3875 39.2647 42.9918 39.1678C43.2367 39.1287 43.4843 39.083 43.7319 39.0332C43.958 38.9874 44.1922 38.9336 44.4331 38.8744C46.48 38.0185 48.7288 37.6942 50.9076 37.9634C53.0017 38.2204 55.0338 39.0251 56.7645 40.426C56.9784 40.5996 57.1332 40.7288 57.288 40.8593C58.8625 42.1767 60.464 43.5157 64.1016 42.6235C64.3896 42.5535 64.679 42.7312 64.749 43.0191C64.8189 43.3071 64.6413 43.5964 64.3533 43.6664C60.1895 44.6878 58.378 43.1726 56.5976 41.6842C56.4078 41.5254 56.2194 41.368 56.0862 41.2603C54.5224 39.994 52.68 39.2673 50.7757 39.0332C48.7732 38.7869 46.7075 39.0843 44.8301 39.8716C44.7965 39.8877 44.7615 39.9012 44.7238 39.9106C44.4721 39.9738 44.2124 40.0317 43.9446 40.0869C43.6822 40.1407 43.4197 40.1878 43.1586 40.2309C42.5113 40.3345 41.8721 40.4031 41.2423 40.4394C37.1605 40.6736 33.3843 39.5526 30.5312 37.7777C28.234 36.3485 26.5262 34.4834 25.7187 32.5416C24.9086 34.4753 23.2129 36.3337 20.9318 37.7629C18.0868 39.5459 14.3186 40.6723 10.2409 40.4394C9.61379 40.4031 8.97724 40.3345 8.33261 40.2309C8.07153 40.1891 7.8091 40.1407 7.54668 40.0869C7.27887 40.0317 7.01913 39.9738 6.76747 39.9106C6.72979 39.9012 6.69345 39.8877 6.66116 39.8716C4.7838 39.0843 2.71937 38.7869 0.715509 39.0332C-1.18877 39.2673 -3.03114 39.994 -4.59493 41.2603C-4.72816 41.368 -4.91657 41.5268 -5.10632 41.6842C-6.88679 43.1739 -8.69821 44.6878 -12.862 43.6664C-13.15 43.5964 -13.3277 43.3071 -13.2577 43.0191C-13.1877 42.7312 -12.8984 42.5535 -12.6104 42.6235C-8.97274 43.5157 -7.37127 42.1767 -5.79671 40.8593C-5.64194 40.7301 -5.48718 40.6009 -5.2732 40.426C-3.54253 39.0238 -1.51041 38.2204 0.583623 37.9634C2.76244 37.6956 5.01123 38.0185 7.05816 38.8744C7.3004 38.9336 7.53322 38.9874 7.75931 39.0332C8.00693 39.0843 8.25321 39.1287 8.49949 39.1678C9.10239 39.2647 9.70261 39.3292 10.2988 39.3629C14.145 39.5836 17.6911 38.5245 20.3639 36.8505C22.9935 35.2034 24.7632 32.9749 25.1118 30.8097C25.1387 30.6455 25.1562 30.48 25.1656 30.3118L25.1696 30.3144ZM13.5704 9.13592L12.9338 9.35527L12.7145 8.71875L13.351 8.4994L13.5704 9.13592ZM16.2041 16.7687L15.5675 16.988L15.3481 16.3515L15.9847 16.1322L16.2041 16.7687ZM15.3266 14.224L14.6901 14.4433L14.4707 13.8068L15.1073 13.5875L15.3266 14.224ZM14.4492 11.6793L13.8126 11.8986L13.5933 11.2621L14.2298 11.0428L14.4492 11.6793ZM38.3542 9.35392L37.7177 9.13457L37.937 8.49806L38.5736 8.71741L38.3542 9.35392ZM35.7205 16.9867L35.084 16.7673L35.3033 16.1308L35.9399 16.3502L35.7205 16.9867ZM36.598 14.442L35.9614 14.2226L36.1808 13.5861L36.8173 13.8055L36.598 14.442ZM37.4754 11.8973L36.8389 11.6779L37.0582 11.0414L37.6948 11.2608L37.4754 11.8973ZM-7.80057 22.9562L-8.23122 23.4729L-8.748 23.0423L-8.31735 22.5256L-7.80057 22.9562ZM0.366953 29.7681L-0.048892 29.4209L-0.479541 29.9377L-0.0636959 30.2848L0.366953 29.7681ZM-1.59923 28.1277L-2.02988 28.6444L-2.54666 28.2138L-2.11601 27.6971L-1.59923 28.1277ZM-3.66634 26.4039L-4.09699 26.9206L-4.61377 26.49L-4.18312 25.9732L-3.66634 26.4039ZM-5.73346 24.68L-6.16411 25.1968L-6.68088 24.7662L-6.25024 24.2494L-5.73346 24.68ZM9.33791 23.6533L8.79959 24.057L8.39586 23.5187L8.93417 23.115L9.33791 23.6533ZM10.9515 25.8077L10.4132 26.2114L10.0094 25.6731L10.5478 25.2694L10.9515 25.8077ZM59.5623 23.4729L59.1317 22.9562L59.6485 22.5256L60.0791 23.0423L59.5623 23.4729ZM51.3948 30.2848L51.8107 29.9377L51.38 29.4209L50.9642 29.7681L51.3948 30.2848ZM53.361 28.6444L52.9303 28.1277L53.4471 27.6971L53.8778 28.2138L53.361 28.6444ZM55.4281 26.9206L54.9975 26.4039L55.5142 25.9732L55.9449 26.49L55.4281 26.9206ZM57.4952 25.1968L57.0646 24.68L57.5813 24.2494L58.012 24.7662L57.4952 25.1968ZM42.5315 24.0556L41.9932 23.6519L42.3969 23.1136L42.9352 23.5173L42.5315 24.0556ZM40.9179 26.2101L40.3796 25.8064L40.7833 25.2681L41.3217 25.6718L40.9179 26.2101ZM25.6931 36.6446C26.3539 36.6446 26.9514 36.9124 27.3848 37.3457C27.8181 37.779 28.0859 38.3765 28.0859 39.0372C28.0859 39.698 27.8181 40.2955 27.3848 40.7288C26.9514 41.1621 26.3539 41.4299 25.6931 41.4299C25.0324 41.4299 24.4348 41.1621 24.0015 40.7288C23.5682 40.2955 23.3004 39.698 23.3004 39.0372C23.3004 38.3765 23.5682 37.779 24.0015 37.3457C24.4348 36.9124 25.0324 36.6446 25.6931 36.6446ZM26.6231 38.106C26.3849 37.8678 26.0565 37.7211 25.6931 37.7211C25.3298 37.7211 25.0014 37.8678 24.7632 38.106C24.525 38.3442 24.3783 38.6726 24.3783 39.0359C24.3783 39.3992 24.525 39.7276 24.7632 39.9658C25.0014 40.204 25.3298 40.3506 25.6931 40.3506C26.0565 40.3506 26.3849 40.204 26.6231 39.9658C26.8613 39.7276 27.008 39.3992 27.008 39.0359C27.008 38.6726 26.8613 38.3442 26.6231 38.106ZM25.6555 20.5178C25.5774 20.5191 25.4872 20.5218 25.385 20.5286C23.7297 20.6228 21.7783 21.3669 20.2468 22.7987C18.718 24.2292 17.6117 26.3514 17.6467 29.2069C17.6481 29.3321 17.6521 29.468 17.6602 29.6133C19.0894 29.8865 20.4567 29.865 21.3288 29.3307C23.4255 27.7724 24.813 25.8346 25.1171 23.9453C25.1441 23.7811 25.1616 23.6156 25.171 23.4474C25.1871 23.1513 25.4401 22.9239 25.7362 22.94C25.8493 22.9468 25.9529 22.9871 26.035 23.0517C26.1776 23.1419 26.2759 23.2967 26.2853 23.477C26.2947 23.6438 26.3122 23.808 26.3391 23.9708C26.65 25.906 28.1088 27.8895 30.3038 29.4613C31.1247 29.9565 32.3521 29.9848 33.6467 29.7385C33.6575 29.5582 33.6642 29.3805 33.6655 29.2069C33.6992 26.4214 32.6468 24.3328 31.1745 22.9037C29.6995 21.4719 27.8087 20.6981 26.1669 20.5447C25.9919 20.5286 25.821 20.5191 25.6555 20.5164V20.5178ZM16.5768 29.3536C16.5755 29.3092 16.5755 29.2648 16.5742 29.2191C16.5499 27.2503 17.0142 25.5897 17.7786 24.2252C16.9887 22.5754 15.8246 21.1449 14.3644 20.2177C13.3416 19.5677 12.1681 19.1654 10.8734 19.1102C10.8452 19.1115 10.8183 19.1102 10.79 19.1075C10.4657 19.0967 10.1319 19.1089 9.79278 19.1438C9.65147 19.1586 9.42269 19.1856 9.19256 19.2125C8.99473 19.2353 8.7969 19.2596 8.59773 19.2798L8.36895 22.4233C8.34741 22.7194 8.09037 22.9427 7.7943 22.9212C7.77546 22.9199 7.75527 22.9172 7.73643 22.9145L4.63172 22.3762C4.56309 22.5632 4.49311 22.7503 4.42178 22.936C4.33969 23.1527 4.2576 23.3693 4.21049 23.5012C3.66545 25.0111 3.63719 26.4819 3.99652 27.837C4.3841 29.2971 5.22252 30.628 6.35163 31.7355C6.59118 31.8189 6.82803 31.9104 7.0622 32.0087C7.30444 32.0679 7.53726 32.1217 7.76335 32.1675C8.01097 32.2186 8.25725 32.263 8.50352 32.302C9.10643 32.3989 9.70665 32.4635 10.3028 32.4972C10.5545 32.512 10.8048 32.52 11.0538 32.5241C11.5167 31.9077 11.8639 30.9846 11.9447 30.0345C12.016 29.1921 11.876 28.3444 11.4117 27.6984L11.4077 27.693C11.2193 27.4629 11.2529 27.1238 11.4831 26.9354C11.7132 26.747 12.0523 26.7807 12.2407 27.0108C12.9527 27.8801 14.7035 28.818 16.5768 29.3523V29.3536ZM18.6224 22.9777C18.901 22.6319 19.1998 22.3116 19.5147 22.0156C21.1215 20.5124 23.1469 19.6808 24.9328 19.4883C24.7686 19.4063 24.6206 19.2986 24.4927 19.1708C24.1859 18.8639 23.9948 18.4387 23.9948 17.9704C23.9948 17.5021 24.1845 17.0769 24.4927 16.77C24.6623 16.6005 24.8682 16.4659 25.0983 16.3798L23.1617 14.2415C22.9922 14.3478 22.8213 14.4514 22.649 14.555C22.4983 14.6465 22.3489 14.738 22.1362 14.8713C20.6397 15.8119 19.6344 17.128 19.0746 18.6109C18.5605 19.9755 18.4219 21.484 18.6224 22.9791V22.9777ZM25.7227 25.6718C25.0404 27.3028 23.727 28.8799 21.9653 30.1906C21.9478 30.2054 21.929 30.2189 21.9102 30.231C21.5993 30.4598 21.275 30.6818 20.9372 30.8931C18.0922 32.6761 14.324 33.8025 10.2463 33.5697C9.61917 33.5333 8.98262 33.4647 8.33799 33.3611C8.07691 33.3194 7.81449 33.2709 7.55206 33.2171C7.28425 33.1619 7.02452 33.1041 6.77285 33.0408C6.73517 33.0314 6.69884 33.0179 6.66654 33.0018C6.41891 32.8982 6.16726 32.8026 5.9129 32.7152C5.8981 32.7111 5.88464 32.7057 5.87118 32.7004C4.21453 32.1406 2.44483 31.9495 0.720893 32.1621C-1.18338 32.3962 -3.02575 33.1229 -4.58955 34.3892C-4.72278 34.4969 -4.91119 34.6557 -5.10094 34.8131C-6.88141 36.3028 -8.69282 37.8167 -12.8567 36.7953C-13.1447 36.7253 -13.3223 36.436 -13.2523 36.148C-13.1823 35.8601 -12.893 35.6824 -12.605 35.7524C-10.9147 36.1669 -9.66447 36.0996 -8.6511 35.7766C-10.262 34.8642 -11.5459 33.5159 -12.2928 31.8351C-13.0505 30.1301 -13.2564 28.0927 -12.6898 25.8333C-12.6386 25.6314 -12.574 25.3838 -12.5081 25.1362C-11.9967 23.2159 -11.4786 21.266 -13.2954 19.4668C-13.473 19.3228 -13.6534 19.164 -13.835 18.9891C-14.049 18.7832 -14.0557 18.4441 -13.8498 18.2301C-13.6561 18.0283 -13.3425 18.0108 -13.1285 18.1817C-12.9293 18.3405 -12.7463 18.5006 -12.5794 18.6607C-10.5621 20.2271 -8.69686 19.4628 -6.86122 18.7092C-6.6136 18.6069 -6.36597 18.506 -6.19102 18.4374C-3.99067 17.5721 -1.90337 17.4483 -0.085228 17.9314C1.53913 18.362 2.94143 19.273 4.01536 20.5689C4.16743 19.5691 4.02074 18.4939 3.13387 17.2424C2.98853 17.0688 2.84318 16.8817 2.69784 16.6799C2.52423 16.439 2.57941 16.1039 2.8203 15.9317C3.04909 15.7675 3.364 15.8092 3.54299 16.0205C3.70852 16.2156 3.8579 16.408 3.99517 16.5964C4.58597 17.2801 5.17945 17.6986 5.77429 17.9448C5.04488 16.5197 4.70574 14.9453 4.84839 13.3466C5.01392 11.4882 5.82408 9.60691 7.41748 7.90595C7.57359 7.73909 7.74316 7.5628 7.91407 7.38651C9.2935 5.95604 10.6931 4.50269 9.9785 2.0468C9.89237 1.83418 9.81297 1.6081 9.73895 1.36723C9.65282 1.08329 9.81297 0.784542 10.0969 0.698418C10.3634 0.617676 10.6447 0.754936 10.7483 1.00793C10.8452 1.24342 10.9273 1.47219 10.9959 1.69288C11.9985 4.03843 14.001 4.27527 15.9726 4.50808C16.165 4.53095 16.3588 4.55383 16.6872 4.59689C19.0329 4.90909 20.9183 5.81474 22.2735 7.12007C23.4861 8.28813 24.272 9.76974 24.5802 11.4276C24.8911 10.8692 25.0956 10.1761 25.1387 9.28125C25.1306 9.05248 25.1306 8.81295 25.1414 8.56131C25.1521 8.26525 25.3998 8.03379 25.6972 8.04456C25.9811 8.05398 26.2045 8.28275 26.214 8.56131C26.2234 8.81295 26.2234 9.05248 26.2166 9.28125C26.2557 10.0846 26.4239 10.7238 26.6823 11.25C27.012 9.66343 27.7831 8.24507 28.954 7.11872C30.3092 5.8134 32.1946 4.90775 34.5403 4.59555C34.8687 4.55248 35.0611 4.52961 35.2549 4.50673C37.2265 4.27393 39.229 4.03574 40.2316 1.69154C40.3002 1.47084 40.3823 1.24208 40.4792 1.00658C40.5828 0.75359 40.8641 0.616329 41.1306 0.697071C41.4145 0.783195 41.5733 1.08194 41.4885 1.36588C41.4145 1.60676 41.3351 1.83284 41.249 2.04546C40.533 4.50135 41.934 5.9547 43.3134 7.38517C43.4843 7.56145 43.6539 7.73909 43.81 7.90461C45.4034 9.60556 46.2136 11.4868 46.3791 13.3452C46.5204 14.9439 46.1826 16.5184 45.4532 17.9435C46.048 17.6972 46.6415 17.2787 47.2323 16.5951C47.3682 16.4067 47.519 16.2156 47.6845 16.0191C47.8635 15.8065 48.1784 15.7661 48.4072 15.9303C48.6481 16.1039 48.7019 16.439 48.5296 16.6785C48.3843 16.8804 48.239 17.0674 48.0936 17.241C47.2067 18.4925 47.0587 19.5677 47.2121 20.5676C48.2861 19.273 49.6884 18.362 51.3127 17.93C53.1309 17.4469 55.2195 17.5707 57.4185 18.436C57.5921 18.5046 57.8397 18.6056 58.0887 18.7078C59.9243 19.4601 61.7896 20.2258 63.8069 18.6594C63.9738 18.4993 64.1568 18.3405 64.356 18.1803C64.57 18.0094 64.8835 18.0269 65.0773 18.2288C65.2832 18.4427 65.2765 18.7819 65.0625 18.9877C64.8808 19.1627 64.7019 19.3215 64.5229 19.4655C62.7061 21.2647 63.2242 23.2146 63.7356 25.1349C63.8015 25.3825 63.8675 25.6301 63.9173 25.8319C64.4838 28.0914 64.2793 30.1287 63.5203 31.8337C62.7882 33.4795 61.542 34.8064 59.9795 35.7174C61.0225 36.0888 62.3171 36.1897 64.1057 35.751C64.3937 35.6811 64.683 35.8587 64.753 36.1467C64.823 36.4347 64.6453 36.724 64.3573 36.794C60.1935 37.8153 58.3821 36.3001 56.6016 34.8118C56.4119 34.653 56.2235 34.4955 56.0902 34.3879C54.5264 33.1216 52.6841 32.3949 50.7798 32.1607C48.7773 31.9145 46.7115 32.2119 44.8341 32.9991C44.8005 33.0153 44.7655 33.0287 44.7278 33.0381C44.4762 33.1014 44.2164 33.1592 43.9486 33.2144C43.6862 33.2682 43.4238 33.3153 43.1627 33.3584C42.5154 33.462 41.8761 33.5307 41.2463 33.567C37.1646 33.8011 33.3883 32.6802 30.5353 30.9052C28.238 29.4761 26.5302 27.6109 25.7227 25.6691V25.6718ZM-7.46816 35.2437C-6.85449 34.8817 -6.32156 34.435 -5.79133 33.9909C-5.63656 33.8617 -5.4818 33.7325 -5.26782 33.5576C-5.15746 33.4674 -5.04442 33.3799 -4.93137 33.2952C-9.62006 30.3427 -9.98477 27.8289 -10.3858 25.0568C-10.511 24.1942 -10.6388 23.3047 -10.9228 22.3722C-10.9309 23.3855 -11.2014 24.4015 -11.4692 25.4107C-11.5257 25.6247 -11.5822 25.8373 -11.6468 26.0944C-12.1515 28.1075 -11.9765 29.9067 -11.3131 31.3977C-10.5931 33.0166 -9.29304 34.2856 -7.66061 35.0836C-7.58256 35.1213 -7.51796 35.1764 -7.46816 35.241V35.2437ZM-3.9503 32.6385C-2.54127 31.7974 -0.993629 31.2901 0.589006 31.0949C1.88364 30.9362 3.20385 30.9859 4.49176 31.2322C3.78792 30.2848 3.25768 29.2325 2.96027 28.1089C2.7436 27.2947 2.64939 26.4442 2.69919 25.5709C-1.05688 21.632 -3.78208 21.7531 -6.4373 21.8702C-7.60813 21.9227 -8.76684 21.9738 -10.0009 21.7222C-9.61872 22.8499 -9.46664 23.8955 -9.3213 24.9074C-8.94717 27.4952 -8.60669 29.834 -3.9503 32.6385ZM12.3309 32.4958C14.7062 32.3586 16.9173 31.749 18.8149 30.8379C18.1474 30.7989 17.4516 30.6845 16.7626 30.5136C15.402 30.1758 14.0522 29.6133 12.9984 28.9782C13.0455 29.355 13.0496 29.7412 13.0159 30.122C12.9432 30.9685 12.6902 31.8055 12.3296 32.4958H12.3309ZM61.2701 21.7235C60.0374 21.9752 58.8787 21.924 57.7065 21.8716C55.0351 21.7531 52.2951 21.632 48.5054 25.6395C48.5323 26.5169 48.4112 27.3728 48.1703 28.1923C47.8379 29.32 47.274 30.379 46.55 31.3291C47.9806 31.0021 49.4609 30.9187 50.909 31.0963C52.4485 31.286 53.9545 31.7705 55.3326 32.5712C59.8826 29.7964 60.2191 27.475 60.5905 24.9088C60.7372 23.8982 60.8879 22.8512 61.2701 21.7235ZM48.3426 24.2736C52.1525 20.5514 54.9867 20.6779 57.7523 20.8004C58.8329 20.8488 59.9015 20.8959 61.0063 20.6793C59.8651 20.6026 58.7656 20.1531 57.6756 19.705C57.4818 19.6256 57.2893 19.5462 57.0229 19.4412C55.0446 18.6634 53.186 18.5477 51.5805 18.9729C49.9266 19.4116 48.535 20.4317 47.5593 21.8958C47.6374 22.1178 47.7208 22.3372 47.8043 22.5579C47.8675 22.7234 47.9294 22.8876 48.0196 23.1392C48.1569 23.5187 48.2632 23.8968 48.3412 24.2723L48.3426 24.2736ZM62.1489 22.5148C61.8946 23.3976 61.7721 24.2413 61.6537 25.0595C61.2553 27.8074 60.8947 30.301 56.323 33.2198C56.4724 33.3288 56.6191 33.4418 56.7645 33.5603C56.9784 33.7339 57.1332 33.863 57.288 33.9936C57.7684 34.3959 58.2529 34.7996 58.7952 35.1428C58.8222 35.1226 58.8518 35.1038 58.8841 35.089C60.5165 34.2923 61.8165 33.0233 62.5365 31.4031C63.2 29.9121 63.3749 28.1129 62.8703 26.0997C62.8057 25.8427 62.7491 25.6287 62.6926 25.4161C62.4369 24.4526 62.1785 23.4837 62.1489 22.5161V22.5148ZM-9.75195 20.6766C-8.64303 20.8959 -7.5691 20.8475 -6.48575 20.8004C-3.72959 20.6779 -0.906153 20.5528 2.88356 24.2333C2.9643 23.8713 3.06927 23.5066 3.20251 23.1406C3.29267 22.8889 3.35592 22.7247 3.41783 22.5592C3.50127 22.3399 3.58471 22.1192 3.66276 21.8971C2.68707 20.433 1.29554 19.4143 -0.358421 18.9743C-1.96259 18.5477 -3.82245 18.6634 -5.80075 19.4426C-6.06721 19.5476 -6.25966 19.6269 -6.45345 19.7063C-7.53411 20.1491 -8.6215 20.5958 -9.75195 20.6779V20.6766ZM13.7978 5.26167C14.2675 5.55637 14.7533 5.81205 15.2405 6.06773C17.6575 7.33942 20.1109 8.62994 21.2292 14.1823C21.3382 14.1069 21.4499 14.0329 21.5643 13.9616C21.6962 13.8781 21.8954 13.7584 22.0945 13.6373C22.6342 13.3103 23.1765 12.9806 23.6516 12.5634C23.6395 12.5244 23.6314 12.484 23.6287 12.4409C23.4928 10.6727 22.7701 9.09285 21.5293 7.89788C20.3343 6.74596 18.6534 5.94528 16.5486 5.66537C16.4073 5.64653 16.1274 5.61289 15.8474 5.58059C15.157 5.4985 14.464 5.41642 13.7992 5.26301L13.7978 5.26167ZM20.2858 14.9359C20.2791 14.913 20.2724 14.8888 20.2683 14.8645C19.2913 9.41179 16.9981 8.20604 14.7399 7.0178C13.7117 6.47683 12.6916 5.9399 11.7711 5.05846C11.479 6.21442 11.0376 7.17793 10.6097 8.10915C9.48056 10.5677 8.46315 12.7827 11.1857 18.0525C12.5732 18.1561 13.8341 18.6069 14.9417 19.3107C15.9053 19.923 16.7518 20.725 17.4624 21.6536C17.4637 20.4761 17.6629 19.3147 18.0707 18.2315C18.5336 17.0015 19.2657 15.8725 20.2858 14.9359ZM9.97984 18.0498C7.3327 12.6724 8.42412 10.2946 9.63263 7.66373C9.81027 7.27617 9.99061 6.88322 10.1615 6.47279C9.72549 7.05817 9.20467 7.59779 8.68789 8.13337C8.52775 8.30024 8.3676 8.46576 8.19938 8.64474C6.78093 10.1586 6.06094 11.8165 5.91694 13.4421C5.76621 15.1377 6.23858 16.8091 7.19543 18.257C7.82121 18.2907 8.44566 18.2167 9.06606 18.144C9.24236 18.1225 9.41865 18.1023 9.68242 18.0754C9.78201 18.0646 9.88025 18.0565 9.9785 18.0498H9.97984ZM39.4053 5.05981C38.4848 5.94124 37.4633 6.47817 36.4365 7.01914C34.1863 8.20335 31.9026 9.40506 30.9188 14.8107C31.99 15.7661 32.7369 16.9356 33.1945 18.2153C33.5861 19.308 33.7651 20.4815 33.7557 21.6657C34.469 20.7318 35.3181 19.9257 36.2858 19.3107C37.3799 18.6163 38.622 18.1682 39.9907 18.0565C42.7159 12.7841 41.6985 10.5691 40.568 8.10915C40.1401 7.17793 39.6987 6.21576 39.4066 5.05846L39.4053 5.05981ZM29.9673 14.0773C31.0964 8.61379 33.5323 7.33134 35.9345 6.06773C36.4123 5.81609 36.8887 5.56579 37.3489 5.27916C36.707 5.4218 36.0408 5.5012 35.3787 5.57925C35.0974 5.61289 34.8175 5.64519 34.6776 5.66403C32.5728 5.94393 30.8919 6.74596 29.6968 7.89653C28.456 9.09151 27.7333 10.6714 27.5974 12.4396C27.5974 12.4477 27.5961 12.4571 27.5947 12.4652C28.094 12.9294 28.6781 13.2833 29.2581 13.6359C29.4573 13.757 29.6565 13.8781 29.7883 13.9602C29.8489 13.9979 29.9095 14.0369 29.9673 14.076V14.0773ZM40.9516 6.31938C41.1386 6.78499 41.3418 7.22772 41.5424 7.66373C42.7509 10.2946 43.8423 12.6711 41.1978 18.0471C41.3122 18.0538 41.4266 18.0632 41.5424 18.0754C41.8061 18.1023 41.9824 18.1238 42.1587 18.144C42.7791 18.218 43.4049 18.292 44.0294 18.257C44.9862 16.8091 45.4586 15.1377 45.3079 13.4421C45.1639 11.8165 44.4439 10.16 43.0254 8.64474C42.8585 8.46576 42.697 8.30024 42.5369 8.13337C41.9744 7.55069 41.4105 6.96397 40.9516 6.31938ZM34.7314 29.4734C36.6155 28.919 38.4013 27.9137 39.1402 27.0108C39.3286 26.7807 39.6677 26.747 39.8978 26.9354C40.128 27.1238 40.1616 27.4629 39.9732 27.693L39.9692 27.6984C39.5049 28.343 39.3649 29.1921 39.4362 30.0345C39.517 30.9859 39.8655 31.9104 40.3285 32.5268C40.6124 32.5241 40.8991 32.5147 41.1857 32.4985C41.7846 32.4649 42.3875 32.3989 42.9918 32.302C43.2367 32.263 43.4843 32.2173 43.7319 32.1675C43.958 32.1217 44.1922 32.0679 44.4331 32.0087C44.4667 31.9939 44.5017 31.9804 44.5367 31.9656C45.7412 30.8298 46.6846 29.429 47.1381 27.8909C47.5445 26.5115 47.558 25.0178 47.0103 23.5025C46.9632 23.372 46.8811 23.154 46.799 22.9374C46.729 22.7516 46.6577 22.5646 46.589 22.3775L43.4843 22.9158C43.4655 22.9185 43.4466 22.9212 43.4265 22.9226C43.1304 22.9441 42.8733 22.7207 42.8518 22.4246L42.623 19.2811C42.4239 19.2596 42.226 19.2367 42.0282 19.2138C41.7981 19.1869 41.5693 19.16 41.428 19.1452C39.7 18.9689 38.1577 19.3955 36.8564 20.2204C35.4204 21.1314 34.2711 22.5296 33.4825 24.1444C34.2738 25.5238 34.7583 27.2126 34.7341 29.2217C34.7327 29.3065 34.7314 29.3913 34.7287 29.4761L34.7314 29.4734ZM39.0473 32.4904C38.688 31.8001 38.435 30.9658 38.3636 30.122C38.3327 29.7519 38.3354 29.3792 38.3771 29.0118C37.3449 29.6604 36.0314 30.2418 34.7072 30.5957C34.0814 30.7626 33.4489 30.8796 32.8379 30.9294C34.6722 31.7772 36.785 32.3464 39.0473 32.4904ZM25.747 0.0161514C25.9798 0.0753593 26.1507 0.286633 26.1507 0.536934V5.86454C26.1507 6.11483 25.9784 6.32611 25.747 6.38532C25.7429 6.38667 25.7389 6.38801 25.7335 6.38801C25.7295 6.38935 25.7254 6.38935 25.7201 6.3907C25.716 6.39205 25.712 6.39205 25.7066 6.39339C25.7026 6.39474 25.6972 6.39474 25.6931 6.39608C25.6891 6.39743 25.6837 6.39743 25.6797 6.39743C25.6756 6.39743 25.6703 6.39878 25.6662 6.39878C25.6622 6.39878 25.6568 6.40012 25.6528 6.40012C25.6487 6.40012 25.6433 6.40012 25.6393 6.40147C25.6353 6.40147 25.6299 6.40147 25.6259 6.40147C25.6218 6.40147 25.6164 6.40147 25.6124 6.40147C25.6084 6.40147 25.603 6.40147 25.5989 6.40147C25.5949 6.40147 25.5895 6.40147 25.5855 6.40147C25.5814 6.40147 25.5761 6.40147 25.572 6.40012C25.568 6.40012 25.5626 6.39878 25.5586 6.39878C25.5545 6.39878 25.5491 6.39743 25.5451 6.39743C25.5411 6.39743 25.5357 6.39608 25.5316 6.39608C25.5276 6.39474 25.5222 6.39474 25.5182 6.39339C25.5142 6.39205 25.5088 6.39205 25.5047 6.3907C25.5007 6.38935 25.4967 6.38935 25.4913 6.38801C25.4872 6.38667 25.4832 6.38532 25.4778 6.38532C25.245 6.32611 25.0741 6.11483 25.0741 5.86454V0.536934C25.0741 0.286633 25.2463 0.0753593 25.4778 0.0161514C25.4819 0.0148048 25.4859 0.0134583 25.4913 0.0134583C25.4953 0.0121117 25.4993 0.0121117 25.5047 0.0107651C25.5088 0.0094223 25.5128 0.0094223 25.5182 0.00807571C25.5222 0.00672913 25.5276 0.00672913 25.5316 0.00538254C25.5357 0.00403976 25.5411 0.00403976 25.5451 0.00403976C25.5491 0.00403976 25.5545 0.00269318 25.5586 0.00269318C25.5626 0.00269318 25.568 0.00134659 25.572 0.00134659C25.5761 0.00134659 25.5814 0.00134659 25.5855 0C25.5895 0 25.5949 0 25.5989 0C25.603 0 25.6084 0 25.6124 0C25.6164 0 25.6218 0 25.6259 0C25.6299 0 25.6353 0 25.6393 0C25.6433 0 25.6487 0 25.6528 0.00134659C25.6568 0.00134659 25.6622 0.00269318 25.6662 0.00269318C25.6703 0.00269318 25.6756 0.00403976 25.6797 0.00403976C25.6837 0.00403976 25.6891 0.00538254 25.6931 0.00538254C25.6972 0.00672913 25.7026 0.00672913 25.7066 0.00807571C25.7106 0.0094223 25.716 0.0094223 25.7201 0.0107651C25.7241 0.0121117 25.7281 0.0121117 25.7335 0.0134583C25.7376 0.0148048 25.7416 0.0161514 25.747 0.0161514ZM43.7104 19.3524L43.8854 21.7558L46.2593 21.3441C46.0521 20.5582 45.9606 19.7386 46.1597 18.8438C45.3388 19.2542 44.5219 19.3645 43.7091 19.3538L43.7104 19.3524ZM26.1332 17.5304C26.0202 17.4173 25.8654 17.3487 25.6931 17.3487C25.5209 17.3487 25.3661 17.4187 25.2531 17.5304C25.14 17.6434 25.0714 17.7981 25.0714 17.9704C25.0714 18.1426 25.1414 18.2974 25.2531 18.4104C25.3661 18.5235 25.5209 18.5921 25.6931 18.5921C25.8654 18.5921 26.0202 18.5221 26.1332 18.4104C26.2463 18.2974 26.3149 18.1426 26.3149 17.9704C26.3149 17.7981 26.2449 17.6434 26.1332 17.5304ZM7.34077 21.7558L7.51572 19.3524C6.70288 19.3632 5.88599 19.2528 5.06506 18.8424C5.26424 19.7386 5.17407 20.5582 4.96548 21.3427L7.33943 21.7545L7.34077 21.7558ZM25.677 15.4217L27.2973 13.6332C26.6486 13.142 26.0727 12.5513 25.677 11.7223C25.2827 12.5513 24.7053 13.142 24.0567 13.6332L25.677 15.4217Z" fill="black"/>
<path d="M105.191 14.2415L103.262 16.3704C103.502 16.4551 103.717 16.5938 103.894 16.77C104.2 17.0769 104.392 17.5021 104.392 17.9704C104.392 18.4387 104.202 18.8639 103.894 19.1708C103.762 19.3026 103.608 19.413 103.439 19.4964C105.257 19.7063 107.315 20.5743 108.923 22.1353C109.16 22.3654 109.386 22.609 109.601 22.8687C109.783 21.4033 109.66 19.9203 109.18 18.5773C108.652 17.1038 107.689 15.7971 106.216 14.8713C106.004 14.738 105.853 14.6465 105.704 14.555C105.533 14.4514 105.362 14.3478 105.191 14.2415ZM102.17 30.3144C102.186 30.0184 102.439 29.791 102.735 29.8071C102.848 29.8138 102.952 29.8542 103.034 29.9188C103.176 30.009 103.275 30.1637 103.284 30.3441C103.293 30.5109 103.311 30.6751 103.338 30.8379C103.685 32.9991 105.463 35.2208 108.102 36.8626C110.784 38.5326 114.34 39.5849 118.186 39.3642C118.785 39.3306 119.388 39.2647 119.992 39.1678C120.237 39.1287 120.484 39.083 120.732 39.0332C120.958 38.9874 121.192 38.9336 121.433 38.8744C123.48 38.0185 125.729 37.6942 127.908 37.9634C130.002 38.2204 132.034 39.0251 133.764 40.426C133.978 40.5996 134.133 40.7288 134.288 40.8593C135.863 42.1767 137.464 43.5157 141.102 42.6235C141.39 42.5535 141.679 42.7312 141.749 43.0191C141.819 43.3071 141.641 43.5964 141.353 43.6664C137.189 44.6878 135.378 43.1726 133.598 41.6842C133.408 41.5254 133.219 41.368 133.086 41.2603C131.522 39.994 129.68 39.2673 127.776 39.0332C125.773 38.7869 123.707 39.0843 121.83 39.8716C121.796 39.8877 121.761 39.9012 121.724 39.9106C121.472 39.9738 121.212 40.0317 120.945 40.0869C120.682 40.1407 120.42 40.1878 120.159 40.2309C119.511 40.3345 118.872 40.4031 118.242 40.4394C114.161 40.6736 110.384 39.5526 107.531 37.7777C105.234 36.3485 103.526 34.4834 102.719 32.5416C101.909 34.4753 100.213 36.3337 97.9318 37.7629C95.0868 39.5459 91.3186 40.6723 87.2409 40.4394C86.6138 40.4031 85.9772 40.3345 85.3326 40.2309C85.0715 40.1891 84.8091 40.1407 84.5467 40.0869C84.2789 40.0317 84.0191 39.9738 83.7675 39.9106C83.7298 39.9012 83.6935 39.8877 83.6612 39.8716C81.7838 39.0843 79.7194 38.7869 77.7155 39.0332C75.8112 39.2673 73.9689 39.994 72.4051 41.2603C72.2718 41.368 72.0834 41.5268 71.8937 41.6842C70.1132 43.1739 68.3018 44.6878 64.138 43.6664C63.85 43.5964 63.6723 43.3071 63.7423 43.0191C63.8123 42.7312 64.1016 42.5535 64.3896 42.6235C68.0273 43.5157 69.6287 42.1767 71.2033 40.8593C71.3581 40.7301 71.5128 40.6009 71.7268 40.426C73.4575 39.0238 75.4896 38.2204 77.5836 37.9634C79.7624 37.6956 82.0112 38.0185 84.0582 38.8744C84.3004 38.9336 84.5332 38.9874 84.7593 39.0332C85.0069 39.0843 85.2532 39.1287 85.4995 39.1678C86.1024 39.2647 86.7026 39.3292 87.2988 39.3629C91.145 39.5836 94.6911 38.5245 97.3639 36.8505C99.9935 35.2034 101.763 32.9749 102.112 30.8097C102.139 30.6455 102.156 30.48 102.166 30.3118L102.17 30.3144ZM90.5704 9.13592L89.9338 9.35527L89.7145 8.71875L90.351 8.4994L90.5704 9.13592ZM93.2041 16.7687L92.5675 16.988L92.3481 16.3515L92.9847 16.1322L93.2041 16.7687ZM92.3266 14.224L91.6901 14.4433L91.4707 13.8068L92.1073 13.5875L92.3266 14.224ZM91.4492 11.6793L90.8126 11.8986L90.5933 11.2621L91.2298 11.0428L91.4492 11.6793ZM115.354 9.35392L114.718 9.13457L114.937 8.49806L115.574 8.71741L115.354 9.35392ZM112.721 16.9867L112.084 16.7673L112.303 16.1308L112.94 16.3502L112.721 16.9867ZM113.598 14.442L112.961 14.2226L113.181 13.5861L113.817 13.8055L113.598 14.442ZM114.475 11.8973L113.839 11.6779L114.058 11.0414L114.695 11.2608L114.475 11.8973ZM69.1994 22.9562L68.7688 23.4729L68.252 23.0423L68.6827 22.5256L69.1994 22.9562ZM77.367 29.7681L76.9511 29.4209L76.5205 29.9377L76.9363 30.2848L77.367 29.7681ZM75.4008 28.1277L74.9701 28.6444L74.4533 28.2138L74.884 27.6971L75.4008 28.1277ZM73.3337 26.4039L72.903 26.9206L72.3862 26.49L72.8169 25.9732L73.3337 26.4039ZM71.2665 24.68L70.8359 25.1968L70.3191 24.7662L70.7498 24.2494L71.2665 24.68ZM86.3379 23.6533L85.7996 24.057L85.3959 23.5187L85.9342 23.115L86.3379 23.6533ZM87.9515 25.8077L87.4132 26.2114L87.0094 25.6731L87.5478 25.2694L87.9515 25.8077ZM136.562 23.4729L136.132 22.9562L136.648 22.5256L137.079 23.0423L136.562 23.4729ZM128.395 30.2848L128.811 29.9377L128.38 29.4209L127.964 29.7681L128.395 30.2848ZM130.361 28.6444L129.93 28.1277L130.447 27.6971L130.878 28.2138L130.361 28.6444ZM132.428 26.9206L131.997 26.4039L132.514 25.9732L132.945 26.49L132.428 26.9206ZM134.495 25.1968L134.065 24.68L134.581 24.2494L135.012 24.7662L134.495 25.1968ZM119.532 24.0556L118.993 23.6519L119.397 23.1136L119.935 23.5173L119.532 24.0556ZM117.918 26.2101L117.38 25.8064L117.783 25.2681L118.322 25.6718L117.918 26.2101ZM102.693 36.6446C103.354 36.6446 103.951 36.9124 104.385 37.3457C104.818 37.779 105.086 38.3765 105.086 39.0372C105.086 39.698 104.818 40.2955 104.385 40.7288C103.951 41.1621 103.354 41.4299 102.693 41.4299C102.032 41.4299 101.435 41.1621 101.001 40.7288C100.568 40.2955 100.3 39.698 100.3 39.0372C100.3 38.3765 100.568 37.779 101.001 37.3457C101.435 36.9124 102.032 36.6446 102.693 36.6446ZM103.623 38.106C103.385 37.8678 103.057 37.7211 102.693 37.7211C102.33 37.7211 102.001 37.8678 101.763 38.106C101.525 38.3442 101.378 38.6726 101.378 39.0359C101.378 39.3992 101.525 39.7276 101.763 39.9658C102.001 40.204 102.33 40.3506 102.693 40.3506C103.057 40.3506 103.385 40.204 103.623 39.9658C103.861 39.7276 104.008 39.3992 104.008 39.0359C104.008 38.6726 103.861 38.3442 103.623 38.106ZM102.655 20.5178C102.577 20.5191 102.487 20.5218 102.385 20.5286C100.73 20.6228 98.7783 21.3669 97.2468 22.7987C95.718 24.2292 94.6117 26.3514 94.6467 29.2069C94.6481 29.3321 94.6521 29.468 94.6602 29.6133C96.0894 29.8865 97.4567 29.865 98.3288 29.3307C100.426 27.7724 101.813 25.8346 102.117 23.9453C102.144 23.7811 102.162 23.6156 102.171 23.4474C102.187 23.1513 102.44 22.9239 102.736 22.94C102.849 22.9468 102.953 22.9871 103.035 23.0517C103.178 23.1419 103.276 23.2967 103.285 23.477C103.295 23.6438 103.312 23.808 103.339 23.9708C103.65 25.906 105.109 27.8895 107.304 29.4613C108.125 29.9565 109.352 29.9848 110.647 29.7385C110.657 29.5582 110.664 29.3805 110.666 29.2069C110.699 26.4214 109.647 24.3328 108.174 22.9037C106.7 21.4719 104.809 20.6981 103.167 20.5447C102.992 20.5286 102.821 20.5191 102.655 20.5164V20.5178ZM93.5768 29.3536C93.5755 29.3092 93.5755 29.2648 93.5742 29.2191C93.5499 27.2503 94.0142 25.5897 94.7786 24.2252C93.9887 22.5754 92.8246 21.1449 91.3644 20.2177C90.3416 19.5677 89.1681 19.1654 87.8734 19.1102C87.8452 19.1115 87.8183 19.1102 87.79 19.1075C87.4657 19.0967 87.1319 19.1089 86.7928 19.1438C86.6515 19.1586 86.4227 19.1856 86.1926 19.2125C85.9947 19.2353 85.7969 19.2596 85.5977 19.2798L85.3689 22.4233C85.3474 22.7194 85.0904 22.9427 84.7943 22.9212C84.7755 22.9199 84.7553 22.9172 84.7364 22.9145L81.6317 22.3762C81.5631 22.5632 81.4931 22.7503 81.4218 22.936C81.3397 23.1527 81.2576 23.3693 81.2105 23.5012C80.6655 25.0111 80.6372 26.4819 80.9965 27.837C81.3841 29.2971 82.2225 30.628 83.3516 31.7355C83.5912 31.8189 83.828 31.9104 84.0622 32.0087C84.3044 32.0679 84.5373 32.1217 84.7633 32.1675C85.011 32.2186 85.2572 32.263 85.5035 32.302C86.1064 32.3989 86.7066 32.4635 87.3028 32.4972C87.5545 32.512 87.8048 32.52 88.0538 32.5241C88.5167 31.9077 88.8639 30.9846 88.9447 30.0345C89.016 29.1921 88.876 28.3444 88.4117 27.6984L88.4077 27.693C88.2193 27.4629 88.2529 27.1238 88.4831 26.9354C88.7132 26.747 89.0523 26.7807 89.2407 27.0108C89.9527 27.8801 91.7035 28.818 93.5768 29.3523V29.3536ZM95.6224 22.9777C95.901 22.6319 96.1998 22.3116 96.5147 22.0156C98.1215 20.5124 100.147 19.6808 101.933 19.4883C101.769 19.4063 101.621 19.2986 101.493 19.1708C101.186 18.8639 100.995 18.4387 100.995 17.9704C100.995 17.5021 101.185 17.0769 101.493 16.77C101.662 16.6005 101.868 16.4659 102.098 16.3798L100.162 14.2415C99.9922 14.3478 99.8213 14.4514 99.649 14.555C99.4983 14.6465 99.3489 14.738 99.1362 14.8713C97.6397 15.8119 96.6344 17.128 96.0746 18.6109C95.5605 19.9755 95.4219 21.484 95.6224 22.9791V22.9777ZM102.723 25.6718C102.04 27.3028 100.727 28.8799 98.9653 30.1906C98.9478 30.2054 98.929 30.2189 98.9102 30.231C98.5993 30.4598 98.275 30.6818 97.9372 30.8931C95.0922 32.6761 91.324 33.8025 87.2463 33.5697C86.6192 33.5333 85.9826 33.4647 85.338 33.3611C85.0769 33.3194 84.8145 33.2709 84.5521 33.2171C84.2843 33.1619 84.0245 33.1041 83.7729 33.0408C83.7352 33.0314 83.6988 33.0179 83.6665 33.0018C83.4189 32.8982 83.1673 32.8026 82.9129 32.7152C82.8981 32.7111 82.8846 32.7057 82.8712 32.7004C81.2145 32.1406 79.4448 31.9495 77.7209 32.1621C75.8166 32.3962 73.9742 33.1229 72.4105 34.3892C72.2772 34.4969 72.0888 34.6557 71.8991 34.8131C70.1186 36.3028 68.3072 37.8167 64.1433 36.7953C63.8553 36.7253 63.6777 36.436 63.7477 36.148C63.8177 35.8601 64.107 35.6824 64.395 35.7524C66.0853 36.1669 67.3355 36.0996 68.3489 35.7766C66.738 34.8642 65.4541 33.5159 64.7072 31.8351C63.9495 30.1301 63.7436 28.0927 64.3102 25.8333C64.3614 25.6314 64.426 25.3838 64.4919 25.1362C65.0033 23.2159 65.5214 21.266 63.7046 19.4668C63.527 19.3228 63.3466 19.164 63.165 18.9891C62.951 18.7832 62.9443 18.4441 63.1502 18.2301C63.3439 18.0283 63.6575 18.0108 63.8715 18.1817C64.0707 18.3405 64.2537 18.5006 64.4206 18.6607C66.4379 20.2271 68.3031 19.4628 70.1388 18.7092C70.3864 18.6069 70.634 18.506 70.809 18.4374C73.0093 17.5721 75.0966 17.4483 76.9148 17.9314C78.5391 18.362 79.9414 19.273 81.0154 20.5689C81.1674 19.5691 81.0207 18.4939 80.1339 17.2424C79.9885 17.0688 79.8432 16.8817 79.6978 16.6799C79.5242 16.439 79.5794 16.1039 79.8203 15.9317C80.0491 15.7675 80.364 15.8092 80.543 16.0205C80.7085 16.2156 80.8579 16.408 80.9952 16.5964C81.586 17.2801 82.1795 17.6986 82.7743 17.9448C82.0449 16.5197 81.7057 14.9453 81.8484 13.3466C82.0139 11.4882 82.8241 9.60691 84.4175 7.90595C84.5736 7.73909 84.7432 7.5628 84.9141 7.38651C86.2935 5.95604 87.6931 4.50269 86.9785 2.0468C86.8924 1.83418 86.813 1.6081 86.7389 1.36723C86.6528 1.08329 86.813 0.784542 87.0969 0.698418C87.3634 0.617676 87.6447 0.754936 87.7483 1.00793C87.8452 1.24342 87.9273 1.47219 87.9959 1.69288C88.9985 4.03843 91.001 4.27527 92.9726 4.50808C93.165 4.53095 93.3588 4.55383 93.6872 4.59689C96.0329 4.90909 97.9183 5.81474 99.2735 7.12007C100.486 8.28813 101.272 9.76974 101.58 11.4276C101.891 10.8692 102.096 10.1761 102.139 9.28125C102.131 9.05248 102.131 8.81295 102.141 8.56131C102.152 8.26525 102.4 8.03379 102.697 8.04456C102.981 8.05398 103.205 8.28275 103.214 8.56131C103.223 8.81295 103.223 9.05248 103.217 9.28125C103.256 10.0846 103.424 10.7238 103.682 11.25C104.012 9.66343 104.783 8.24507 105.954 7.11872C107.309 5.8134 109.195 4.90775 111.54 4.59555C111.869 4.55248 112.061 4.52961 112.255 4.50673C114.226 4.27393 116.229 4.03574 117.232 1.69154C117.3 1.47084 117.382 1.24208 117.479 1.00658C117.583 0.75359 117.864 0.616329 118.131 0.697071C118.415 0.783195 118.573 1.08194 118.489 1.36588C118.415 1.60676 118.335 1.83284 118.249 2.04546C117.533 4.50135 118.934 5.9547 120.313 7.38517C120.484 7.56145 120.654 7.73909 120.81 7.90461C122.403 9.60556 123.214 11.4868 123.379 13.3452C123.52 14.9439 123.183 16.5184 122.453 17.9435C123.048 17.6972 123.642 17.2787 124.232 16.5951C124.368 16.4067 124.519 16.2156 124.684 16.0191C124.863 15.8065 125.178 15.7661 125.407 15.9303C125.648 16.1039 125.702 16.439 125.53 16.6785C125.384 16.8804 125.239 17.0674 125.094 17.241C124.207 18.4925 124.059 19.5677 124.212 20.5676C125.286 19.273 126.688 18.362 128.313 17.93C130.131 17.4469 132.22 17.5707 134.419 18.436C134.592 18.5046 134.84 18.6056 135.089 18.7078C136.924 19.4601 138.79 20.2258 140.807 18.6594C140.974 18.4993 141.157 18.3405 141.356 18.1803C141.57 18.0094 141.884 18.0269 142.077 18.2288C142.283 18.4427 142.277 18.7819 142.063 18.9877C141.881 19.1627 141.702 19.3215 141.523 19.4655C139.706 21.2647 140.224 23.2146 140.736 25.1349C140.802 25.3825 140.867 25.6301 140.917 25.8319C141.484 28.0914 141.279 30.1287 140.52 31.8337C139.788 33.4795 138.542 34.8064 136.98 35.7174C138.022 36.0888 139.317 36.1897 141.106 35.751C141.394 35.6811 141.683 35.8587 141.753 36.1467C141.823 36.4347 141.645 36.724 141.357 36.794C137.193 37.8153 135.382 36.3001 133.602 34.8118C133.412 34.653 133.223 34.4955 133.09 34.3879C131.526 33.1216 129.684 32.3949 127.78 32.1607C125.777 31.9145 123.711 32.2119 121.834 32.9991C121.8 33.0153 121.766 33.0287 121.728 33.0381C121.476 33.1014 121.216 33.1592 120.949 33.2144C120.686 33.2682 120.424 33.3153 120.163 33.3584C119.515 33.462 118.876 33.5307 118.246 33.567C114.165 33.8011 110.388 32.6802 107.535 30.9052C105.238 29.4761 103.53 27.6109 102.723 25.6691V25.6718ZM69.5318 35.2437C70.1455 34.8817 70.6784 34.435 71.2087 33.9909C71.3634 33.8617 71.5182 33.7325 71.7322 33.5576C71.8425 33.4674 71.9556 33.3799 72.0686 33.2952C67.3799 30.3427 67.0152 27.8289 66.6142 25.0568C66.489 24.1942 66.3612 23.3047 66.0772 22.3722C66.0691 23.3855 65.7986 24.4015 65.5308 25.4107C65.4743 25.6247 65.4178 25.8373 65.3532 26.0944C64.8485 28.1075 65.0235 29.9067 65.6869 31.3977C66.4069 33.0166 67.707 34.2856 69.3394 35.0836C69.4174 35.1213 69.482 35.1764 69.5318 35.241V35.2437ZM73.0497 32.6385C74.4587 31.7974 76.0064 31.2901 77.589 31.0949C78.8836 30.9362 80.2039 30.9859 81.4918 31.2322C80.7879 30.2848 80.2577 29.2325 79.9603 28.1089C79.7436 27.2947 79.6494 26.4442 79.6992 25.5709C75.9431 21.632 73.2179 21.7531 70.5627 21.8702C69.3919 21.9227 68.2332 21.9738 66.9991 21.7222C67.3813 22.8499 67.5334 23.8955 67.6787 24.9074C68.0528 27.4952 68.3933 29.834 73.0497 32.6385ZM89.3309 32.4958C91.7062 32.3586 93.9173 31.749 95.8149 30.8379C95.1474 30.7989 94.4516 30.6845 93.7626 30.5136C92.402 30.1758 91.0522 29.6133 89.9984 28.9782C90.0455 29.355 90.0496 29.7412 90.0159 30.122C89.9432 30.9685 89.6902 31.8055 89.3296 32.4958H89.3309ZM138.27 21.7235C137.037 21.9752 135.879 21.924 134.707 21.8716C132.035 21.7531 129.295 21.632 125.505 25.6395C125.532 26.5169 125.411 27.3728 125.17 28.1923C124.838 29.32 124.274 30.379 123.55 31.3291C124.981 31.0021 126.461 30.9187 127.909 31.0963C129.449 31.286 130.954 31.7705 132.333 32.5712C136.883 29.7964 137.219 27.475 137.591 24.9088C137.737 23.8982 137.888 22.8512 138.27 21.7235ZM125.343 24.2736C129.152 20.5514 131.987 20.6779 134.752 20.8004C135.833 20.8488 136.901 20.8959 138.006 20.6793C136.865 20.6026 135.766 20.1531 134.676 19.705C134.482 19.6256 134.289 19.5462 134.023 19.4412C132.045 18.6634 130.186 18.5477 128.581 18.9729C126.927 19.4116 125.535 20.4317 124.559 21.8958C124.637 22.1178 124.721 22.3372 124.804 22.5579C124.868 22.7234 124.929 22.8876 125.02 23.1392C125.157 23.5187 125.263 23.8968 125.341 24.2723L125.343 24.2736ZM139.149 22.5148C138.895 23.3976 138.772 24.2413 138.654 25.0595C138.255 27.8074 137.895 30.301 133.323 33.2198C133.472 33.3288 133.619 33.4418 133.764 33.5603C133.978 33.7339 134.133 33.863 134.288 33.9936C134.768 34.3959 135.253 34.7996 135.795 35.1428C135.822 35.1226 135.852 35.1038 135.884 35.089C137.516 34.2923 138.817 33.0233 139.536 31.4031C140.2 29.9121 140.375 28.1129 139.87 26.0997C139.806 25.8427 139.749 25.6287 139.693 25.4161C139.437 24.4526 139.179 23.4837 139.149 22.5161V22.5148ZM67.2481 20.6766C68.357 20.8959 69.4309 20.8475 70.5143 20.8004C73.2704 20.6779 76.0938 20.5528 79.8836 24.2333C79.9643 23.8713 80.0693 23.5066 80.2025 23.1406C80.2927 22.8889 80.3559 22.7247 80.4178 22.5592C80.5013 22.3399 80.5847 22.1192 80.6628 21.8971C79.6871 20.433 78.2955 19.4143 76.6416 18.9743C75.0374 18.5477 73.1775 18.6634 71.1993 19.4426C70.9328 19.5476 70.7403 19.6269 70.5466 19.7063C69.4659 20.1491 68.3785 20.5958 67.2481 20.6779V20.6766ZM90.7978 5.26167C91.2675 5.55637 91.7533 5.81205 92.2405 6.06773C94.6575 7.33942 97.1109 8.62994 98.2292 14.1823C98.3382 14.1069 98.4499 14.0329 98.5643 13.9616C98.6962 13.8781 98.8954 13.7584 99.0945 13.6373C99.6342 13.3103 100.177 12.9806 100.652 12.5634C100.639 12.5244 100.631 12.484 100.629 12.4409C100.493 10.6727 99.7701 9.09285 98.5293 7.89788C97.3343 6.74596 95.6534 5.94528 93.5486 5.66537C93.4073 5.64653 93.1274 5.61289 92.8474 5.58059C92.157 5.4985 91.464 5.41642 90.7992 5.26301L90.7978 5.26167ZM97.2858 14.9359C97.2791 14.913 97.2724 14.8888 97.2683 14.8645C96.2913 9.41179 93.9981 8.20604 91.7399 7.0178C90.7117 6.47683 89.6916 5.9399 88.7711 5.05846C88.479 6.21442 88.0376 7.17793 87.6097 8.10915C86.4806 10.5677 85.4632 12.7827 88.1857 18.0525C89.5732 18.1561 90.8341 18.6069 91.9417 19.3107C92.9053 19.923 93.7518 20.725 94.4624 21.6536C94.4637 20.4761 94.6629 19.3147 95.0707 18.2315C95.5336 17.0015 96.2657 15.8725 97.2858 14.9359ZM86.9798 18.0498C84.3327 12.6724 85.4241 10.2946 86.6326 7.66373C86.8103 7.27617 86.9906 6.88322 87.1615 6.47279C86.7255 7.05817 86.2047 7.59779 85.6879 8.13337C85.5277 8.30024 85.3676 8.46576 85.1994 8.64474C83.7809 10.1586 83.0609 11.8165 82.9169 13.4421C82.7662 15.1377 83.2386 16.8091 84.1954 18.257C84.8212 18.2907 85.4457 18.2167 86.0661 18.144C86.2424 18.1225 86.4187 18.1023 86.6824 18.0754C86.782 18.0646 86.8803 18.0565 86.9785 18.0498H86.9798ZM116.405 5.05981C115.485 5.94124 114.463 6.47817 113.436 7.01914C111.186 8.20335 108.903 9.40506 107.919 14.8107C108.99 15.7661 109.737 16.9356 110.195 18.2153C110.586 19.308 110.765 20.4815 110.756 21.6657C111.469 20.7318 112.318 19.9257 113.286 19.3107C114.38 18.6163 115.622 18.1682 116.991 18.0565C119.716 12.7841 118.698 10.5691 117.568 8.10915C117.14 7.17793 116.699 6.21576 116.407 5.05846L116.405 5.05981ZM106.967 14.0773C108.096 8.61379 110.532 7.33134 112.935 6.06773C113.412 5.81609 113.889 5.56579 114.349 5.27916C113.707 5.4218 113.041 5.5012 112.379 5.57925C112.097 5.61289 111.818 5.64519 111.678 5.66403C109.573 5.94393 107.892 6.74596 106.697 7.89653C105.456 9.09151 104.733 10.6714 104.597 12.4396C104.597 12.4477 104.596 12.4571 104.595 12.4652C105.094 12.9294 105.678 13.2833 106.258 13.6359C106.457 13.757 106.656 13.8781 106.788 13.9602C106.849 13.9979 106.909 14.0369 106.967 14.076V14.0773ZM117.952 6.31938C118.139 6.78499 118.342 7.22772 118.542 7.66373C119.751 10.2946 120.842 12.6711 118.198 18.0471C118.312 18.0538 118.427 18.0632 118.542 18.0754C118.806 18.1023 118.982 18.1238 119.159 18.144C119.779 18.218 120.405 18.292 121.029 18.257C121.986 16.8091 122.459 15.1377 122.308 13.4421C122.164 11.8165 121.444 10.16 120.025 8.64474C119.859 8.46576 119.697 8.30024 119.537 8.13337C118.974 7.55069 118.41 6.96397 117.952 6.31938ZM111.731 29.4734C113.615 28.919 115.401 27.9137 116.14 27.0108C116.329 26.7807 116.668 26.747 116.898 26.9354C117.128 27.1238 117.162 27.4629 116.973 27.693L116.969 27.6984C116.505 28.343 116.365 29.1921 116.436 30.0345C116.517 30.9859 116.866 31.9104 117.328 32.5268C117.612 32.5241 117.899 32.5147 118.186 32.4985C118.785 32.4649 119.388 32.3989 119.992 32.302C120.237 32.263 120.484 32.2173 120.732 32.1675C120.958 32.1217 121.192 32.0679 121.433 32.0087C121.467 31.9939 121.502 31.9804 121.537 31.9656C122.741 30.8298 123.685 29.429 124.138 27.8909C124.545 26.5115 124.558 25.0178 124.01 23.5025C123.963 23.372 123.881 23.154 123.799 22.9374C123.729 22.7516 123.658 22.5646 123.589 22.3775L120.484 22.9158C120.465 22.9185 120.447 22.9212 120.426 22.9226C120.13 22.9441 119.873 22.7207 119.852 22.4246L119.623 19.2811C119.424 19.2596 119.226 19.2367 119.028 19.2138C118.798 19.1869 118.569 19.16 118.428 19.1452C116.7 18.9689 115.158 19.3955 113.856 20.2204C112.42 21.1314 111.271 22.5296 110.483 24.1444C111.274 25.5238 111.758 27.2126 111.734 29.2217C111.733 29.3065 111.731 29.3913 111.729 29.4761L111.731 29.4734ZM116.047 32.4904C115.688 31.8001 115.435 30.9658 115.364 30.122C115.333 29.7519 115.335 29.3792 115.377 29.0118C114.345 29.6604 113.031 30.2418 111.707 30.5957C111.081 30.7626 110.449 30.8796 109.838 30.9294C111.672 31.7772 113.785 32.3464 116.047 32.4904ZM102.747 0.0161514C102.98 0.0753593 103.151 0.286633 103.151 0.536934V5.86454C103.151 6.11483 102.978 6.32611 102.747 6.38532C102.743 6.38667 102.739 6.38801 102.734 6.38801C102.729 6.38935 102.725 6.38935 102.72 6.3907C102.716 6.39205 102.712 6.39205 102.707 6.39339C102.703 6.39474 102.697 6.39474 102.693 6.39608C102.689 6.39743 102.684 6.39743 102.68 6.39743C102.676 6.39743 102.67 6.39878 102.666 6.39878C102.662 6.39878 102.657 6.40012 102.653 6.40012C102.649 6.40012 102.643 6.40012 102.639 6.40147C102.635 6.40147 102.63 6.40147 102.626 6.40147C102.622 6.40147 102.616 6.40147 102.612 6.40147C102.608 6.40147 102.603 6.40147 102.599 6.40147C102.595 6.40147 102.59 6.40147 102.585 6.40147C102.581 6.40147 102.576 6.40147 102.572 6.40012C102.568 6.40012 102.563 6.39878 102.559 6.39878C102.555 6.39878 102.549 6.39743 102.545 6.39743C102.541 6.39743 102.536 6.39608 102.532 6.39608C102.528 6.39474 102.522 6.39474 102.518 6.39339C102.514 6.39205 102.509 6.39205 102.505 6.3907C102.501 6.38935 102.497 6.38935 102.491 6.38801C102.487 6.38667 102.483 6.38532 102.478 6.38532C102.245 6.32611 102.074 6.11483 102.074 5.86454V0.536934C102.074 0.286633 102.246 0.0753593 102.478 0.0161514C102.482 0.0148048 102.486 0.0134583 102.491 0.0134583C102.495 0.0121117 102.499 0.0121117 102.505 0.0107651C102.509 0.0094223 102.513 0.0094223 102.518 0.00807571C102.522 0.00672913 102.528 0.00672913 102.532 0.00538254C102.536 0.00403976 102.541 0.00403976 102.545 0.00403976C102.549 0.00403976 102.555 0.00269318 102.559 0.00269318C102.563 0.00269318 102.568 0.00134659 102.572 0.00134659C102.576 0.00134659 102.581 0.00134659 102.585 0C102.59 0 102.595 0 102.599 0C102.603 0 102.608 0 102.612 0C102.616 0 102.622 0 102.626 0C102.63 0 102.635 0 102.639 0C102.643 0 102.649 0 102.653 0.00134659C102.657 0.00134659 102.662 0.00269318 102.666 0.00269318C102.67 0.00269318 102.676 0.00403976 102.68 0.00403976C102.684 0.00403976 102.689 0.00538254 102.693 0.00538254C102.697 0.00672913 102.703 0.00672913 102.707 0.00807571C102.711 0.0094223 102.716 0.0094223 102.72 0.0107651C102.724 0.0121117 102.728 0.0121117 102.734 0.0134583C102.738 0.0148048 102.742 0.0161514 102.747 0.0161514ZM120.71 19.3524L120.885 21.7558L123.259 21.3441C123.052 20.5582 122.961 19.7386 123.16 18.8438C122.339 19.2542 121.522 19.3645 120.709 19.3538L120.71 19.3524ZM103.133 17.5304C103.02 17.4173 102.865 17.3487 102.693 17.3487C102.521 17.3487 102.366 17.4187 102.253 17.5304C102.14 17.6434 102.071 17.7981 102.071 17.9704C102.071 18.1426 102.141 18.2974 102.253 18.4104C102.366 18.5235 102.521 18.5921 102.693 18.5921C102.865 18.5921 103.02 18.5221 103.133 18.4104C103.246 18.2974 103.315 18.1426 103.315 17.9704C103.315 17.7981 103.245 17.6434 103.133 17.5304ZM84.3408 21.7558L84.5157 19.3524C83.7029 19.3632 82.886 19.2528 82.0651 18.8424C82.2642 19.7386 82.1741 20.5582 81.9655 21.3427L84.3394 21.7545L84.3408 21.7558ZM102.677 15.4217L104.297 13.6332C103.649 13.142 103.073 12.5513 102.677 11.7223C102.283 12.5513 101.705 13.142 101.057 13.6332L102.677 15.4217Z" fill="black"/>
<path d="M182.191 14.2415L180.262 16.3704C180.502 16.4551 180.717 16.5938 180.894 16.77C181.2 17.0769 181.392 17.5021 181.392 17.9704C181.392 18.4387 181.202 18.8639 180.894 19.1708C180.762 19.3026 180.608 19.413 180.439 19.4964C182.257 19.7063 184.315 20.5743 185.923 22.1353C186.16 22.3654 186.386 22.609 186.601 22.8687C186.783 21.4033 186.66 19.9203 186.18 18.5773C185.652 17.1038 184.689 15.7971 183.216 14.8713C183.004 14.738 182.853 14.6465 182.704 14.555C182.533 14.4514 182.362 14.3478 182.191 14.2415ZM179.17 30.3144C179.186 30.0184 179.439 29.791 179.735 29.8071C179.848 29.8138 179.952 29.8542 180.034 29.9188C180.176 30.009 180.275 30.1637 180.284 30.3441C180.293 30.5109 180.311 30.6751 180.338 30.8379C180.685 32.9991 182.463 35.2208 185.102 36.8626C187.784 38.5326 191.34 39.5849 195.186 39.3642C195.785 39.3306 196.388 39.2647 196.992 39.1678C197.237 39.1287 197.484 39.083 197.732 39.0332C197.958 38.9874 198.192 38.9336 198.433 38.8744C200.48 38.0185 202.729 37.6942 204.908 37.9634C207.002 38.2204 209.034 39.0251 210.764 40.426C210.978 40.5996 211.133 40.7288 211.288 40.8593C212.863 42.1767 214.464 43.5157 218.102 42.6235C218.39 42.5535 218.679 42.7312 218.749 43.0191C218.819 43.3071 218.641 43.5964 218.353 43.6664C214.189 44.6878 212.378 43.1726 210.598 41.6842C210.408 41.5254 210.219 41.368 210.086 41.2603C208.522 39.994 206.68 39.2673 204.776 39.0332C202.773 38.7869 200.707 39.0843 198.83 39.8716C198.796 39.8877 198.761 39.9012 198.724 39.9106C198.472 39.9738 198.212 40.0317 197.945 40.0869C197.682 40.1407 197.42 40.1878 197.159 40.2309C196.511 40.3345 195.872 40.4031 195.242 40.4394C191.161 40.6736 187.384 39.5526 184.531 37.7777C182.234 36.3485 180.526 34.4834 179.719 32.5416C178.909 34.4753 177.213 36.3337 174.932 37.7629C172.087 39.5459 168.319 40.6723 164.241 40.4394C163.614 40.4031 162.977 40.3345 162.333 40.2309C162.072 40.1891 161.809 40.1407 161.547 40.0869C161.279 40.0317 161.019 39.9738 160.767 39.9106C160.73 39.9012 160.693 39.8877 160.661 39.8716C158.784 39.0843 156.719 38.7869 154.716 39.0332C152.811 39.2673 150.969 39.994 149.405 41.2603C149.272 41.368 149.083 41.5268 148.894 41.6842C147.113 43.1739 145.302 44.6878 141.138 43.6664C140.85 43.5964 140.672 43.3071 140.742 43.0191C140.812 42.7312 141.102 42.5535 141.39 42.6235C145.027 43.5157 146.629 42.1767 148.203 40.8593C148.358 40.7301 148.513 40.6009 148.727 40.426C150.457 39.0238 152.49 38.2204 154.584 37.9634C156.762 37.6956 159.011 38.0185 161.058 38.8744C161.3 38.9336 161.533 38.9874 161.759 39.0332C162.007 39.0843 162.253 39.1287 162.499 39.1678C163.102 39.2647 163.703 39.3292 164.299 39.3629C168.145 39.5836 171.691 38.5245 174.364 36.8505C176.994 35.2034 178.763 32.9749 179.112 30.8097C179.139 30.6455 179.156 30.48 179.166 30.3118L179.17 30.3144ZM167.57 9.13592L166.934 9.35527L166.714 8.71875L167.351 8.4994L167.57 9.13592ZM170.204 16.7687L169.568 16.988L169.348 16.3515L169.985 16.1322L170.204 16.7687ZM169.327 14.224L168.69 14.4433L168.471 13.8068L169.107 13.5875L169.327 14.224ZM168.449 11.6793L167.813 11.8986L167.593 11.2621L168.23 11.0428L168.449 11.6793ZM192.354 9.35392L191.718 9.13457L191.937 8.49806L192.574 8.71741L192.354 9.35392ZM189.721 16.9867L189.084 16.7673L189.303 16.1308L189.94 16.3502L189.721 16.9867ZM190.598 14.442L189.961 14.2226L190.181 13.5861L190.817 13.8055L190.598 14.442ZM191.475 11.8973L190.839 11.6779L191.058 11.0414L191.695 11.2608L191.475 11.8973ZM146.199 22.9562L145.769 23.4729L145.252 23.0423L145.683 22.5256L146.199 22.9562ZM154.367 29.7681L153.951 29.4209L153.52 29.9377L153.936 30.2848L154.367 29.7681ZM152.401 28.1277L151.97 28.6444L151.453 28.2138L151.884 27.6971L152.401 28.1277ZM150.334 26.4039L149.903 26.9206L149.386 26.49L149.817 25.9732L150.334 26.4039ZM148.267 24.68L147.836 25.1968L147.319 24.7662L147.75 24.2494L148.267 24.68ZM163.338 23.6533L162.8 24.057L162.396 23.5187L162.934 23.115L163.338 23.6533ZM164.951 25.8077L164.413 26.2114L164.009 25.6731L164.548 25.2694L164.951 25.8077ZM213.562 23.4729L213.132 22.9562L213.648 22.5256L214.079 23.0423L213.562 23.4729ZM205.395 30.2848L205.811 29.9377L205.38 29.4209L204.964 29.7681L205.395 30.2848ZM207.361 28.6444L206.93 28.1277L207.447 27.6971L207.878 28.2138L207.361 28.6444ZM209.428 26.9206L208.997 26.4039L209.514 25.9732L209.945 26.49L209.428 26.9206ZM211.495 25.1968L211.065 24.68L211.581 24.2494L212.012 24.7662L211.495 25.1968ZM196.532 24.0556L195.993 23.6519L196.397 23.1136L196.935 23.5173L196.532 24.0556ZM194.918 26.2101L194.38 25.8064L194.783 25.2681L195.322 25.6718L194.918 26.2101ZM179.693 36.6446C180.354 36.6446 180.951 36.9124 181.385 37.3457C181.818 37.779 182.086 38.3765 182.086 39.0372C182.086 39.698 181.818 40.2955 181.385 40.7288C180.951 41.1621 180.354 41.4299 179.693 41.4299C179.032 41.4299 178.435 41.1621 178.001 40.7288C177.568 40.2955 177.3 39.698 177.3 39.0372C177.3 38.3765 177.568 37.779 178.001 37.3457C178.435 36.9124 179.032 36.6446 179.693 36.6446ZM180.623 38.106C180.385 37.8678 180.057 37.7211 179.693 37.7211C179.33 37.7211 179.001 37.8678 178.763 38.106C178.525 38.3442 178.378 38.6726 178.378 39.0359C178.378 39.3992 178.525 39.7276 178.763 39.9658C179.001 40.204 179.33 40.3506 179.693 40.3506C180.057 40.3506 180.385 40.204 180.623 39.9658C180.861 39.7276 181.008 39.3992 181.008 39.0359C181.008 38.6726 180.861 38.3442 180.623 38.106ZM179.655 20.5178C179.577 20.5191 179.487 20.5218 179.385 20.5286C177.73 20.6228 175.778 21.3669 174.247 22.7987C172.718 24.2292 171.612 26.3514 171.647 29.2069C171.648 29.3321 171.652 29.468 171.66 29.6133C173.089 29.8865 174.457 29.865 175.329 29.3307C177.426 27.7724 178.813 25.8346 179.117 23.9453C179.144 23.7811 179.162 23.6156 179.171 23.4474C179.187 23.1513 179.44 22.9239 179.736 22.94C179.849 22.9468 179.953 22.9871 180.035 23.0517C180.178 23.1419 180.276 23.2967 180.285 23.477C180.295 23.6438 180.312 23.808 180.339 23.9708C180.65 25.906 182.109 27.8895 184.304 29.4613C185.125 29.9565 186.352 29.9848 187.647 29.7385C187.657 29.5582 187.664 29.3805 187.666 29.2069C187.699 26.4214 186.647 24.3328 185.174 22.9037C183.7 21.4719 181.809 20.6981 180.167 20.5447C179.992 20.5286 179.821 20.5191 179.655 20.5164V20.5178ZM170.577 29.3536C170.575 29.3092 170.575 29.2648 170.574 29.2191C170.55 27.2503 171.014 25.5897 171.779 24.2252C170.989 22.5754 169.825 21.1449 168.364 20.2177C167.342 19.5677 166.168 19.1654 164.873 19.1102C164.845 19.1115 164.818 19.1102 164.79 19.1075C164.466 19.0967 164.132 19.1089 163.793 19.1438C163.651 19.1586 163.423 19.1856 163.193 19.2125C162.995 19.2353 162.797 19.2596 162.598 19.2798L162.369 22.4233C162.347 22.7194 162.09 22.9427 161.794 22.9212C161.775 22.9199 161.755 22.9172 161.736 22.9145L158.632 22.3762C158.563 22.5632 158.493 22.7503 158.422 22.936C158.34 23.1527 158.258 23.3693 158.21 23.5012C157.665 25.0111 157.637 26.4819 157.997 27.837C158.384 29.2971 159.223 30.628 160.352 31.7355C160.591 31.8189 160.828 31.9104 161.062 32.0087C161.304 32.0679 161.537 32.1217 161.763 32.1675C162.011 32.2186 162.257 32.263 162.504 32.302C163.106 32.3989 163.707 32.4635 164.303 32.4972C164.554 32.512 164.805 32.52 165.054 32.5241C165.517 31.9077 165.864 30.9846 165.945 30.0345C166.016 29.1921 165.876 28.3444 165.412 27.6984L165.408 27.693C165.219 27.4629 165.253 27.1238 165.483 26.9354C165.713 26.747 166.052 26.7807 166.241 27.0108C166.953 27.8801 168.704 28.818 170.577 29.3523V29.3536ZM172.622 22.9777C172.901 22.6319 173.2 22.3116 173.515 22.0156C175.122 20.5124 177.147 19.6808 178.933 19.4883C178.769 19.4063 178.621 19.2986 178.493 19.1708C178.186 18.8639 177.995 18.4387 177.995 17.9704C177.995 17.5021 178.185 17.0769 178.493 16.77C178.662 16.6005 178.868 16.4659 179.098 16.3798L177.162 14.2415C176.992 14.3478 176.821 14.4514 176.649 14.555C176.498 14.6465 176.349 14.738 176.136 14.8713C174.64 15.8119 173.634 17.128 173.075 18.6109C172.561 19.9755 172.422 21.484 172.622 22.9791V22.9777ZM179.723 25.6718C179.04 27.3028 177.727 28.8799 175.965 30.1906C175.948 30.2054 175.929 30.2189 175.91 30.231C175.599 30.4598 175.275 30.6818 174.937 30.8931C172.092 32.6761 168.324 33.8025 164.246 33.5697C163.619 33.5333 162.983 33.4647 162.338 33.3611C162.077 33.3194 161.814 33.2709 161.552 33.2171C161.284 33.1619 161.025 33.1041 160.773 33.0408C160.735 33.0314 160.699 33.0179 160.667 33.0018C160.419 32.8982 160.167 32.8026 159.913 32.7152C159.898 32.7111 159.885 32.7057 159.871 32.7004C158.215 32.1406 156.445 31.9495 154.721 32.1621C152.817 32.3962 150.974 33.1229 149.41 34.3892C149.277 34.4969 149.089 34.6557 148.899 34.8131C147.119 36.3028 145.307 37.8167 141.143 36.7953C140.855 36.7253 140.678 36.436 140.748 36.148C140.818 35.8601 141.107 35.6824 141.395 35.7524C143.085 36.1669 144.336 36.0996 145.349 35.7766C143.738 34.8642 142.454 33.5159 141.707 31.8351C140.95 30.1301 140.744 28.0927 141.31 25.8333C141.361 25.6314 141.426 25.3838 141.492 25.1362C142.003 23.2159 142.521 21.266 140.705 19.4668C140.527 19.3228 140.347 19.164 140.165 18.9891C139.951 18.7832 139.944 18.4441 140.15 18.2301C140.344 18.0283 140.658 18.0108 140.871 18.1817C141.071 18.3405 141.254 18.5006 141.421 18.6607C143.438 20.2271 145.303 19.4628 147.139 18.7092C147.386 18.6069 147.634 18.506 147.809 18.4374C150.009 17.5721 152.097 17.4483 153.915 17.9314C155.539 18.362 156.941 19.273 158.015 20.5689C158.167 19.5691 158.021 18.4939 157.134 17.2424C156.989 17.0688 156.843 16.8817 156.698 16.6799C156.524 16.439 156.579 16.1039 156.82 15.9317C157.049 15.7675 157.364 15.8092 157.543 16.0205C157.709 16.2156 157.858 16.408 157.995 16.5964C158.586 17.2801 159.179 17.6986 159.774 17.9448C159.045 16.5197 158.706 14.9453 158.848 13.3466C159.014 11.4882 159.824 9.60691 161.417 7.90595C161.574 7.73909 161.743 7.5628 161.914 7.38651C163.293 5.95604 164.693 4.50269 163.978 2.0468C163.892 1.83418 163.813 1.6081 163.739 1.36723C163.653 1.08329 163.813 0.784542 164.097 0.698418C164.363 0.617676 164.645 0.754936 164.748 1.00793C164.845 1.24342 164.927 1.47219 164.996 1.69288C165.999 4.03843 168.001 4.27527 169.973 4.50808C170.165 4.53095 170.359 4.55383 170.687 4.59689C173.033 4.90909 174.918 5.81474 176.274 7.12007C177.486 8.28813 178.272 9.76974 178.58 11.4276C178.891 10.8692 179.096 10.1761 179.139 9.28125C179.131 9.05248 179.131 8.81295 179.141 8.56131C179.152 8.26525 179.4 8.03379 179.697 8.04456C179.981 8.05398 180.205 8.28275 180.214 8.56131C180.223 8.81295 180.223 9.05248 180.217 9.28125C180.256 10.0846 180.424 10.7238 180.682 11.25C181.012 9.66343 181.783 8.24507 182.954 7.11872C184.309 5.8134 186.195 4.90775 188.54 4.59555C188.869 4.55248 189.061 4.52961 189.255 4.50673C191.226 4.27393 193.229 4.03574 194.232 1.69154C194.3 1.47084 194.382 1.24208 194.479 1.00658C194.583 0.75359 194.864 0.616329 195.131 0.697071C195.415 0.783195 195.573 1.08194 195.489 1.36588C195.415 1.60676 195.335 1.83284 195.249 2.04546C194.533 4.50135 195.934 5.9547 197.313 7.38517C197.484 7.56145 197.654 7.73909 197.81 7.90461C199.403 9.60556 200.214 11.4868 200.379 13.3452C200.52 14.9439 200.183 16.5184 199.453 17.9435C200.048 17.6972 200.642 17.2787 201.232 16.5951C201.368 16.4067 201.519 16.2156 201.684 16.0191C201.863 15.8065 202.178 15.7661 202.407 15.9303C202.648 16.1039 202.702 16.439 202.53 16.6785C202.384 16.8804 202.239 17.0674 202.094 17.241C201.207 18.4925 201.059 19.5677 201.212 20.5676C202.286 19.273 203.688 18.362 205.313 17.93C207.131 17.4469 209.22 17.5707 211.419 18.436C211.592 18.5046 211.84 18.6056 212.089 18.7078C213.924 19.4601 215.79 20.2258 217.807 18.6594C217.974 18.4993 218.157 18.3405 218.356 18.1803C218.57 18.0094 218.884 18.0269 219.077 18.2288C219.283 18.4427 219.277 18.7819 219.063 18.9877C218.881 19.1627 218.702 19.3215 218.523 19.4655C216.706 21.2647 217.224 23.2146 217.736 25.1349C217.802 25.3825 217.867 25.6301 217.917 25.8319C218.484 28.0914 218.279 30.1287 217.52 31.8337C216.788 33.4795 215.542 34.8064 213.98 35.7174C215.022 36.0888 216.317 36.1897 218.106 35.751C218.394 35.6811 218.683 35.8587 218.753 36.1467C218.823 36.4347 218.645 36.724 218.357 36.794C214.193 37.8153 212.382 36.3001 210.602 34.8118C210.412 34.653 210.223 34.4955 210.09 34.3879C208.526 33.1216 206.684 32.3949 204.78 32.1607C202.777 31.9145 200.711 32.2119 198.834 32.9991C198.8 33.0153 198.766 33.0287 198.728 33.0381C198.476 33.1014 198.216 33.1592 197.949 33.2144C197.686 33.2682 197.424 33.3153 197.163 33.3584C196.515 33.462 195.876 33.5307 195.246 33.567C191.165 33.8011 187.388 32.6802 184.535 30.9052C182.238 29.4761 180.53 27.6109 179.723 25.6691V25.6718ZM146.532 35.2437C147.146 34.8817 147.678 34.435 148.209 33.9909C148.363 33.8617 148.518 33.7325 148.732 33.5576C148.843 33.4674 148.956 33.3799 149.069 33.2952C144.38 30.3427 144.015 27.8289 143.614 25.0568C143.489 24.1942 143.361 23.3047 143.077 22.3722C143.069 23.3855 142.799 24.4015 142.531 25.4107C142.474 25.6247 142.418 25.8373 142.353 26.0944C141.849 28.1075 142.023 29.9067 142.687 31.3977C143.407 33.0166 144.707 34.2856 146.339 35.0836C146.417 35.1213 146.482 35.1764 146.532 35.241V35.2437ZM150.05 32.6385C151.459 31.7974 153.006 31.2901 154.589 31.0949C155.884 30.9362 157.204 30.9859 158.492 31.2322C157.788 30.2848 157.258 29.2325 156.96 28.1089C156.744 27.2947 156.649 26.4442 156.699 25.5709C152.943 21.632 150.218 21.7531 147.563 21.8702C146.392 21.9227 145.233 21.9738 143.999 21.7222C144.381 22.8499 144.533 23.8955 144.679 24.9074C145.053 27.4952 145.393 29.834 150.05 32.6385ZM166.331 32.4958C168.706 32.3586 170.917 31.749 172.815 30.8379C172.147 30.7989 171.452 30.6845 170.763 30.5136C169.402 30.1758 168.052 29.6133 166.998 28.9782C167.046 29.355 167.05 29.7412 167.016 30.122C166.943 30.9685 166.69 31.8055 166.33 32.4958H166.331ZM215.27 21.7235C214.037 21.9752 212.879 21.924 211.707 21.8716C209.035 21.7531 206.295 21.632 202.505 25.6395C202.532 26.5169 202.411 27.3728 202.17 28.1923C201.838 29.32 201.274 30.379 200.55 31.3291C201.981 31.0021 203.461 30.9187 204.909 31.0963C206.449 31.286 207.954 31.7705 209.333 32.5712C213.883 29.7964 214.219 27.475 214.591 24.9088C214.737 23.8982 214.888 22.8512 215.27 21.7235ZM202.343 24.2736C206.152 20.5514 208.987 20.6779 211.752 20.8004C212.833 20.8488 213.901 20.8959 215.006 20.6793C213.865 20.6026 212.766 20.1531 211.676 19.705C211.482 19.6256 211.289 19.5462 211.023 19.4412C209.045 18.6634 207.186 18.5477 205.581 18.9729C203.927 19.4116 202.535 20.4317 201.559 21.8958C201.637 22.1178 201.721 22.3372 201.804 22.5579C201.868 22.7234 201.929 22.8876 202.02 23.1392C202.157 23.5187 202.263 23.8968 202.341 24.2723L202.343 24.2736ZM216.149 22.5148C215.895 23.3976 215.772 24.2413 215.654 25.0595C215.255 27.8074 214.895 30.301 210.323 33.2198C210.472 33.3288 210.619 33.4418 210.764 33.5603C210.978 33.7339 211.133 33.863 211.288 33.9936C211.768 34.3959 212.253 34.7996 212.795 35.1428C212.822 35.1226 212.852 35.1038 212.884 35.089C214.516 34.2923 215.817 33.0233 216.536 31.4031C217.2 29.9121 217.375 28.1129 216.87 26.0997C216.806 25.8427 216.749 25.6287 216.693 25.4161C216.437 24.4526 216.179 23.4837 216.149 22.5161V22.5148ZM144.248 20.6766C145.357 20.8959 146.431 20.8475 147.514 20.8004C150.27 20.6779 153.094 20.5528 156.884 24.2333C156.964 23.8713 157.069 23.5066 157.203 23.1406C157.293 22.8889 157.356 22.7247 157.418 22.5592C157.501 22.3399 157.585 22.1192 157.663 21.8971C156.687 20.433 155.296 19.4143 153.642 18.9743C152.037 18.5477 150.178 18.6634 148.199 19.4426C147.933 19.5476 147.74 19.6269 147.547 19.7063C146.466 20.1491 145.379 20.5958 144.248 20.6779V20.6766ZM167.798 5.26167C168.267 5.55637 168.753 5.81205 169.24 6.06773C171.658 7.33942 174.111 8.62994 175.229 14.1823C175.338 14.1069 175.45 14.0329 175.564 13.9616C175.696 13.8781 175.895 13.7584 176.095 13.6373C176.634 13.3103 177.177 12.9806 177.652 12.5634C177.639 12.5244 177.631 12.484 177.629 12.4409C177.493 10.6727 176.77 9.09285 175.529 7.89788C174.334 6.74596 172.653 5.94528 170.549 5.66537C170.407 5.64653 170.127 5.61289 169.847 5.58059C169.157 5.4985 168.464 5.41642 167.799 5.26301L167.798 5.26167ZM174.286 14.9359C174.279 14.913 174.272 14.8888 174.268 14.8645C173.291 9.41179 170.998 8.20604 168.74 7.0178C167.712 6.47683 166.692 5.9399 165.771 5.05846C165.479 6.21442 165.038 7.17793 164.61 8.10915C163.481 10.5677 162.463 12.7827 165.186 18.0525C166.573 18.1561 167.834 18.6069 168.942 19.3107C169.905 19.923 170.752 20.725 171.462 21.6536C171.464 20.4761 171.663 19.3147 172.071 18.2315C172.534 17.0015 173.266 15.8725 174.286 14.9359ZM163.98 18.0498C161.333 12.6724 162.424 10.2946 163.633 7.66373C163.81 7.27617 163.991 6.88322 164.162 6.47279C163.725 7.05817 163.205 7.59779 162.688 8.13337C162.528 8.30024 162.368 8.46576 162.199 8.64474C160.781 10.1586 160.061 11.8165 159.917 13.4421C159.766 15.1377 160.239 16.8091 161.195 18.257C161.821 18.2907 162.446 18.2167 163.066 18.144C163.242 18.1225 163.419 18.1023 163.682 18.0754C163.782 18.0646 163.88 18.0565 163.978 18.0498H163.98ZM193.405 5.05981C192.485 5.94124 191.463 6.47817 190.436 7.01914C188.186 8.20335 185.903 9.40506 184.919 14.8107C185.99 15.7661 186.737 16.9356 187.195 18.2153C187.586 19.308 187.765 20.4815 187.756 21.6657C188.469 20.7318 189.318 19.9257 190.286 19.3107C191.38 18.6163 192.622 18.1682 193.991 18.0565C196.716 12.7841 195.698 10.5691 194.568 8.10915C194.14 7.17793 193.699 6.21576 193.407 5.05846L193.405 5.05981ZM183.967 14.0773C185.096 8.61379 187.532 7.33134 189.935 6.06773C190.412 5.81609 190.889 5.56579 191.349 5.27916C190.707 5.4218 190.041 5.5012 189.379 5.57925C189.097 5.61289 188.818 5.64519 188.678 5.66403C186.573 5.94393 184.892 6.74596 183.697 7.89653C182.456 9.09151 181.733 10.6714 181.597 12.4396C181.597 12.4477 181.596 12.4571 181.595 12.4652C182.094 12.9294 182.678 13.2833 183.258 13.6359C183.457 13.757 183.656 13.8781 183.788 13.9602C183.849 13.9979 183.909 14.0369 183.967 14.076V14.0773ZM194.952 6.31938C195.139 6.78499 195.342 7.22772 195.542 7.66373C196.751 10.2946 197.842 12.6711 195.198 18.0471C195.312 18.0538 195.427 18.0632 195.542 18.0754C195.806 18.1023 195.982 18.1238 196.159 18.144C196.779 18.218 197.405 18.292 198.029 18.257C198.986 16.8091 199.459 15.1377 199.308 13.4421C199.164 11.8165 198.444 10.16 197.025 8.64474C196.859 8.46576 196.697 8.30024 196.537 8.13337C195.974 7.55069 195.41 6.96397 194.952 6.31938ZM188.731 29.4734C190.615 28.919 192.401 27.9137 193.14 27.0108C193.329 26.7807 193.668 26.747 193.898 26.9354C194.128 27.1238 194.162 27.4629 193.973 27.693L193.969 27.6984C193.505 28.343 193.365 29.1921 193.436 30.0345C193.517 30.9859 193.866 31.9104 194.328 32.5268C194.612 32.5241 194.899 32.5147 195.186 32.4985C195.785 32.4649 196.388 32.3989 196.992 32.302C197.237 32.263 197.484 32.2173 197.732 32.1675C197.958 32.1217 198.192 32.0679 198.433 32.0087C198.467 31.9939 198.502 31.9804 198.537 31.9656C199.741 30.8298 200.685 29.429 201.138 27.8909C201.545 26.5115 201.558 25.0178 201.01 23.5025C200.963 23.372 200.881 23.154 200.799 22.9374C200.729 22.7516 200.658 22.5646 200.589 22.3775L197.484 22.9158C197.465 22.9185 197.447 22.9212 197.426 22.9226C197.13 22.9441 196.873 22.7207 196.852 22.4246L196.623 19.2811C196.424 19.2596 196.226 19.2367 196.028 19.2138C195.798 19.1869 195.569 19.16 195.428 19.1452C193.7 18.9689 192.158 19.3955 190.856 20.2204C189.42 21.1314 188.271 22.5296 187.483 24.1444C188.274 25.5238 188.758 27.2126 188.734 29.2217C188.733 29.3065 188.731 29.3913 188.729 29.4761L188.731 29.4734ZM193.047 32.4904C192.688 31.8001 192.435 30.9658 192.364 30.122C192.333 29.7519 192.335 29.3792 192.377 29.0118C191.345 29.6604 190.031 30.2418 188.707 30.5957C188.081 30.7626 187.449 30.8796 186.838 30.9294C188.672 31.7772 190.785 32.3464 193.047 32.4904ZM179.747 0.0161514C179.98 0.0753593 180.151 0.286633 180.151 0.536934V5.86454C180.151 6.11483 179.978 6.32611 179.747 6.38532C179.743 6.38667 179.739 6.38801 179.734 6.38801C179.729 6.38935 179.725 6.38935 179.72 6.3907C179.716 6.39205 179.712 6.39205 179.707 6.39339C179.703 6.39474 179.697 6.39474 179.693 6.39608C179.689 6.39743 179.684 6.39743 179.68 6.39743C179.676 6.39743 179.67 6.39878 179.666 6.39878C179.662 6.39878 179.657 6.40012 179.653 6.40012C179.649 6.40012 179.643 6.40012 179.639 6.40147C179.635 6.40147 179.63 6.40147 179.626 6.40147C179.622 6.40147 179.616 6.40147 179.612 6.40147C179.608 6.40147 179.603 6.40147 179.599 6.40147C179.595 6.40147 179.59 6.40147 179.585 6.40147C179.581 6.40147 179.576 6.40147 179.572 6.40012C179.568 6.40012 179.563 6.39878 179.559 6.39878C179.555 6.39878 179.549 6.39743 179.545 6.39743C179.541 6.39743 179.536 6.39608 179.532 6.39608C179.528 6.39474 179.522 6.39474 179.518 6.39339C179.514 6.39205 179.509 6.39205 179.505 6.3907C179.501 6.38935 179.497 6.38935 179.491 6.38801C179.487 6.38667 179.483 6.38532 179.478 6.38532C179.245 6.32611 179.074 6.11483 179.074 5.86454V0.536934C179.074 0.286633 179.246 0.0753593 179.478 0.0161514C179.482 0.0148048 179.486 0.0134583 179.491 0.0134583C179.495 0.0121117 179.499 0.0121117 179.505 0.0107651C179.509 0.0094223 179.513 0.0094223 179.518 0.00807571C179.522 0.00672913 179.528 0.00672913 179.532 0.00538254C179.536 0.00403976 179.541 0.00403976 179.545 0.00403976C179.549 0.00403976 179.555 0.00269318 179.559 0.00269318C179.563 0.00269318 179.568 0.00134659 179.572 0.00134659C179.576 0.00134659 179.581 0.00134659 179.585 0C179.59 0 179.595 0 179.599 0C179.603 0 179.608 0 179.612 0C179.616 0 179.622 0 179.626 0C179.63 0 179.635 0 179.639 0C179.643 0 179.649 0 179.653 0.00134659C179.657 0.00134659 179.662 0.00269318 179.666 0.00269318C179.67 0.00269318 179.676 0.00403976 179.68 0.00403976C179.684 0.00403976 179.689 0.00538254 179.693 0.00538254C179.697 0.00672913 179.703 0.00672913 179.707 0.00807571C179.711 0.0094223 179.716 0.0094223 179.72 0.0107651C179.724 0.0121117 179.728 0.0121117 179.734 0.0134583C179.738 0.0148048 179.742 0.0161514 179.747 0.0161514ZM197.71 19.3524L197.885 21.7558L200.259 21.3441C200.052 20.5582 199.961 19.7386 200.16 18.8438C199.339 19.2542 198.522 19.3645 197.709 19.3538L197.71 19.3524ZM180.133 17.5304C180.02 17.4173 179.865 17.3487 179.693 17.3487C179.521 17.3487 179.366 17.4187 179.253 17.5304C179.14 17.6434 179.071 17.7981 179.071 17.9704C179.071 18.1426 179.141 18.2974 179.253 18.4104C179.366 18.5235 179.521 18.5921 179.693 18.5921C179.865 18.5921 180.02 18.5221 180.133 18.4104C180.246 18.2974 180.315 18.1426 180.315 17.9704C180.315 17.7981 180.245 17.6434 180.133 17.5304ZM161.341 21.7558L161.516 19.3524C160.703 19.3632 159.886 19.2528 159.065 18.8424C159.264 19.7386 159.174 20.5582 158.965 21.3427L161.339 21.7545L161.341 21.7558ZM179.677 15.4217L181.297 13.6332C180.649 13.142 180.073 12.5513 179.677 11.7223C179.283 12.5513 178.705 13.142 178.057 13.6332L179.677 15.4217Z" fill="black"/>
<path d="M259.191 14.2415L257.262 16.3704C257.502 16.4551 257.717 16.5938 257.894 16.77C258.2 17.0769 258.392 17.5021 258.392 17.9704C258.392 18.4387 258.202 18.8639 257.894 19.1708C257.762 19.3026 257.608 19.413 257.439 19.4964C259.257 19.7063 261.315 20.5743 262.923 22.1353C263.16 22.3654 263.386 22.609 263.601 22.8687C263.783 21.4033 263.66 19.9203 263.18 18.5773C262.652 17.1038 261.689 15.7971 260.216 14.8713C260.004 14.738 259.853 14.6465 259.704 14.555C259.533 14.4514 259.362 14.3478 259.191 14.2415ZM256.17 30.3144C256.186 30.0184 256.439 29.791 256.735 29.8071C256.848 29.8138 256.952 29.8542 257.034 29.9188C257.176 30.009 257.275 30.1637 257.284 30.3441C257.293 30.5109 257.311 30.6751 257.338 30.8379C257.685 32.9991 259.463 35.2208 262.102 36.8626C264.784 38.5326 268.34 39.5849 272.186 39.3642C272.785 39.3306 273.388 39.2647 273.992 39.1678C274.237 39.1287 274.484 39.083 274.732 39.0332C274.958 38.9874 275.192 38.9336 275.433 38.8744C277.48 38.0185 279.729 37.6942 281.908 37.9634C284.002 38.2204 286.034 39.0251 287.764 40.426C287.978 40.5996 288.133 40.7288 288.288 40.8593C289.863 42.1767 291.464 43.5157 295.102 42.6235C295.39 42.5535 295.679 42.7312 295.749 43.0191C295.819 43.3071 295.641 43.5964 295.353 43.6664C291.189 44.6878 289.378 43.1726 287.598 41.6842C287.408 41.5254 287.219 41.368 287.086 41.2603C285.522 39.994 283.68 39.2673 281.776 39.0332C279.773 38.7869 277.707 39.0843 275.83 39.8716C275.796 39.8877 275.761 39.9012 275.724 39.9106C275.472 39.9738 275.212 40.0317 274.945 40.0869C274.682 40.1407 274.42 40.1878 274.159 40.2309C273.511 40.3345 272.872 40.4031 272.242 40.4394C268.161 40.6736 264.384 39.5526 261.531 37.7777C259.234 36.3485 257.526 34.4834 256.719 32.5416C255.909 34.4753 254.213 36.3337 251.932 37.7629C249.087 39.5459 245.319 40.6723 241.241 40.4394C240.614 40.4031 239.977 40.3345 239.333 40.2309C239.072 40.1891 238.809 40.1407 238.547 40.0869C238.279 40.0317 238.019 39.9738 237.767 39.9106C237.73 39.9012 237.693 39.8877 237.661 39.8716C235.784 39.0843 233.719 38.7869 231.716 39.0332C229.811 39.2673 227.969 39.994 226.405 41.2603C226.272 41.368 226.083 41.5268 225.894 41.6842C224.113 43.1739 222.302 44.6878 218.138 43.6664C217.85 43.5964 217.672 43.3071 217.742 43.0191C217.812 42.7312 218.102 42.5535 218.39 42.6235C222.027 43.5157 223.629 42.1767 225.203 40.8593C225.358 40.7301 225.513 40.6009 225.727 40.426C227.457 39.0238 229.49 38.2204 231.584 37.9634C233.762 37.6956 236.011 38.0185 238.058 38.8744C238.3 38.9336 238.533 38.9874 238.759 39.0332C239.007 39.0843 239.253 39.1287 239.499 39.1678C240.102 39.2647 240.703 39.3292 241.299 39.3629C245.145 39.5836 248.691 38.5245 251.364 36.8505C253.994 35.2034 255.763 32.9749 256.112 30.8097C256.139 30.6455 256.156 30.48 256.166 30.3118L256.17 30.3144ZM244.57 9.13592L243.934 9.35527L243.714 8.71875L244.351 8.4994L244.57 9.13592ZM247.204 16.7687L246.568 16.988L246.348 16.3515L246.985 16.1322L247.204 16.7687ZM246.327 14.224L245.69 14.4433L245.471 13.8068L246.107 13.5875L246.327 14.224ZM245.449 11.6793L244.813 11.8986L244.593 11.2621L245.23 11.0428L245.449 11.6793ZM269.354 9.35392L268.718 9.13457L268.937 8.49806L269.574 8.71741L269.354 9.35392ZM266.721 16.9867L266.084 16.7673L266.303 16.1308L266.94 16.3502L266.721 16.9867ZM267.598 14.442L266.961 14.2226L267.181 13.5861L267.817 13.8055L267.598 14.442ZM268.475 11.8973L267.839 11.6779L268.058 11.0414L268.695 11.2608L268.475 11.8973ZM223.199 22.9562L222.769 23.4729L222.252 23.0423L222.683 22.5256L223.199 22.9562ZM231.367 29.7681L230.951 29.4209L230.52 29.9377L230.936 30.2848L231.367 29.7681ZM229.401 28.1277L228.97 28.6444L228.453 28.2138L228.884 27.6971L229.401 28.1277ZM227.334 26.4039L226.903 26.9206L226.386 26.49L226.817 25.9732L227.334 26.4039ZM225.267 24.68L224.836 25.1968L224.319 24.7662L224.75 24.2494L225.267 24.68ZM240.338 23.6533L239.8 24.057L239.396 23.5187L239.934 23.115L240.338 23.6533ZM241.951 25.8077L241.413 26.2114L241.009 25.6731L241.548 25.2694L241.951 25.8077ZM290.562 23.4729L290.132 22.9562L290.648 22.5256L291.079 23.0423L290.562 23.4729ZM282.395 30.2848L282.811 29.9377L282.38 29.4209L281.964 29.7681L282.395 30.2848ZM284.361 28.6444L283.93 28.1277L284.447 27.6971L284.878 28.2138L284.361 28.6444ZM286.428 26.9206L285.997 26.4039L286.514 25.9732L286.945 26.49L286.428 26.9206ZM288.495 25.1968L288.065 24.68L288.581 24.2494L289.012 24.7662L288.495 25.1968ZM273.532 24.0556L272.993 23.6519L273.397 23.1136L273.935 23.5173L273.532 24.0556ZM271.918 26.2101L271.38 25.8064L271.783 25.2681L272.322 25.6718L271.918 26.2101ZM256.693 36.6446C257.354 36.6446 257.951 36.9124 258.385 37.3457C258.818 37.779 259.086 38.3765 259.086 39.0372C259.086 39.698 258.818 40.2955 258.385 40.7288C257.951 41.1621 257.354 41.4299 256.693 41.4299C256.032 41.4299 255.435 41.1621 255.001 40.7288C254.568 40.2955 254.3 39.698 254.3 39.0372C254.3 38.3765 254.568 37.779 255.001 37.3457C255.435 36.9124 256.032 36.6446 256.693 36.6446ZM257.623 38.106C257.385 37.8678 257.057 37.7211 256.693 37.7211C256.33 37.7211 256.001 37.8678 255.763 38.106C255.525 38.3442 255.378 38.6726 255.378 39.0359C255.378 39.3992 255.525 39.7276 255.763 39.9658C256.001 40.204 256.33 40.3506 256.693 40.3506C257.057 40.3506 257.385 40.204 257.623 39.9658C257.861 39.7276 258.008 39.3992 258.008 39.0359C258.008 38.6726 257.861 38.3442 257.623 38.106ZM256.655 20.5178C256.577 20.5191 256.487 20.5218 256.385 20.5286C254.73 20.6228 252.778 21.3669 251.247 22.7987C249.718 24.2292 248.612 26.3514 248.647 29.2069C248.648 29.3321 248.652 29.468 248.66 29.6133C250.089 29.8865 251.457 29.865 252.329 29.3307C254.426 27.7724 255.813 25.8346 256.117 23.9453C256.144 23.7811 256.162 23.6156 256.171 23.4474C256.187 23.1513 256.44 22.9239 256.736 22.94C256.849 22.9468 256.953 22.9871 257.035 23.0517C257.178 23.1419 257.276 23.2967 257.285 23.477C257.295 23.6438 257.312 23.808 257.339 23.9708C257.65 25.906 259.109 27.8895 261.304 29.4613C262.125 29.9565 263.352 29.9848 264.647 29.7385C264.657 29.5582 264.664 29.3805 264.666 29.2069C264.699 26.4214 263.647 24.3328 262.174 22.9037C260.7 21.4719 258.809 20.6981 257.167 20.5447C256.992 20.5286 256.821 20.5191 256.655 20.5164V20.5178ZM247.577 29.3536C247.575 29.3092 247.575 29.2648 247.574 29.2191C247.55 27.2503 248.014 25.5897 248.779 24.2252C247.989 22.5754 246.825 21.1449 245.364 20.2177C244.342 19.5677 243.168 19.1654 241.873 19.1102C241.845 19.1115 241.818 19.1102 241.79 19.1075C241.466 19.0967 241.132 19.1089 240.793 19.1438C240.651 19.1586 240.423 19.1856 240.193 19.2125C239.995 19.2353 239.797 19.2596 239.598 19.2798L239.369 22.4233C239.347 22.7194 239.09 22.9427 238.794 22.9212C238.775 22.9199 238.755 22.9172 238.736 22.9145L235.632 22.3762C235.563 22.5632 235.493 22.7503 235.422 22.936C235.34 23.1527 235.258 23.3693 235.21 23.5012C234.665 25.0111 234.637 26.4819 234.997 27.837C235.384 29.2971 236.223 30.628 237.352 31.7355C237.591 31.8189 237.828 31.9104 238.062 32.0087C238.304 32.0679 238.537 32.1217 238.763 32.1675C239.011 32.2186 239.257 32.263 239.504 32.302C240.106 32.3989 240.707 32.4635 241.303 32.4972C241.554 32.512 241.805 32.52 242.054 32.5241C242.517 31.9077 242.864 30.9846 242.945 30.0345C243.016 29.1921 242.876 28.3444 242.412 27.6984L242.408 27.693C242.219 27.4629 242.253 27.1238 242.483 26.9354C242.713 26.747 243.052 26.7807 243.241 27.0108C243.953 27.8801 245.704 28.818 247.577 29.3523V29.3536ZM249.622 22.9777C249.901 22.6319 250.2 22.3116 250.515 22.0156C252.122 20.5124 254.147 19.6808 255.933 19.4883C255.769 19.4063 255.621 19.2986 255.493 19.1708C255.186 18.8639 254.995 18.4387 254.995 17.9704C254.995 17.5021 255.185 17.0769 255.493 16.77C255.662 16.6005 255.868 16.4659 256.098 16.3798L254.162 14.2415C253.992 14.3478 253.821 14.4514 253.649 14.555C253.498 14.6465 253.349 14.738 253.136 14.8713C251.64 15.8119 250.634 17.128 250.075 18.6109C249.561 19.9755 249.422 21.484 249.622 22.9791V22.9777ZM256.723 25.6718C256.04 27.3028 254.727 28.8799 252.965 30.1906C252.948 30.2054 252.929 30.2189 252.91 30.231C252.599 30.4598 252.275 30.6818 251.937 30.8931C249.092 32.6761 245.324 33.8025 241.246 33.5697C240.619 33.5333 239.983 33.4647 239.338 33.3611C239.077 33.3194 238.814 33.2709 238.552 33.2171C238.284 33.1619 238.025 33.1041 237.773 33.0408C237.735 33.0314 237.699 33.0179 237.667 33.0018C237.419 32.8982 237.167 32.8026 236.913 32.7152C236.898 32.7111 236.885 32.7057 236.871 32.7004C235.215 32.1406 233.445 31.9495 231.721 32.1621C229.817 32.3962 227.974 33.1229 226.41 34.3892C226.277 34.4969 226.089 34.6557 225.899 34.8131C224.119 36.3028 222.307 37.8167 218.143 36.7953C217.855 36.7253 217.678 36.436 217.748 36.148C217.818 35.8601 218.107 35.6824 218.395 35.7524C220.085 36.1669 221.336 36.0996 222.349 35.7766C220.738 34.8642 219.454 33.5159 218.707 31.8351C217.95 30.1301 217.744 28.0927 218.31 25.8333C218.361 25.6314 218.426 25.3838 218.492 25.1362C219.003 23.2159 219.521 21.266 217.705 19.4668C217.527 19.3228 217.347 19.164 217.165 18.9891C216.951 18.7832 216.944 18.4441 217.15 18.2301C217.344 18.0283 217.658 18.0108 217.871 18.1817C218.071 18.3405 218.254 18.5006 218.421 18.6607C220.438 20.2271 222.303 19.4628 224.139 18.7092C224.386 18.6069 224.634 18.506 224.809 18.4374C227.009 17.5721 229.097 17.4483 230.915 17.9314C232.539 18.362 233.941 19.273 235.015 20.5689C235.167 19.5691 235.021 18.4939 234.134 17.2424C233.989 17.0688 233.843 16.8817 233.698 16.6799C233.524 16.439 233.579 16.1039 233.82 15.9317C234.049 15.7675 234.364 15.8092 234.543 16.0205C234.709 16.2156 234.858 16.408 234.995 16.5964C235.586 17.2801 236.179 17.6986 236.774 17.9448C236.045 16.5197 235.706 14.9453 235.848 13.3466C236.014 11.4882 236.824 9.60691 238.417 7.90595C238.574 7.73909 238.743 7.5628 238.914 7.38651C240.293 5.95604 241.693 4.50269 240.978 2.0468C240.892 1.83418 240.813 1.6081 240.739 1.36723C240.653 1.08329 240.813 0.784542 241.097 0.698418C241.363 0.617676 241.645 0.754936 241.748 1.00793C241.845 1.24342 241.927 1.47219 241.996 1.69288C242.999 4.03843 245.001 4.27527 246.973 4.50808C247.165 4.53095 247.359 4.55383 247.687 4.59689C250.033 4.90909 251.918 5.81474 253.274 7.12007C254.486 8.28813 255.272 9.76974 255.58 11.4276C255.891 10.8692 256.096 10.1761 256.139 9.28125C256.131 9.05248 256.131 8.81295 256.141 8.56131C256.152 8.26525 256.4 8.03379 256.697 8.04456C256.981 8.05398 257.205 8.28275 257.214 8.56131C257.223 8.81295 257.223 9.05248 257.217 9.28125C257.256 10.0846 257.424 10.7238 257.682 11.25C258.012 9.66343 258.783 8.24507 259.954 7.11872C261.309 5.8134 263.195 4.90775 265.54 4.59555C265.869 4.55248 266.061 4.52961 266.255 4.50673C268.226 4.27393 270.229 4.03574 271.232 1.69154C271.3 1.47084 271.382 1.24208 271.479 1.00658C271.583 0.75359 271.864 0.616329 272.131 0.697071C272.415 0.783195 272.573 1.08194 272.489 1.36588C272.415 1.60676 272.335 1.83284 272.249 2.04546C271.533 4.50135 272.934 5.9547 274.313 7.38517C274.484 7.56145 274.654 7.73909 274.81 7.90461C276.403 9.60556 277.214 11.4868 277.379 13.3452C277.52 14.9439 277.183 16.5184 276.453 17.9435C277.048 17.6972 277.642 17.2787 278.232 16.5951C278.368 16.4067 278.519 16.2156 278.684 16.0191C278.863 15.8065 279.178 15.7661 279.407 15.9303C279.648 16.1039 279.702 16.439 279.53 16.6785C279.384 16.8804 279.239 17.0674 279.094 17.241C278.207 18.4925 278.059 19.5677 278.212 20.5676C279.286 19.273 280.688 18.362 282.313 17.93C284.131 17.4469 286.22 17.5707 288.419 18.436C288.592 18.5046 288.84 18.6056 289.089 18.7078C290.924 19.4601 292.79 20.2258 294.807 18.6594C294.974 18.4993 295.157 18.3405 295.356 18.1803C295.57 18.0094 295.884 18.0269 296.077 18.2288C296.283 18.4427 296.277 18.7819 296.063 18.9877C295.881 19.1627 295.702 19.3215 295.523 19.4655C293.706 21.2647 294.224 23.2146 294.736 25.1349C294.802 25.3825 294.867 25.6301 294.917 25.8319C295.484 28.0914 295.279 30.1287 294.52 31.8337C293.788 33.4795 292.542 34.8064 290.98 35.7174C292.022 36.0888 293.317 36.1897 295.106 35.751C295.394 35.6811 295.683 35.8587 295.753 36.1467C295.823 36.4347 295.645 36.724 295.357 36.794C291.193 37.8153 289.382 36.3001 287.602 34.8118C287.412 34.653 287.223 34.4955 287.09 34.3879C285.526 33.1216 283.684 32.3949 281.78 32.1607C279.777 31.9145 277.711 32.2119 275.834 32.9991C275.8 33.0153 275.766 33.0287 275.728 33.0381C275.476 33.1014 275.216 33.1592 274.949 33.2144C274.686 33.2682 274.424 33.3153 274.163 33.3584C273.515 33.462 272.876 33.5307 272.246 33.567C268.165 33.8011 264.388 32.6802 261.535 30.9052C259.238 29.4761 257.53 27.6109 256.723 25.6691V25.6718ZM223.532 35.2437C224.146 34.8817 224.678 34.435 225.209 33.9909C225.363 33.8617 225.518 33.7325 225.732 33.5576C225.843 33.4674 225.956 33.3799 226.069 33.2952C221.38 30.3427 221.015 27.8289 220.614 25.0568C220.489 24.1942 220.361 23.3047 220.077 22.3722C220.069 23.3855 219.799 24.4015 219.531 25.4107C219.474 25.6247 219.418 25.8373 219.353 26.0944C218.849 28.1075 219.023 29.9067 219.687 31.3977C220.407 33.0166 221.707 34.2856 223.339 35.0836C223.417 35.1213 223.482 35.1764 223.532 35.241V35.2437ZM227.05 32.6385C228.459 31.7974 230.006 31.2901 231.589 31.0949C232.884 30.9362 234.204 30.9859 235.492 31.2322C234.788 30.2848 234.258 29.2325 233.96 28.1089C233.744 27.2947 233.649 26.4442 233.699 25.5709C229.943 21.632 227.218 21.7531 224.563 21.8702C223.392 21.9227 222.233 21.9738 220.999 21.7222C221.381 22.8499 221.533 23.8955 221.679 24.9074C222.053 27.4952 222.393 29.834 227.05 32.6385ZM243.331 32.4958C245.706 32.3586 247.917 31.749 249.815 30.8379C249.147 30.7989 248.452 30.6845 247.763 30.5136C246.402 30.1758 245.052 29.6133 243.998 28.9782C244.046 29.355 244.05 29.7412 244.016 30.122C243.943 30.9685 243.69 31.8055 243.33 32.4958H243.331ZM292.27 21.7235C291.037 21.9752 289.879 21.924 288.707 21.8716C286.035 21.7531 283.295 21.632 279.505 25.6395C279.532 26.5169 279.411 27.3728 279.17 28.1923C278.838 29.32 278.274 30.379 277.55 31.3291C278.981 31.0021 280.461 30.9187 281.909 31.0963C283.449 31.286 284.954 31.7705 286.333 32.5712C290.883 29.7964 291.219 27.475 291.591 24.9088C291.737 23.8982 291.888 22.8512 292.27 21.7235ZM279.343 24.2736C283.152 20.5514 285.987 20.6779 288.752 20.8004C289.833 20.8488 290.901 20.8959 292.006 20.6793C290.865 20.6026 289.766 20.1531 288.676 19.705C288.482 19.6256 288.289 19.5462 288.023 19.4412C286.045 18.6634 284.186 18.5477 282.581 18.9729C280.927 19.4116 279.535 20.4317 278.559 21.8958C278.637 22.1178 278.721 22.3372 278.804 22.5579C278.868 22.7234 278.929 22.8876 279.02 23.1392C279.157 23.5187 279.263 23.8968 279.341 24.2723L279.343 24.2736ZM293.149 22.5148C292.895 23.3976 292.772 24.2413 292.654 25.0595C292.255 27.8074 291.895 30.301 287.323 33.2198C287.472 33.3288 287.619 33.4418 287.764 33.5603C287.978 33.7339 288.133 33.863 288.288 33.9936C288.768 34.3959 289.253 34.7996 289.795 35.1428C289.822 35.1226 289.852 35.1038 289.884 35.089C291.516 34.2923 292.817 33.0233 293.536 31.4031C294.2 29.9121 294.375 28.1129 293.87 26.0997C293.806 25.8427 293.749 25.6287 293.693 25.4161C293.437 24.4526 293.179 23.4837 293.149 22.5161V22.5148ZM221.248 20.6766C222.357 20.8959 223.431 20.8475 224.514 20.8004C227.27 20.6779 230.094 20.5528 233.884 24.2333C233.964 23.8713 234.069 23.5066 234.203 23.1406C234.293 22.8889 234.356 22.7247 234.418 22.5592C234.501 22.3399 234.585 22.1192 234.663 21.8971C233.687 20.433 232.296 19.4143 230.642 18.9743C229.037 18.5477 227.178 18.6634 225.199 19.4426C224.933 19.5476 224.74 19.6269 224.547 19.7063C223.466 20.1491 222.379 20.5958 221.248 20.6779V20.6766ZM244.798 5.26167C245.267 5.55637 245.753 5.81205 246.24 6.06773C248.658 7.33942 251.111 8.62994 252.229 14.1823C252.338 14.1069 252.45 14.0329 252.564 13.9616C252.696 13.8781 252.895 13.7584 253.095 13.6373C253.634 13.3103 254.177 12.9806 254.652 12.5634C254.639 12.5244 254.631 12.484 254.629 12.4409C254.493 10.6727 253.77 9.09285 252.529 7.89788C251.334 6.74596 249.653 5.94528 247.549 5.66537C247.407 5.64653 247.127 5.61289 246.847 5.58059C246.157 5.4985 245.464 5.41642 244.799 5.26301L244.798 5.26167ZM251.286 14.9359C251.279 14.913 251.272 14.8888 251.268 14.8645C250.291 9.41179 247.998 8.20604 245.74 7.0178C244.712 6.47683 243.692 5.9399 242.771 5.05846C242.479 6.21442 242.038 7.17793 241.61 8.10915C240.481 10.5677 239.463 12.7827 242.186 18.0525C243.573 18.1561 244.834 18.6069 245.942 19.3107C246.905 19.923 247.752 20.725 248.462 21.6536C248.464 20.4761 248.663 19.3147 249.071 18.2315C249.534 17.0015 250.266 15.8725 251.286 14.9359ZM240.98 18.0498C238.333 12.6724 239.424 10.2946 240.633 7.66373C240.81 7.27617 240.991 6.88322 241.162 6.47279C240.725 7.05817 240.205 7.59779 239.688 8.13337C239.528 8.30024 239.368 8.46576 239.199 8.64474C237.781 10.1586 237.061 11.8165 236.917 13.4421C236.766 15.1377 237.239 16.8091 238.195 18.257C238.821 18.2907 239.446 18.2167 240.066 18.144C240.242 18.1225 240.419 18.1023 240.682 18.0754C240.782 18.0646 240.88 18.0565 240.978 18.0498H240.98ZM270.405 5.05981C269.485 5.94124 268.463 6.47817 267.436 7.01914C265.186 8.20335 262.903 9.40506 261.919 14.8107C262.99 15.7661 263.737 16.9356 264.195 18.2153C264.586 19.308 264.765 20.4815 264.756 21.6657C265.469 20.7318 266.318 19.9257 267.286 19.3107C268.38 18.6163 269.622 18.1682 270.991 18.0565C273.716 12.7841 272.698 10.5691 271.568 8.10915C271.14 7.17793 270.699 6.21576 270.407 5.05846L270.405 5.05981ZM260.967 14.0773C262.096 8.61379 264.532 7.33134 266.935 6.06773C267.412 5.81609 267.889 5.56579 268.349 5.27916C267.707 5.4218 267.041 5.5012 266.379 5.57925C266.097 5.61289 265.818 5.64519 265.678 5.66403C263.573 5.94393 261.892 6.74596 260.697 7.89653C259.456 9.09151 258.733 10.6714 258.597 12.4396C258.597 12.4477 258.596 12.4571 258.595 12.4652C259.094 12.9294 259.678 13.2833 260.258 13.6359C260.457 13.757 260.656 13.8781 260.788 13.9602C260.849 13.9979 260.909 14.0369 260.967 14.076V14.0773ZM271.952 6.31938C272.139 6.78499 272.342 7.22772 272.542 7.66373C273.751 10.2946 274.842 12.6711 272.198 18.0471C272.312 18.0538 272.427 18.0632 272.542 18.0754C272.806 18.1023 272.982 18.1238 273.159 18.144C273.779 18.218 274.405 18.292 275.029 18.257C275.986 16.8091 276.459 15.1377 276.308 13.4421C276.164 11.8165 275.444 10.16 274.025 8.64474C273.859 8.46576 273.697 8.30024 273.537 8.13337C272.974 7.55069 272.41 6.96397 271.952 6.31938ZM265.731 29.4734C267.615 28.919 269.401 27.9137 270.14 27.0108C270.329 26.7807 270.668 26.747 270.898 26.9354C271.128 27.1238 271.162 27.4629 270.973 27.693L270.969 27.6984C270.505 28.343 270.365 29.1921 270.436 30.0345C270.517 30.9859 270.866 31.9104 271.328 32.5268C271.612 32.5241 271.899 32.5147 272.186 32.4985C272.785 32.4649 273.388 32.3989 273.992 32.302C274.237 32.263 274.484 32.2173 274.732 32.1675C274.958 32.1217 275.192 32.0679 275.433 32.0087C275.467 31.9939 275.502 31.9804 275.537 31.9656C276.741 30.8298 277.685 29.429 278.138 27.8909C278.545 26.5115 278.558 25.0178 278.01 23.5025C277.963 23.372 277.881 23.154 277.799 22.9374C277.729 22.7516 277.658 22.5646 277.589 22.3775L274.484 22.9158C274.465 22.9185 274.447 22.9212 274.426 22.9226C274.13 22.9441 273.873 22.7207 273.852 22.4246L273.623 19.2811C273.424 19.2596 273.226 19.2367 273.028 19.2138C272.798 19.1869 272.569 19.16 272.428 19.1452C270.7 18.9689 269.158 19.3955 267.856 20.2204C266.42 21.1314 265.271 22.5296 264.483 24.1444C265.274 25.5238 265.758 27.2126 265.734 29.2217C265.733 29.3065 265.731 29.3913 265.729 29.4761L265.731 29.4734ZM270.047 32.4904C269.688 31.8001 269.435 30.9658 269.364 30.122C269.333 29.7519 269.335 29.3792 269.377 29.0118C268.345 29.6604 267.031 30.2418 265.707 30.5957C265.081 30.7626 264.449 30.8796 263.838 30.9294C265.672 31.7772 267.785 32.3464 270.047 32.4904ZM256.747 0.0161514C256.98 0.0753593 257.151 0.286633 257.151 0.536934V5.86454C257.151 6.11483 256.978 6.32611 256.747 6.38532C256.743 6.38667 256.739 6.38801 256.734 6.38801C256.729 6.38935 256.725 6.38935 256.72 6.3907C256.716 6.39205 256.712 6.39205 256.707 6.39339C256.703 6.39474 256.697 6.39474 256.693 6.39608C256.689 6.39743 256.684 6.39743 256.68 6.39743C256.676 6.39743 256.67 6.39878 256.666 6.39878C256.662 6.39878 256.657 6.40012 256.653 6.40012C256.649 6.40012 256.643 6.40012 256.639 6.40147C256.635 6.40147 256.63 6.40147 256.626 6.40147C256.622 6.40147 256.616 6.40147 256.612 6.40147C256.608 6.40147 256.603 6.40147 256.599 6.40147C256.595 6.40147 256.59 6.40147 256.585 6.40147C256.581 6.40147 256.576 6.40147 256.572 6.40012C256.568 6.40012 256.563 6.39878 256.559 6.39878C256.555 6.39878 256.549 6.39743 256.545 6.39743C256.541 6.39743 256.536 6.39608 256.532 6.39608C256.528 6.39474 256.522 6.39474 256.518 6.39339C256.514 6.39205 256.509 6.39205 256.505 6.3907C256.501 6.38935 256.497 6.38935 256.491 6.38801C256.487 6.38667 256.483 6.38532 256.478 6.38532C256.245 6.32611 256.074 6.11483 256.074 5.86454V0.536934C256.074 0.286633 256.246 0.0753593 256.478 0.0161514C256.482 0.0148048 256.486 0.0134583 256.491 0.0134583C256.495 0.0121117 256.499 0.0121117 256.505 0.0107651C256.509 0.0094223 256.513 0.0094223 256.518 0.00807571C256.522 0.00672913 256.528 0.00672913 256.532 0.00538254C256.536 0.00403976 256.541 0.00403976 256.545 0.00403976C256.549 0.00403976 256.555 0.00269318 256.559 0.00269318C256.563 0.00269318 256.568 0.00134659 256.572 0.00134659C256.576 0.00134659 256.581 0.00134659 256.585 0C256.59 0 256.595 0 256.599 0C256.603 0 256.608 0 256.612 0C256.616 0 256.622 0 256.626 0C256.63 0 256.635 0 256.639 0C256.643 0 256.649 0 256.653 0.00134659C256.657 0.00134659 256.662 0.00269318 256.666 0.00269318C256.67 0.00269318 256.676 0.00403976 256.68 0.00403976C256.684 0.00403976 256.689 0.00538254 256.693 0.00538254C256.697 0.00672913 256.703 0.00672913 256.707 0.00807571C256.711 0.0094223 256.716 0.0094223 256.72 0.0107651C256.724 0.0121117 256.728 0.0121117 256.734 0.0134583C256.738 0.0148048 256.742 0.0161514 256.747 0.0161514ZM274.71 19.3524L274.885 21.7558L277.259 21.3441C277.052 20.5582 276.961 19.7386 277.16 18.8438C276.339 19.2542 275.522 19.3645 274.709 19.3538L274.71 19.3524ZM257.133 17.5304C257.02 17.4173 256.865 17.3487 256.693 17.3487C256.521 17.3487 256.366 17.4187 256.253 17.5304C256.14 17.6434 256.071 17.7981 256.071 17.9704C256.071 18.1426 256.141 18.2974 256.253 18.4104C256.366 18.5235 256.521 18.5921 256.693 18.5921C256.865 18.5921 257.02 18.5221 257.133 18.4104C257.246 18.2974 257.315 18.1426 257.315 17.9704C257.315 17.7981 257.245 17.6434 257.133 17.5304ZM238.341 21.7558L238.516 19.3524C237.703 19.3632 236.886 19.2528 236.065 18.8424C236.264 19.7386 236.174 20.5582 235.965 21.3427L238.339 21.7545L238.341 21.7558ZM256.677 15.4217L258.297 13.6332C257.649 13.142 257.073 12.5513 256.677 11.7223C256.283 12.5513 255.705 13.142 255.057 13.6332L256.677 15.4217Z" fill="black"/>
</svg>
