<svg width="282" height="44" viewBox="0 0 282 44" fill="none" xmlns="http://www.w3.org/2000/svg">
<path d="M10.9604 6.98848C11.4631 7.23986 11.9659 7.49125 12.4184 7.84319C14.1278 8.99955 15.3847 10.4576 16.1389 12.4184C16.2394 12.6698 16.34 12.9211 16.2394 13.1223C15.9378 14.2786 15.8372 15.5355 15.0328 16.5411C14.1781 17.6472 14.3289 18.703 15.5356 19.4069C16.2394 19.8593 16.893 20.2616 16.893 21.2671C16.893 22.2726 16.0383 22.876 15.1333 22.4235C13.977 21.8201 13.1726 20.8649 13.072 19.5074C12.9212 17.6472 13.0217 15.7869 14.1278 14.1781C14.2786 13.9267 14.3792 13.5747 14.53 13.3234C14.7814 12.8709 14.6809 12.4687 14.3792 12.1167C13.977 11.6642 13.5748 11.2117 13.1223 10.8095C12.4184 10.1056 11.7145 9.40177 11.0106 8.69789C10.4576 8.04429 10.4576 7.84319 10.9604 6.98848Z" fill="black"/>
<path d="M24.8367 21.6693C24.9373 21.971 25.1384 22.2224 25.1887 22.524C25.3898 23.8815 25.3898 25.239 24.8367 26.4959C24.5351 27.25 24.5351 27.5517 25.2389 28.0042C25.792 28.3561 26.345 28.6578 26.9986 28.7583C28.5572 29.1103 29.4622 30.3169 29.2108 32.2274C29.1605 32.5291 29.1102 32.7805 28.9594 33.0319C28.6578 33.6352 28.155 33.7358 27.803 33.233C27.0992 32.2274 26.0936 31.8755 25.0378 31.6241C23.429 31.2722 22.9765 29.9147 22.4737 28.6075C22.4234 28.4567 22.4737 28.2556 22.524 28.1047C22.6245 27.8534 22.6748 27.5517 22.8256 27.3003C23.5798 25.8423 24.0323 24.334 24.1831 22.7251C24.2334 22.3732 24.4345 22.0213 24.5853 21.6693C24.6356 21.6693 24.7362 21.6693 24.8367 21.6693Z" fill="black"/>
<path d="M15.3848 1.40775C16.0886 3.16744 17.9489 3.92159 19.608 3.01661C20.3119 2.66467 21.0158 2.31273 21.8202 2.36301C22.9263 2.46356 23.9318 3.16744 24.1329 4.1227C24.2838 4.82658 24.2838 5.58073 23.6302 6.2846C23.4291 6.03322 23.2782 5.88239 23.1777 5.68128C22.323 4.42436 21.1666 4.17298 19.8594 4.92713C19.5075 5.12824 19.1555 5.37962 18.8036 5.68128C18.4014 6.0835 17.8986 6.23433 17.3456 6.23433C16.0384 6.23433 14.9323 5.68128 14.0776 4.67574C13.7759 4.32381 13.8262 3.77076 13.7759 3.26799C13.7256 3.01661 13.8262 2.76523 13.8765 2.51384C13.9267 1.60886 14.2787 1.3072 15.3848 1.40775Z" fill="black"/>
<path d="M31.4733 8.19512C32.1772 6.78737 31.1214 5.37962 30.0153 4.97741C29.6633 4.82658 29.2611 4.72602 28.9092 4.57519C28.507 4.42436 28.4064 4.1227 28.6075 3.72049C28.9594 3.01661 29.4119 2.8155 30.1661 3.06689C30.3672 3.11716 30.5683 3.21772 30.7694 3.26799C32.5794 4.07242 33.2833 5.17851 32.9816 7.13931C32.7302 8.74817 33.2833 9.90454 34.4396 10.9101C34.7413 11.1615 35.0932 11.2117 35.4452 11.4128C35.7468 11.5637 36.0485 11.6139 36.2999 11.8151C36.6518 12.1167 36.6518 12.4687 36.4004 12.8206C35.6463 13.8764 34.138 14.53 32.6799 12.9714C32.2274 12.4687 31.775 11.8653 31.423 11.262C31.2219 10.9603 31.1214 10.5079 31.1716 10.1559C31.2722 9.45204 31.423 8.74817 31.4733 8.19512Z" fill="black"/>
<path d="M7.5918 9.15038C9.1001 10.5581 9.35149 12.72 8.09456 14.1781C7.39069 15.0328 6.48571 15.2842 5.42989 15.0328C4.92712 14.9322 4.47463 14.7814 3.97186 14.6306C3.4691 14.4295 3.16744 14.53 2.91605 15.0328C2.51384 15.7869 2.06135 16.5411 1.70941 17.2952C1.55858 17.5969 1.55858 17.9991 1.40775 18.3008C1.30719 18.5521 1.15636 18.9041 1.00553 18.9544C0.603318 19.0549 0.40221 18.703 0.351933 18.3008C0.201103 17.2952 0.301656 16.2897 0.854702 15.3847C1.25692 14.6808 1.80996 14.0272 2.21218 13.3736C2.8155 12.4184 3.61993 12.0664 4.72602 12.2173C5.32934 12.2675 5.93266 12.2675 6.53598 12.1167C7.39069 11.9156 7.44097 11.7648 7.34041 10.9101C7.29014 10.3068 7.13931 9.70343 7.5918 9.15038Z" fill="black"/>
<path d="M29.9147 16.34C29.5125 17.1947 28.8589 17.4461 28.2053 17.5969C27.6523 17.7477 27.0992 17.8483 26.5462 17.9991C25.6412 18.3008 24.8368 18.0494 24.2335 17.3455C23.781 16.7422 23.429 16.0383 23.0771 15.3344C22.876 14.9322 22.7754 14.4294 22.524 14.0775C21.6191 12.9714 21.6191 12.5189 20.1108 13.2228C19.9599 13.2731 19.7588 13.2731 19.608 13.2731C19.5577 13.1725 19.4572 13.1223 19.4572 13.072C19.5577 11.4128 22.9263 10.5079 23.9821 11.7648C24.6859 12.6195 25.4904 13.3736 25.5406 14.5803C25.5406 14.7814 25.6412 14.9825 25.7418 15.1836C26.144 16.2394 26.697 16.5411 27.8031 16.4908C28.507 16.4908 29.1103 16.3902 29.9147 16.34Z" fill="black"/>
<path d="M42.4337 14.2786C42.7856 15.3847 42.484 16.1389 42.0818 16.7422C41.5287 17.5969 40.8751 18.3008 40.2215 19.0549C40.0707 19.256 39.769 19.4069 39.4674 19.4571C38.5121 19.608 37.5568 19.8593 36.6519 19.8091C35.3447 19.7588 34.5905 20.6638 34.4397 21.6693C34.3894 22.0213 34.3391 22.3732 34.3894 22.7251C34.5905 23.5798 34.2386 24.334 33.9369 25.0881C33.8364 25.3395 33.5347 25.5909 33.2833 25.6412C32.8811 25.6915 32.68 25.3395 32.6297 24.9373C32.3281 22.2224 33.4341 19.4069 35.9983 17.9991C36.4005 17.798 36.9032 17.798 37.3557 17.7477C37.9088 17.6974 38.4116 17.7477 38.9646 17.6974C40.121 17.5466 41.0259 16.9433 41.5287 15.8875C41.7801 15.435 42.0315 14.9825 42.4337 14.2786Z" fill="black"/>
<path d="M18.3511 26.144C19.3064 27.0992 19.0047 28.7583 17.7478 29.3617C16.692 29.8644 15.5859 30.2667 14.3289 29.965C13.8765 29.8644 13.424 29.9147 12.9715 29.965C12.1168 30.1158 11.7648 30.5683 11.7146 31.423C11.6643 31.9761 11.7648 32.4788 11.6643 33.0319C11.6643 33.233 11.4129 33.4341 11.2118 33.5346C11.1112 33.5849 10.8598 33.3335 10.7593 33.1827C10.2062 32.0766 10.5582 29.7136 11.3123 28.8086C12.0665 27.9036 13.1223 27.6523 14.2284 27.8534C15.9881 28.1047 17.3456 27.5014 18.3511 26.144Z" fill="black"/>
<path d="M16.6416 34.8921C17.0941 34.4396 17.446 34.691 17.6974 34.8921C18.7532 35.7971 19.809 36.7021 19.7085 38.2104C19.6582 39.4673 20.3118 40.0204 21.3173 40.4226C21.7196 40.6237 22.1721 40.7242 22.6245 40.9253C23.077 41.1264 23.5798 41.2773 23.982 41.5789C24.9373 42.1823 24.8367 43.4895 23.7809 43.9419C23.6301 44.0425 23.3787 43.9922 23.1776 43.9419C21.7196 43.4895 20.4124 42.7856 19.3063 41.78C18.6527 41.1767 18.5521 40.322 18.703 39.6181C19.0549 37.9087 18.3007 36.7524 17.1946 35.596C17.0438 35.3446 16.893 35.1435 16.6416 34.8921Z" fill="black"/>
<path d="M34.0877 31.1214C34.8922 31.3727 35.7469 31.5738 36.5513 31.8252C37.2049 32.0263 37.8082 31.9761 38.4115 31.7247C39.7187 31.2219 41.5287 32.1772 42.132 33.3335C42.3834 33.8363 42.2829 34.4899 42.2829 35.0932C42.2829 35.3949 42.0315 35.6463 41.9309 35.9479C41.1768 35.3446 40.5232 34.7916 39.8696 34.2888C39.0149 33.6352 38.1099 33.1827 36.9032 33.7358C35.9982 34.138 35.043 33.8866 34.2386 33.4844C33.1827 32.9816 33.1827 32.0263 34.0877 31.1214Z" fill="black"/>
<path d="M0 26.5462C2.06135 26.2445 3.31827 24.9876 4.1227 23.2782C4.92713 21.6693 6.43543 20.8649 8.14485 21.3174C8.99955 21.5185 9.15038 21.7699 8.99955 22.876C8.59734 22.876 8.19512 22.876 7.79291 22.876C6.73709 22.8257 5.98294 23.2279 5.58073 24.1832C5.37962 24.6356 5.17851 25.0881 4.92713 25.5406C4.22325 26.9484 2.76523 27.3003 1.55858 27.9036C0.653599 28.4064 0.15083 27.9036 0 26.5462Z" fill="black"/>
<path d="M2.16194 43.1878C1.70945 42.3834 1.65917 41.6795 2.11166 41.0762C2.66471 40.2717 3.36858 39.5176 4.02218 38.7634C4.37412 38.4115 4.77633 38.4115 5.2791 38.4618C7.18962 38.6629 9.35153 37.6071 9.30125 35.4452C9.30125 35.2441 9.4018 35.0932 9.50236 34.8921C10.4073 35.7971 10.5582 36.3501 10.0554 37.3557C9.50236 38.5623 8.79848 39.5176 7.39073 39.6684C7.08907 39.7187 6.78741 39.9198 6.48575 39.9701C6.18408 40.0706 5.78187 40.1712 5.53049 40.0706C4.52495 39.6684 4.47467 39.9701 3.9719 40.674C3.51941 41.2773 3.21775 42.0314 2.81554 42.685C2.66471 42.8359 2.41332 42.9867 2.16194 43.1878Z" fill="black"/>
<path d="M45.1989 5.22879C44.7464 5.02768 44.3442 4.92713 43.9923 4.72602C42.9868 4.07242 42.0315 4.07242 41.026 4.7763C40.5232 5.12824 39.9701 5.37962 39.4171 5.58073C38.311 6.03322 37.1044 5.22879 37.1044 4.02215C37.1044 3.31827 37.9591 2.6144 38.5624 2.96633C39.6182 3.61993 40.5232 3.31827 41.4785 2.86578C42.2326 2.51384 42.9365 2.26246 43.8415 2.56412C44.9978 3.06689 45.4 3.67021 45.1989 5.22879Z" fill="black"/>
<path d="M38.9142 42.7353C38.6126 42.4839 38.4115 42.3834 38.3109 42.2325C38.0093 41.9309 37.7579 41.5789 37.5065 41.227C36.7523 40.0204 35.0932 40.0204 33.8866 40.674C33.1324 41.0762 32.328 41.4281 31.5235 41.5789C30.1661 41.8806 29.5125 41.1767 29.5628 39.7187C30.0655 39.417 30.6186 39.4673 31.0711 39.769C31.6744 40.1209 32.2777 40.0706 32.881 39.769C33.2832 39.5679 33.6855 39.4673 34.0374 39.2662C34.8921 38.7634 35.7468 38.864 36.6518 39.0148C37.4059 39.1154 38.0595 39.5176 38.4115 40.2717C38.7131 40.9756 38.9645 41.7298 38.9142 42.7353Z" fill="black"/>
<path d="M4.82664 0C6.18412 1.3072 6.18412 3.06689 4.87692 4.62547C3.92166 5.78184 2.61446 5.88239 1.15644 4.87685C1.10616 4.17298 1.60893 3.72049 2.1117 3.36855C2.51391 3.11716 2.9664 2.96633 3.36862 2.76523C4.07249 2.36301 4.52498 1.86024 4.57526 1.00554C4.57526 0.703876 4.72609 0.351938 4.82664 0Z" fill="black"/>
<path d="M1.3575 32.2274C2.26248 32.328 3.11719 32.4286 3.92162 32.4788C4.52494 32.5291 5.02771 32.5794 5.4802 32.9816C6.03324 33.4341 6.03324 33.8363 5.42992 34.2888C4.12272 35.3446 2.16193 34.9927 1.30722 33.5346C1.15639 33.233 1.15639 32.881 1.3575 32.2274Z" fill="black"/>
<path d="M15.1836 43.2381C14.6808 43.037 14.1278 42.8359 13.6753 42.5845C12.5692 41.9309 11.5636 42.2325 10.5078 42.5845C10.1559 42.7353 9.75367 42.9867 9.50229 42.4839C9.30118 42.0817 9.40173 41.6795 9.80395 41.3778C11.2117 40.2717 13.8261 40.5231 14.9322 41.9309C15.1836 42.2325 15.2841 42.6348 15.435 42.9867C15.3344 43.0872 15.2338 43.1375 15.1836 43.2381Z" fill="black"/>
<path d="M36.9534 25.8926C36.6015 25.2892 36.9032 24.9876 37.3557 24.7362C38.2606 24.2334 41.227 24.5351 42.0314 25.239C42.132 25.2892 42.132 25.3898 42.2325 25.5406C42.132 26.0937 41.6795 26.0434 41.3275 25.9428C39.8695 25.3395 38.4617 25.4904 36.9534 25.8926Z" fill="black"/>
<path d="M56.2104 6.98848C56.7131 7.23986 57.2159 7.49125 57.6684 7.84319C59.3778 8.99955 60.6347 10.4576 61.3889 12.4184C61.4894 12.6698 61.59 12.9211 61.4894 13.1223C61.1878 14.2786 61.0872 15.5355 60.2828 16.5411C59.4281 17.6472 59.5789 18.703 60.7856 19.4069C61.4894 19.8593 62.143 20.2616 62.143 21.2671C62.143 22.2726 61.2883 22.876 60.3833 22.4235C59.227 21.8201 58.4226 20.8649 58.322 19.5074C58.1712 17.6472 58.2717 15.7869 59.3778 14.1781C59.5286 13.9267 59.6292 13.5747 59.78 13.3234C60.0314 12.8709 59.9309 12.4687 59.6292 12.1167C59.227 11.6642 58.8248 11.2117 58.3723 10.8095C57.6684 10.1056 56.9645 9.40177 56.2606 8.69789C55.7076 8.04429 55.7076 7.84319 56.2104 6.98848Z" fill="black"/>
<path d="M70.0867 21.6693C70.1873 21.971 70.3884 22.2224 70.4387 22.524C70.6398 23.8815 70.6398 25.239 70.0867 26.4959C69.7851 27.25 69.7851 27.5517 70.4889 28.0042C71.042 28.3561 71.595 28.6578 72.2486 28.7583C73.8072 29.1103 74.7122 30.3169 74.4608 32.2274C74.4105 32.5291 74.3602 32.7805 74.2094 33.0319C73.9078 33.6352 73.405 33.7358 73.053 33.233C72.3492 32.2274 71.3436 31.8755 70.2878 31.6241C68.679 31.2722 68.2265 29.9147 67.7237 28.6075C67.6734 28.4567 67.7237 28.2556 67.774 28.1047C67.8745 27.8534 67.9248 27.5517 68.0756 27.3003C68.8298 25.8423 69.2823 24.334 69.4331 22.7251C69.4834 22.3732 69.6845 22.0213 69.8353 21.6693C69.8856 21.6693 69.9862 21.6693 70.0867 21.6693Z" fill="black"/>
<path d="M60.6348 1.40775C61.3386 3.16744 63.1989 3.92159 64.858 3.01661C65.5619 2.66467 66.2658 2.31273 67.0702 2.36301C68.1763 2.46356 69.1818 3.16744 69.3829 4.1227C69.5338 4.82658 69.5338 5.58073 68.8802 6.2846C68.6791 6.03322 68.5282 5.88239 68.4277 5.68128C67.573 4.42436 66.4166 4.17298 65.1094 4.92713C64.7575 5.12824 64.4055 5.37962 64.0536 5.68128C63.6514 6.0835 63.1486 6.23433 62.5956 6.23433C61.2884 6.23433 60.1823 5.68128 59.3276 4.67574C59.0259 4.32381 59.0762 3.77076 59.0259 3.26799C58.9756 3.01661 59.0762 2.76523 59.1265 2.51384C59.1767 1.60886 59.5287 1.3072 60.6348 1.40775Z" fill="black"/>
<path d="M76.7233 8.19512C77.4272 6.78737 76.3714 5.37962 75.2653 4.97741C74.9133 4.82658 74.5111 4.72602 74.1592 4.57519C73.757 4.42436 73.6564 4.1227 73.8575 3.72049C74.2094 3.01661 74.6619 2.8155 75.4161 3.06689C75.6172 3.11716 75.8183 3.21772 76.0194 3.26799C77.8294 4.07242 78.5333 5.17851 78.2316 7.13931C77.9802 8.74817 78.5333 9.90454 79.6896 10.9101C79.9913 11.1615 80.3432 11.2117 80.6952 11.4128C80.9968 11.5637 81.2985 11.6139 81.5499 11.8151C81.9018 12.1167 81.9018 12.4687 81.6504 12.8206C80.8963 13.8764 79.388 14.53 77.9299 12.9714C77.4774 12.4687 77.025 11.8653 76.673 11.262C76.4719 10.9603 76.3714 10.5079 76.4216 10.1559C76.5222 9.45204 76.673 8.74817 76.7233 8.19512Z" fill="black"/>
<path d="M52.8418 9.15038C54.3501 10.5581 54.6015 12.72 53.3446 14.1781C52.6407 15.0328 51.7357 15.2842 50.6799 15.0328C50.1771 14.9322 49.7246 14.7814 49.2219 14.6306C48.7191 14.4295 48.4174 14.53 48.1661 15.0328C47.7638 15.7869 47.3113 16.5411 46.9594 17.2952C46.8086 17.5969 46.8086 17.9991 46.6577 18.3008C46.5572 18.5521 46.4064 18.9041 46.2555 18.9544C45.8533 19.0549 45.6522 18.703 45.6019 18.3008C45.4511 17.2952 45.5517 16.2897 46.1047 15.3847C46.5069 14.6808 47.06 14.0272 47.4622 13.3736C48.0655 12.4184 48.8699 12.0664 49.976 12.2173C50.5793 12.2675 51.1827 12.2675 51.786 12.1167C52.6407 11.9156 52.691 11.7648 52.5904 10.9101C52.5401 10.3068 52.3893 9.70343 52.8418 9.15038Z" fill="black"/>
<path d="M75.1647 16.34C74.7625 17.1947 74.1089 17.4461 73.4553 17.5969C72.9023 17.7477 72.3492 17.8483 71.7962 17.9991C70.8912 18.3008 70.0868 18.0494 69.4835 17.3455C69.031 16.7422 68.679 16.0383 68.3271 15.3344C68.126 14.9322 68.0254 14.4294 67.774 14.0775C66.8691 12.9714 66.8691 12.5189 65.3608 13.2228C65.2099 13.2731 65.0088 13.2731 64.858 13.2731C64.8077 13.1725 64.7072 13.1223 64.7072 13.072C64.8077 11.4128 68.1763 10.5079 69.2321 11.7648C69.9359 12.6195 70.7404 13.3736 70.7906 14.5803C70.7906 14.7814 70.8912 14.9825 70.9918 15.1836C71.394 16.2394 71.947 16.5411 73.0531 16.4908C73.757 16.4908 74.3603 16.3902 75.1647 16.34Z" fill="black"/>
<path d="M87.6837 14.2786C88.0356 15.3847 87.734 16.1389 87.3318 16.7422C86.7787 17.5969 86.1251 18.3008 85.4715 19.0549C85.3207 19.256 85.019 19.4069 84.7174 19.4571C83.7621 19.608 82.8068 19.8593 81.9019 19.8091C80.5947 19.7588 79.8405 20.6638 79.6897 21.6693C79.6394 22.0213 79.5891 22.3732 79.6394 22.7251C79.8405 23.5798 79.4886 24.334 79.1869 25.0881C79.0864 25.3395 78.7847 25.5909 78.5333 25.6412C78.1311 25.6915 77.93 25.3395 77.8797 24.9373C77.5781 22.2224 78.6841 19.4069 81.2483 17.9991C81.6505 17.798 82.1532 17.798 82.6057 17.7477C83.1588 17.6974 83.6616 17.7477 84.2146 17.6974C85.371 17.5466 86.2759 16.9433 86.7787 15.8875C87.0301 15.435 87.2815 14.9825 87.6837 14.2786Z" fill="black"/>
<path d="M63.6011 26.144C64.5564 27.0992 64.2547 28.7583 62.9978 29.3617C61.942 29.8644 60.8359 30.2667 59.5789 29.965C59.1265 29.8644 58.674 29.9147 58.2215 29.965C57.3668 30.1158 57.0148 30.5683 56.9646 31.423C56.9143 31.9761 57.0148 32.4788 56.9143 33.0319C56.9143 33.233 56.6629 33.4341 56.4618 33.5346C56.3612 33.5849 56.1098 33.3335 56.0093 33.1827C55.4562 32.0766 55.8082 29.7136 56.5623 28.8086C57.3165 27.9036 58.3723 27.6523 59.4784 27.8534C61.2381 28.1047 62.5956 27.5014 63.6011 26.144Z" fill="black"/>
<path d="M61.8916 34.8921C62.3441 34.4396 62.696 34.691 62.9474 34.8921C64.0032 35.7971 65.059 36.7021 64.9585 38.2104C64.9082 39.4673 65.5618 40.0204 66.5673 40.4226C66.9696 40.6237 67.4221 40.7242 67.8745 40.9253C68.327 41.1264 68.8298 41.2773 69.232 41.5789C70.1873 42.1823 70.0867 43.4895 69.0309 43.9419C68.8801 44.0425 68.6287 43.9922 68.4276 43.9419C66.9696 43.4895 65.6624 42.7856 64.5563 41.78C63.9027 41.1767 63.8021 40.322 63.953 39.6181C64.3049 37.9087 63.5507 36.7524 62.4446 35.596C62.2938 35.3446 62.143 35.1435 61.8916 34.8921Z" fill="black"/>
<path d="M79.3377 31.1214C80.1422 31.3727 80.9969 31.5738 81.8013 31.8252C82.4549 32.0263 83.0582 31.9761 83.6615 31.7247C84.9687 31.2219 86.7787 32.1772 87.382 33.3335C87.6334 33.8363 87.5329 34.4899 87.5329 35.0932C87.5329 35.3949 87.2815 35.6463 87.1809 35.9479C86.4268 35.3446 85.7732 34.7916 85.1196 34.2888C84.2649 33.6352 83.3599 33.1827 82.1532 33.7358C81.2482 34.138 80.293 33.8866 79.4886 33.4844C78.4327 32.9816 78.4327 32.0263 79.3377 31.1214Z" fill="black"/>
<path d="M45.25 26.5462C47.3113 26.2445 48.5683 24.9876 49.3727 23.2782C50.1771 21.6693 51.6854 20.8649 53.3948 21.3174C54.2496 21.5185 54.4004 21.7699 54.2496 22.876C53.8473 22.876 53.4451 22.876 53.0429 22.876C51.9871 22.8257 51.2329 23.2279 50.8307 24.1832C50.6296 24.6356 50.4285 25.0881 50.1771 25.5406C49.4733 26.9484 48.0152 27.3003 46.8086 27.9036C45.9036 28.4064 45.4008 27.9036 45.25 26.5462Z" fill="black"/>
<path d="M47.4119 43.1878C46.9594 42.3834 46.9092 41.6795 47.3617 41.0762C47.9147 40.2717 48.6186 39.5176 49.2722 38.7634C49.6241 38.4115 50.0263 38.4115 50.5291 38.4618C52.4396 38.6629 54.6015 37.6071 54.5512 35.4452C54.5512 35.2441 54.6518 35.0932 54.7524 34.8921C55.6573 35.7971 55.8082 36.3501 55.3054 37.3557C54.7524 38.5623 54.0485 39.5176 52.6407 39.6684C52.3391 39.7187 52.0374 39.9198 51.7357 39.9701C51.4341 40.0706 51.0319 40.1712 50.7805 40.0706C49.775 39.6684 49.7247 39.9701 49.2219 40.674C48.7694 41.2773 48.4678 42.0314 48.0655 42.685C47.9147 42.8359 47.6633 42.9867 47.4119 43.1878Z" fill="black"/>
<path d="M90.4489 5.22879C89.9964 5.02768 89.5942 4.92713 89.2423 4.72602C88.2368 4.07242 87.2815 4.07242 86.276 4.7763C85.7732 5.12824 85.2201 5.37962 84.6671 5.58073C83.561 6.03322 82.3544 5.22879 82.3544 4.02215C82.3544 3.31827 83.2091 2.6144 83.8124 2.96633C84.8682 3.61993 85.7732 3.31827 86.7285 2.86578C87.4826 2.51384 88.1865 2.26246 89.0915 2.56412C90.2478 3.06689 90.65 3.67021 90.4489 5.22879Z" fill="black"/>
<path d="M84.1642 42.7353C83.8626 42.4839 83.6615 42.3834 83.5609 42.2325C83.2593 41.9309 83.0079 41.5789 82.7565 41.227C82.0023 40.0204 80.3432 40.0204 79.1366 40.674C78.3824 41.0762 77.578 41.4281 76.7735 41.5789C75.4161 41.8806 74.7625 41.1767 74.8128 39.7187C75.3155 39.417 75.8686 39.4673 76.3211 39.769C76.9244 40.1209 77.5277 40.0706 78.131 39.769C78.5332 39.5679 78.9355 39.4673 79.2874 39.2662C80.1421 38.7634 80.9968 38.864 81.9018 39.0148C82.6559 39.1154 83.3095 39.5176 83.6615 40.2717C83.9631 40.9756 84.2145 41.7298 84.1642 42.7353Z" fill="black"/>
<path d="M50.0766 0C51.4341 1.3072 51.4341 3.06689 50.1269 4.62547C49.1717 5.78184 47.8645 5.88239 46.4064 4.87685C46.3562 4.17298 46.8589 3.72049 47.3617 3.36855C47.7639 3.11716 48.2164 2.96633 48.6186 2.76523C49.3225 2.36301 49.775 1.86024 49.8253 1.00554C49.8253 0.703876 49.9761 0.351938 50.0766 0Z" fill="black"/>
<path d="M46.6075 32.2274C47.5125 32.328 48.3672 32.4286 49.1716 32.4788C49.7749 32.5291 50.2777 32.5794 50.7302 32.9816C51.2832 33.4341 51.2832 33.8363 50.6799 34.2888C49.3727 35.3446 47.4119 34.9927 46.5572 33.5346C46.4064 33.233 46.4064 32.881 46.6075 32.2274Z" fill="black"/>
<path d="M60.4336 43.2381C59.9308 43.037 59.3778 42.8359 58.9253 42.5845C57.8192 41.9309 56.8136 42.2325 55.7578 42.5845C55.4059 42.7353 55.0037 42.9867 54.7523 42.4839C54.5512 42.0817 54.6517 41.6795 55.0539 41.3778C56.4617 40.2717 59.0761 40.5231 60.1822 41.9309C60.4336 42.2325 60.5341 42.6348 60.685 42.9867C60.5844 43.0872 60.4838 43.1375 60.4336 43.2381Z" fill="black"/>
<path d="M82.2034 25.8926C81.8515 25.2892 82.1532 24.9876 82.6057 24.7362C83.5106 24.2334 86.477 24.5351 87.2814 25.239C87.382 25.2892 87.382 25.3898 87.4825 25.5406C87.382 26.0937 86.9295 26.0434 86.5775 25.9428C85.1195 25.3395 83.7117 25.4904 82.2034 25.8926Z" fill="black"/>
<path d="M101.46 6.98848C101.963 7.23986 102.466 7.49125 102.918 7.84319C104.628 8.99955 105.885 10.4576 106.639 12.4184C106.739 12.6698 106.84 12.9211 106.739 13.1223C106.438 14.2786 106.337 15.5355 105.533 16.5411C104.678 17.6472 104.829 18.703 106.036 19.4069C106.739 19.8593 107.393 20.2616 107.393 21.2671C107.393 22.2726 106.538 22.876 105.633 22.4235C104.477 21.8201 103.673 20.8649 103.572 19.5074C103.421 17.6472 103.522 15.7869 104.628 14.1781C104.779 13.9267 104.879 13.5747 105.03 13.3234C105.281 12.8709 105.181 12.4687 104.879 12.1167C104.477 11.6642 104.075 11.2117 103.622 10.8095C102.918 10.1056 102.215 9.40177 101.511 8.69789C100.958 8.04429 100.958 7.84319 101.46 6.98848Z" fill="black"/>
<path d="M115.337 21.6693C115.437 21.971 115.638 22.2224 115.689 22.524C115.89 23.8815 115.89 25.239 115.337 26.4959C115.035 27.25 115.035 27.5517 115.739 28.0042C116.292 28.3561 116.845 28.6578 117.499 28.7583C119.057 29.1103 119.962 30.3169 119.711 32.2274C119.661 32.5291 119.61 32.7805 119.459 33.0319C119.158 33.6352 118.655 33.7358 118.303 33.233C117.599 32.2274 116.594 31.8755 115.538 31.6241C113.929 31.2722 113.476 29.9147 112.974 28.6075C112.923 28.4567 112.974 28.2556 113.024 28.1047C113.125 27.8534 113.175 27.5517 113.326 27.3003C114.08 25.8423 114.532 24.334 114.683 22.7251C114.733 22.3732 114.935 22.0213 115.085 21.6693C115.136 21.6693 115.236 21.6693 115.337 21.6693Z" fill="black"/>
<path d="M105.885 1.40775C106.589 3.16744 108.449 3.92159 110.108 3.01661C110.812 2.66467 111.516 2.31273 112.32 2.36301C113.426 2.46356 114.432 3.16744 114.633 4.1227C114.784 4.82658 114.784 5.58073 114.13 6.2846C113.929 6.03322 113.778 5.88239 113.678 5.68128C112.823 4.42436 111.667 4.17298 110.359 4.92713C110.007 5.12824 109.656 5.37962 109.304 5.68128C108.901 6.0835 108.399 6.23433 107.846 6.23433C106.538 6.23433 105.432 5.68128 104.578 4.67574C104.276 4.32381 104.326 3.77076 104.276 3.26799C104.226 3.01661 104.326 2.76523 104.376 2.51384C104.427 1.60886 104.779 1.3072 105.885 1.40775Z" fill="black"/>
<path d="M121.973 8.19512C122.677 6.78737 121.621 5.37962 120.515 4.97741C120.163 4.82658 119.761 4.72602 119.409 4.57519C119.007 4.42436 118.906 4.1227 119.108 3.72049C119.459 3.01661 119.912 2.8155 120.666 3.06689C120.867 3.11716 121.068 3.21772 121.269 3.26799C123.079 4.07242 123.783 5.17851 123.482 7.13931C123.23 8.74817 123.783 9.90454 124.94 10.9101C125.241 11.1615 125.593 11.2117 125.945 11.4128C126.247 11.5637 126.548 11.6139 126.8 11.8151C127.152 12.1167 127.152 12.4687 126.9 12.8206C126.146 13.8764 124.638 14.53 123.18 12.9714C122.727 12.4687 122.275 11.8653 121.923 11.262C121.722 10.9603 121.621 10.5079 121.672 10.1559C121.772 9.45204 121.923 8.74817 121.973 8.19512Z" fill="black"/>
<path d="M98.0918 9.15038C99.6001 10.5581 99.8515 12.72 98.5946 14.1781C97.8907 15.0328 96.9857 15.2842 95.9299 15.0328C95.4271 14.9322 94.9746 14.7814 94.4719 14.6306C93.9691 14.4295 93.6674 14.53 93.4161 15.0328C93.0138 15.7869 92.5613 16.5411 92.2094 17.2952C92.0586 17.5969 92.0586 17.9991 91.9077 18.3008C91.8072 18.5521 91.6564 18.9041 91.5055 18.9544C91.1033 19.0549 90.9022 18.703 90.8519 18.3008C90.7011 17.2952 90.8017 16.2897 91.3547 15.3847C91.7569 14.6808 92.31 14.0272 92.7122 13.3736C93.3155 12.4184 94.1199 12.0664 95.226 12.2173C95.8293 12.2675 96.4327 12.2675 97.036 12.1167C97.8907 11.9156 97.941 11.7648 97.8404 10.9101C97.7901 10.3068 97.6393 9.70343 98.0918 9.15038Z" fill="black"/>
<path d="M120.415 16.34C120.013 17.1947 119.359 17.4461 118.705 17.5969C118.152 17.7477 117.599 17.8483 117.046 17.9991C116.141 18.3008 115.337 18.0494 114.733 17.3455C114.281 16.7422 113.929 16.0383 113.577 15.3344C113.376 14.9322 113.275 14.4294 113.024 14.0775C112.119 12.9714 112.119 12.5189 110.611 13.2228C110.46 13.2731 110.259 13.2731 110.108 13.2731C110.058 13.1725 109.957 13.1223 109.957 13.072C110.058 11.4128 113.426 10.5079 114.482 11.7648C115.186 12.6195 115.99 13.3736 116.041 14.5803C116.041 14.7814 116.141 14.9825 116.242 15.1836C116.644 16.2394 117.197 16.5411 118.303 16.4908C119.007 16.4908 119.61 16.3902 120.415 16.34Z" fill="black"/>
<path d="M132.934 14.2786C133.286 15.3847 132.984 16.1389 132.582 16.7422C132.029 17.5969 131.375 18.3008 130.722 19.0549C130.571 19.256 130.269 19.4069 129.967 19.4571C129.012 19.608 128.057 19.8593 127.152 19.8091C125.845 19.7588 125.091 20.6638 124.94 21.6693C124.889 22.0213 124.839 22.3732 124.889 22.7251C125.091 23.5798 124.739 24.334 124.437 25.0881C124.336 25.3395 124.035 25.5909 123.783 25.6412C123.381 25.6915 123.18 25.3395 123.13 24.9373C122.828 22.2224 123.934 19.4069 126.498 17.9991C126.9 17.798 127.403 17.798 127.856 17.7477C128.409 17.6974 128.912 17.7477 129.465 17.6974C130.621 17.5466 131.526 16.9433 132.029 15.8875C132.28 15.435 132.531 14.9825 132.934 14.2786Z" fill="black"/>
<path d="M108.851 26.144C109.806 27.0992 109.505 28.7583 108.248 29.3617C107.192 29.8644 106.086 30.2667 104.829 29.965C104.376 29.8644 103.924 29.9147 103.471 29.965C102.617 30.1158 102.265 30.5683 102.215 31.423C102.164 31.9761 102.265 32.4788 102.164 33.0319C102.164 33.233 101.913 33.4341 101.712 33.5346C101.611 33.5849 101.36 33.3335 101.259 33.1827C100.706 32.0766 101.058 29.7136 101.812 28.8086C102.566 27.9036 103.622 27.6523 104.728 27.8534C106.488 28.1047 107.846 27.5014 108.851 26.144Z" fill="black"/>
<path d="M107.142 34.8921C107.594 34.4396 107.946 34.691 108.197 34.8921C109.253 35.7971 110.309 36.7021 110.208 38.2104C110.158 39.4673 110.812 40.0204 111.817 40.4226C112.22 40.6237 112.672 40.7242 113.125 40.9253C113.577 41.1264 114.08 41.2773 114.482 41.5789C115.437 42.1823 115.337 43.4895 114.281 43.9419C114.13 44.0425 113.879 43.9922 113.678 43.9419C112.22 43.4895 110.912 42.7856 109.806 41.78C109.153 41.1767 109.052 40.322 109.203 39.6181C109.555 37.9087 108.801 36.7524 107.695 35.596C107.544 35.3446 107.393 35.1435 107.142 34.8921Z" fill="black"/>
<path d="M124.588 31.1214C125.392 31.3727 126.247 31.5738 127.051 31.8252C127.705 32.0263 128.308 31.9761 128.912 31.7247C130.219 31.2219 132.029 32.1772 132.632 33.3335C132.883 33.8363 132.783 34.4899 132.783 35.0932C132.783 35.3949 132.531 35.6463 132.431 35.9479C131.677 35.3446 131.023 34.7916 130.37 34.2888C129.515 33.6352 128.61 33.1827 127.403 33.7358C126.498 34.138 125.543 33.8866 124.739 33.4844C123.683 32.9816 123.683 32.0263 124.588 31.1214Z" fill="black"/>
<path d="M90.5 26.5462C92.5613 26.2445 93.8183 24.9876 94.6227 23.2782C95.4271 21.6693 96.9354 20.8649 98.6448 21.3174C99.4996 21.5185 99.6504 21.7699 99.4996 22.876C99.0973 22.876 98.6951 22.876 98.2929 22.876C97.2371 22.8257 96.4829 23.2279 96.0807 24.1832C95.8796 24.6356 95.6785 25.0881 95.4271 25.5406C94.7233 26.9484 93.2652 27.3003 92.0586 27.9036C91.1536 28.4064 90.6508 27.9036 90.5 26.5462Z" fill="black"/>
<path d="M92.6619 43.1878C92.2094 42.3834 92.1592 41.6795 92.6117 41.0762C93.1647 40.2717 93.8686 39.5176 94.5222 38.7634C94.8741 38.4115 95.2763 38.4115 95.7791 38.4618C97.6896 38.6629 99.8515 37.6071 99.8012 35.4452C99.8012 35.2441 99.9018 35.0932 100.002 34.8921C100.907 35.7971 101.058 36.3501 100.555 37.3557C100.002 38.5623 99.2985 39.5176 97.8907 39.6684C97.5891 39.7187 97.2874 39.9198 96.9857 39.9701C96.6841 40.0706 96.2819 40.1712 96.0305 40.0706C95.025 39.6684 94.9747 39.9701 94.4719 40.674C94.0194 41.2773 93.7178 42.0314 93.3155 42.685C93.1647 42.8359 92.9133 42.9867 92.6619 43.1878Z" fill="black"/>
<path d="M135.699 5.22879C135.246 5.02768 134.844 4.92713 134.492 4.72602C133.487 4.07242 132.531 4.07242 131.526 4.7763C131.023 5.12824 130.47 5.37962 129.917 5.58073C128.811 6.03322 127.604 5.22879 127.604 4.02215C127.604 3.31827 128.459 2.6144 129.062 2.96633C130.118 3.61993 131.023 3.31827 131.978 2.86578C132.733 2.51384 133.436 2.26246 134.341 2.56412C135.498 3.06689 135.9 3.67021 135.699 5.22879Z" fill="black"/>
<path d="M129.414 42.7353C129.113 42.4839 128.911 42.3834 128.811 42.2325C128.509 41.9309 128.258 41.5789 128.006 41.227C127.252 40.0204 125.593 40.0204 124.387 40.674C123.632 41.0762 122.828 41.4281 122.024 41.5789C120.666 41.8806 120.012 41.1767 120.063 39.7187C120.566 39.417 121.119 39.4673 121.571 39.769C122.174 40.1209 122.778 40.0706 123.381 39.769C123.783 39.5679 124.185 39.4673 124.537 39.2662C125.392 38.7634 126.247 38.864 127.152 39.0148C127.906 39.1154 128.56 39.5176 128.911 40.2717C129.213 40.9756 129.465 41.7298 129.414 42.7353Z" fill="black"/>
<path d="M95.3266 0C96.6841 1.3072 96.6841 3.06689 95.3769 4.62547C94.4217 5.78184 93.1145 5.88239 91.6564 4.87685C91.6062 4.17298 92.1089 3.72049 92.6117 3.36855C93.0139 3.11716 93.4664 2.96633 93.8686 2.76523C94.5725 2.36301 95.025 1.86024 95.0753 1.00554C95.0753 0.703876 95.2261 0.351938 95.3266 0Z" fill="black"/>
<path d="M91.8575 32.2274C92.7625 32.328 93.6172 32.4286 94.4216 32.4788C95.0249 32.5291 95.5277 32.5794 95.9802 32.9816C96.5332 33.4341 96.5332 33.8363 95.9299 34.2888C94.6227 35.3446 92.6619 34.9927 91.8072 33.5346C91.6564 33.233 91.6564 32.881 91.8575 32.2274Z" fill="black"/>
<path d="M105.684 43.2381C105.181 43.037 104.628 42.8359 104.175 42.5845C103.069 41.9309 102.064 42.2325 101.008 42.5845C100.656 42.7353 100.254 42.9867 100.002 42.4839C99.8012 42.0817 99.9017 41.6795 100.304 41.3778C101.712 40.2717 104.326 40.5231 105.432 41.9309C105.684 42.2325 105.784 42.6348 105.935 42.9867C105.834 43.0872 105.734 43.1375 105.684 43.2381Z" fill="black"/>
<path d="M127.453 25.8926C127.102 25.2892 127.403 24.9876 127.856 24.7362C128.761 24.2334 131.727 24.5351 132.531 25.239C132.632 25.2892 132.632 25.3898 132.733 25.5406C132.632 26.0937 132.179 26.0434 131.828 25.9428C130.369 25.3395 128.962 25.4904 127.453 25.8926Z" fill="black"/>
<path d="M146.71 6.98848C147.213 7.23986 147.716 7.49125 148.168 7.84319C149.878 8.99955 151.135 10.4576 151.889 12.4184C151.989 12.6698 152.09 12.9211 151.989 13.1223C151.688 14.2786 151.587 15.5355 150.783 16.5411C149.928 17.6472 150.079 18.703 151.286 19.4069C151.989 19.8593 152.643 20.2616 152.643 21.2671C152.643 22.2726 151.788 22.876 150.883 22.4235C149.727 21.8201 148.923 20.8649 148.822 19.5074C148.671 17.6472 148.772 15.7869 149.878 14.1781C150.029 13.9267 150.129 13.5747 150.28 13.3234C150.531 12.8709 150.431 12.4687 150.129 12.1167C149.727 11.6642 149.325 11.2117 148.872 10.8095C148.168 10.1056 147.465 9.40177 146.761 8.69789C146.208 8.04429 146.208 7.84319 146.71 6.98848Z" fill="black"/>
<path d="M160.587 21.6693C160.687 21.971 160.888 22.2224 160.939 22.524C161.14 23.8815 161.14 25.239 160.587 26.4959C160.285 27.25 160.285 27.5517 160.989 28.0042C161.542 28.3561 162.095 28.6578 162.749 28.7583C164.307 29.1103 165.212 30.3169 164.961 32.2274C164.911 32.5291 164.86 32.7805 164.709 33.0319C164.408 33.6352 163.905 33.7358 163.553 33.233C162.849 32.2274 161.844 31.8755 160.788 31.6241C159.179 31.2722 158.726 29.9147 158.224 28.6075C158.173 28.4567 158.224 28.2556 158.274 28.1047C158.375 27.8534 158.425 27.5517 158.576 27.3003C159.33 25.8423 159.782 24.334 159.933 22.7251C159.983 22.3732 160.185 22.0213 160.335 21.6693C160.386 21.6693 160.486 21.6693 160.587 21.6693Z" fill="black"/>
<path d="M151.135 1.40775C151.839 3.16744 153.699 3.92159 155.358 3.01661C156.062 2.66467 156.766 2.31273 157.57 2.36301C158.676 2.46356 159.682 3.16744 159.883 4.1227C160.034 4.82658 160.034 5.58073 159.38 6.2846C159.179 6.03322 159.028 5.88239 158.928 5.68128C158.073 4.42436 156.917 4.17298 155.609 4.92713C155.257 5.12824 154.906 5.37962 154.554 5.68128C154.151 6.0835 153.649 6.23433 153.096 6.23433C151.788 6.23433 150.682 5.68128 149.828 4.67574C149.526 4.32381 149.576 3.77076 149.526 3.26799C149.476 3.01661 149.576 2.76523 149.626 2.51384C149.677 1.60886 150.029 1.3072 151.135 1.40775Z" fill="black"/>
<path d="M167.223 8.19512C167.927 6.78737 166.871 5.37962 165.765 4.97741C165.413 4.82658 165.011 4.72602 164.659 4.57519C164.257 4.42436 164.156 4.1227 164.358 3.72049C164.709 3.01661 165.162 2.8155 165.916 3.06689C166.117 3.11716 166.318 3.21772 166.519 3.26799C168.329 4.07242 169.033 5.17851 168.732 7.13931C168.48 8.74817 169.033 9.90454 170.19 10.9101C170.491 11.1615 170.843 11.2117 171.195 11.4128C171.497 11.5637 171.798 11.6139 172.05 11.8151C172.402 12.1167 172.402 12.4687 172.15 12.8206C171.396 13.8764 169.888 14.53 168.43 12.9714C167.977 12.4687 167.525 11.8653 167.173 11.262C166.972 10.9603 166.871 10.5079 166.922 10.1559C167.022 9.45204 167.173 8.74817 167.223 8.19512Z" fill="black"/>
<path d="M143.342 9.15038C144.85 10.5581 145.101 12.72 143.845 14.1781C143.141 15.0328 142.236 15.2842 141.18 15.0328C140.677 14.9322 140.225 14.7814 139.722 14.6306C139.219 14.4295 138.917 14.53 138.666 15.0328C138.264 15.7869 137.811 16.5411 137.459 17.2952C137.309 17.5969 137.309 17.9991 137.158 18.3008C137.057 18.5521 136.906 18.9041 136.756 18.9544C136.353 19.0549 136.152 18.703 136.102 18.3008C135.951 17.2952 136.052 16.2897 136.605 15.3847C137.007 14.6808 137.56 14.0272 137.962 13.3736C138.565 12.4184 139.37 12.0664 140.476 12.2173C141.079 12.2675 141.683 12.2675 142.286 12.1167C143.141 11.9156 143.191 11.7648 143.09 10.9101C143.04 10.3068 142.889 9.70343 143.342 9.15038Z" fill="black"/>
<path d="M165.665 16.34C165.263 17.1947 164.609 17.4461 163.955 17.5969C163.402 17.7477 162.849 17.8483 162.296 17.9991C161.391 18.3008 160.587 18.0494 159.983 17.3455C159.531 16.7422 159.179 16.0383 158.827 15.3344C158.626 14.9322 158.525 14.4294 158.274 14.0775C157.369 12.9714 157.369 12.5189 155.861 13.2228C155.71 13.2731 155.509 13.2731 155.358 13.2731C155.308 13.1725 155.207 13.1223 155.207 13.072C155.308 11.4128 158.676 10.5079 159.732 11.7648C160.436 12.6195 161.24 13.3736 161.291 14.5803C161.291 14.7814 161.391 14.9825 161.492 15.1836C161.894 16.2394 162.447 16.5411 163.553 16.4908C164.257 16.4908 164.86 16.3902 165.665 16.34Z" fill="black"/>
<path d="M178.184 14.2786C178.536 15.3847 178.234 16.1389 177.832 16.7422C177.279 17.5969 176.625 18.3008 175.972 19.0549C175.821 19.256 175.519 19.4069 175.217 19.4571C174.262 19.608 173.307 19.8593 172.402 19.8091C171.095 19.7588 170.341 20.6638 170.19 21.6693C170.139 22.0213 170.089 22.3732 170.139 22.7251C170.341 23.5798 169.989 24.334 169.687 25.0881C169.586 25.3395 169.285 25.5909 169.033 25.6412C168.631 25.6915 168.43 25.3395 168.38 24.9373C168.078 22.2224 169.184 19.4069 171.748 17.9991C172.15 17.798 172.653 17.798 173.106 17.7477C173.659 17.6974 174.162 17.7477 174.715 17.6974C175.871 17.5466 176.776 16.9433 177.279 15.8875C177.53 15.435 177.781 14.9825 178.184 14.2786Z" fill="black"/>
<path d="M154.101 26.144C155.056 27.0992 154.755 28.7583 153.498 29.3617C152.442 29.8644 151.336 30.2667 150.079 29.965C149.626 29.8644 149.174 29.9147 148.721 29.965C147.867 30.1158 147.515 30.5683 147.465 31.423C147.414 31.9761 147.515 32.4788 147.414 33.0319C147.414 33.233 147.163 33.4341 146.962 33.5346C146.861 33.5849 146.61 33.3335 146.509 33.1827C145.956 32.0766 146.308 29.7136 147.062 28.8086C147.816 27.9036 148.872 27.6523 149.978 27.8534C151.738 28.1047 153.096 27.5014 154.101 26.144Z" fill="black"/>
<path d="M152.392 34.8921C152.844 34.4396 153.196 34.691 153.447 34.8921C154.503 35.7971 155.559 36.7021 155.458 38.2104C155.408 39.4673 156.062 40.0204 157.067 40.4226C157.47 40.6237 157.922 40.7242 158.375 40.9253C158.827 41.1264 159.33 41.2773 159.732 41.5789C160.687 42.1823 160.587 43.4895 159.531 43.9419C159.38 44.0425 159.129 43.9922 158.928 43.9419C157.47 43.4895 156.162 42.7856 155.056 41.78C154.403 41.1767 154.302 40.322 154.453 39.6181C154.805 37.9087 154.051 36.7524 152.945 35.596C152.794 35.3446 152.643 35.1435 152.392 34.8921Z" fill="black"/>
<path d="M169.838 31.1214C170.642 31.3727 171.497 31.5738 172.301 31.8252C172.955 32.0263 173.558 31.9761 174.162 31.7247C175.469 31.2219 177.279 32.1772 177.882 33.3335C178.133 33.8363 178.033 34.4899 178.033 35.0932C178.033 35.3949 177.781 35.6463 177.681 35.9479C176.927 35.3446 176.273 34.7916 175.62 34.2888C174.765 33.6352 173.86 33.1827 172.653 33.7358C171.748 34.138 170.793 33.8866 169.989 33.4844C168.933 32.9816 168.933 32.0263 169.838 31.1214Z" fill="black"/>
<path d="M135.75 26.5462C137.811 26.2445 139.068 24.9876 139.873 23.2782C140.677 21.6693 142.185 20.8649 143.895 21.3174C144.75 21.5185 144.9 21.7699 144.75 22.876C144.347 22.876 143.945 22.876 143.543 22.876C142.487 22.8257 141.733 23.2279 141.331 24.1832C141.13 24.6356 140.929 25.0881 140.677 25.5406C139.973 26.9484 138.515 27.3003 137.309 27.9036C136.404 28.4064 135.901 27.9036 135.75 26.5462Z" fill="black"/>
<path d="M137.912 43.1878C137.459 42.3834 137.409 41.6795 137.862 41.0762C138.415 40.2717 139.119 39.5176 139.772 38.7634C140.124 38.4115 140.526 38.4115 141.029 38.4618C142.94 38.6629 145.102 37.6071 145.051 35.4452C145.051 35.2441 145.152 35.0932 145.252 34.8921C146.157 35.7971 146.308 36.3501 145.805 37.3557C145.252 38.5623 144.548 39.5176 143.141 39.6684C142.839 39.7187 142.537 39.9198 142.236 39.9701C141.934 40.0706 141.532 40.1712 141.28 40.0706C140.275 39.6684 140.225 39.9701 139.722 40.674C139.269 41.2773 138.968 42.0314 138.566 42.685C138.415 42.8359 138.163 42.9867 137.912 43.1878Z" fill="black"/>
<path d="M180.949 5.22879C180.496 5.02768 180.094 4.92713 179.742 4.72602C178.737 4.07242 177.781 4.07242 176.776 4.7763C176.273 5.12824 175.72 5.37962 175.167 5.58073C174.061 6.03322 172.854 5.22879 172.854 4.02215C172.854 3.31827 173.709 2.6144 174.312 2.96633C175.368 3.61993 176.273 3.31827 177.228 2.86578C177.983 2.51384 178.686 2.26246 179.591 2.56412C180.748 3.06689 181.15 3.67021 180.949 5.22879Z" fill="black"/>
<path d="M174.664 42.7353C174.363 42.4839 174.161 42.3834 174.061 42.2325C173.759 41.9309 173.508 41.5789 173.256 41.227C172.502 40.0204 170.843 40.0204 169.637 40.674C168.882 41.0762 168.078 41.4281 167.274 41.5789C165.916 41.8806 165.262 41.1767 165.313 39.7187C165.816 39.417 166.369 39.4673 166.821 39.769C167.424 40.1209 168.028 40.0706 168.631 39.769C169.033 39.5679 169.435 39.4673 169.787 39.2662C170.642 38.7634 171.497 38.864 172.402 39.0148C173.156 39.1154 173.81 39.5176 174.161 40.2717C174.463 40.9756 174.715 41.7298 174.664 42.7353Z" fill="black"/>
<path d="M140.577 0C141.934 1.3072 141.934 3.06689 140.627 4.62547C139.672 5.78184 138.364 5.88239 136.906 4.87685C136.856 4.17298 137.359 3.72049 137.862 3.36855C138.264 3.11716 138.716 2.96633 139.119 2.76523C139.822 2.36301 140.275 1.86024 140.325 1.00554C140.325 0.703876 140.476 0.351938 140.577 0Z" fill="black"/>
<path d="M137.107 32.2274C138.012 32.328 138.867 32.4286 139.672 32.4788C140.275 32.5291 140.778 32.5794 141.23 32.9816C141.783 33.4341 141.783 33.8363 141.18 34.2888C139.873 35.3446 137.912 34.9927 137.057 33.5346C136.906 33.233 136.906 32.881 137.107 32.2274Z" fill="black"/>
<path d="M150.934 43.2381C150.431 43.037 149.878 42.8359 149.425 42.5845C148.319 41.9309 147.314 42.2325 146.258 42.5845C145.906 42.7353 145.504 42.9867 145.252 42.4839C145.051 42.0817 145.152 41.6795 145.554 41.3778C146.962 40.2717 149.576 40.5231 150.682 41.9309C150.934 42.2325 151.034 42.6348 151.185 42.9867C151.084 43.0872 150.984 43.1375 150.934 43.2381Z" fill="black"/>
<path d="M172.703 25.8926C172.352 25.2892 172.653 24.9876 173.106 24.7362C174.011 24.2334 176.977 24.5351 177.781 25.239C177.882 25.2892 177.882 25.3898 177.983 25.5406C177.882 26.0937 177.429 26.0434 177.078 25.9428C175.619 25.3395 174.212 25.4904 172.703 25.8926Z" fill="black"/>
<path d="M191.96 6.98848C192.463 7.23986 192.966 7.49125 193.418 7.84319C195.128 8.99955 196.385 10.4576 197.139 12.4184C197.239 12.6698 197.34 12.9211 197.239 13.1223C196.938 14.2786 196.837 15.5355 196.033 16.5411C195.178 17.6472 195.329 18.703 196.536 19.4069C197.239 19.8593 197.893 20.2616 197.893 21.2671C197.893 22.2726 197.038 22.876 196.133 22.4235C194.977 21.8201 194.173 20.8649 194.072 19.5074C193.921 17.6472 194.022 15.7869 195.128 14.1781C195.279 13.9267 195.379 13.5747 195.53 13.3234C195.781 12.8709 195.681 12.4687 195.379 12.1167C194.977 11.6642 194.575 11.2117 194.122 10.8095C193.418 10.1056 192.715 9.40177 192.011 8.69789C191.458 8.04429 191.458 7.84319 191.96 6.98848Z" fill="black"/>
<path d="M205.837 21.6693C205.937 21.971 206.138 22.2224 206.189 22.524C206.39 23.8815 206.39 25.239 205.837 26.4959C205.535 27.25 205.535 27.5517 206.239 28.0042C206.792 28.3561 207.345 28.6578 207.999 28.7583C209.557 29.1103 210.462 30.3169 210.211 32.2274C210.161 32.5291 210.11 32.7805 209.959 33.0319C209.658 33.6352 209.155 33.7358 208.803 33.233C208.099 32.2274 207.094 31.8755 206.038 31.6241C204.429 31.2722 203.976 29.9147 203.474 28.6075C203.423 28.4567 203.474 28.2556 203.524 28.1047C203.625 27.8534 203.675 27.5517 203.826 27.3003C204.58 25.8423 205.032 24.334 205.183 22.7251C205.233 22.3732 205.435 22.0213 205.585 21.6693C205.636 21.6693 205.736 21.6693 205.837 21.6693Z" fill="black"/>
<path d="M196.385 1.40775C197.089 3.16744 198.949 3.92159 200.608 3.01661C201.312 2.66467 202.016 2.31273 202.82 2.36301C203.926 2.46356 204.932 3.16744 205.133 4.1227C205.284 4.82658 205.284 5.58073 204.63 6.2846C204.429 6.03322 204.278 5.88239 204.178 5.68128C203.323 4.42436 202.167 4.17298 200.859 4.92713C200.507 5.12824 200.156 5.37962 199.804 5.68128C199.401 6.0835 198.899 6.23433 198.346 6.23433C197.038 6.23433 195.932 5.68128 195.078 4.67574C194.776 4.32381 194.826 3.77076 194.776 3.26799C194.726 3.01661 194.826 2.76523 194.876 2.51384C194.927 1.60886 195.279 1.3072 196.385 1.40775Z" fill="black"/>
<path d="M212.473 8.19512C213.177 6.78737 212.121 5.37962 211.015 4.97741C210.663 4.82658 210.261 4.72602 209.909 4.57519C209.507 4.42436 209.406 4.1227 209.608 3.72049C209.959 3.01661 210.412 2.8155 211.166 3.06689C211.367 3.11716 211.568 3.21772 211.769 3.26799C213.579 4.07242 214.283 5.17851 213.982 7.13931C213.73 8.74817 214.283 9.90454 215.44 10.9101C215.741 11.1615 216.093 11.2117 216.445 11.4128C216.747 11.5637 217.048 11.6139 217.3 11.8151C217.652 12.1167 217.652 12.4687 217.4 12.8206C216.646 13.8764 215.138 14.53 213.68 12.9714C213.227 12.4687 212.775 11.8653 212.423 11.262C212.222 10.9603 212.121 10.5079 212.172 10.1559C212.272 9.45204 212.423 8.74817 212.473 8.19512Z" fill="black"/>
<path d="M188.592 9.15038C190.1 10.5581 190.351 12.72 189.095 14.1781C188.391 15.0328 187.486 15.2842 186.43 15.0328C185.927 14.9322 185.475 14.7814 184.972 14.6306C184.469 14.4295 184.167 14.53 183.916 15.0328C183.514 15.7869 183.061 16.5411 182.709 17.2952C182.559 17.5969 182.559 17.9991 182.408 18.3008C182.307 18.5521 182.156 18.9041 182.006 18.9544C181.603 19.0549 181.402 18.703 181.352 18.3008C181.201 17.2952 181.302 16.2897 181.855 15.3847C182.257 14.6808 182.81 14.0272 183.212 13.3736C183.815 12.4184 184.62 12.0664 185.726 12.2173C186.329 12.2675 186.933 12.2675 187.536 12.1167C188.391 11.9156 188.441 11.7648 188.34 10.9101C188.29 10.3068 188.139 9.70343 188.592 9.15038Z" fill="black"/>
<path d="M210.915 16.34C210.513 17.1947 209.859 17.4461 209.205 17.5969C208.652 17.7477 208.099 17.8483 207.546 17.9991C206.641 18.3008 205.837 18.0494 205.233 17.3455C204.781 16.7422 204.429 16.0383 204.077 15.3344C203.876 14.9322 203.775 14.4294 203.524 14.0775C202.619 12.9714 202.619 12.5189 201.111 13.2228C200.96 13.2731 200.759 13.2731 200.608 13.2731C200.558 13.1725 200.457 13.1223 200.457 13.072C200.558 11.4128 203.926 10.5079 204.982 11.7648C205.686 12.6195 206.49 13.3736 206.541 14.5803C206.541 14.7814 206.641 14.9825 206.742 15.1836C207.144 16.2394 207.697 16.5411 208.803 16.4908C209.507 16.4908 210.11 16.3902 210.915 16.34Z" fill="black"/>
<path d="M223.434 14.2786C223.786 15.3847 223.484 16.1389 223.082 16.7422C222.529 17.5969 221.875 18.3008 221.222 19.0549C221.071 19.256 220.769 19.4069 220.467 19.4571C219.512 19.608 218.557 19.8593 217.652 19.8091C216.345 19.7588 215.591 20.6638 215.44 21.6693C215.389 22.0213 215.339 22.3732 215.389 22.7251C215.591 23.5798 215.239 24.334 214.937 25.0881C214.836 25.3395 214.535 25.5909 214.283 25.6412C213.881 25.6915 213.68 25.3395 213.63 24.9373C213.328 22.2224 214.434 19.4069 216.998 17.9991C217.4 17.798 217.903 17.798 218.356 17.7477C218.909 17.6974 219.412 17.7477 219.965 17.6974C221.121 17.5466 222.026 16.9433 222.529 15.8875C222.78 15.435 223.031 14.9825 223.434 14.2786Z" fill="black"/>
<path d="M199.351 26.144C200.306 27.0992 200.005 28.7583 198.748 29.3617C197.692 29.8644 196.586 30.2667 195.329 29.965C194.876 29.8644 194.424 29.9147 193.971 29.965C193.117 30.1158 192.765 30.5683 192.715 31.423C192.664 31.9761 192.765 32.4788 192.664 33.0319C192.664 33.233 192.413 33.4341 192.212 33.5346C192.111 33.5849 191.86 33.3335 191.759 33.1827C191.206 32.0766 191.558 29.7136 192.312 28.8086C193.066 27.9036 194.122 27.6523 195.228 27.8534C196.988 28.1047 198.346 27.5014 199.351 26.144Z" fill="black"/>
<path d="M197.642 34.8921C198.094 34.4396 198.446 34.691 198.697 34.8921C199.753 35.7971 200.809 36.7021 200.708 38.2104C200.658 39.4673 201.312 40.0204 202.317 40.4226C202.72 40.6237 203.172 40.7242 203.625 40.9253C204.077 41.1264 204.58 41.2773 204.982 41.5789C205.937 42.1823 205.837 43.4895 204.781 43.9419C204.63 44.0425 204.379 43.9922 204.178 43.9419C202.72 43.4895 201.412 42.7856 200.306 41.78C199.653 41.1767 199.552 40.322 199.703 39.6181C200.055 37.9087 199.301 36.7524 198.195 35.596C198.044 35.3446 197.893 35.1435 197.642 34.8921Z" fill="black"/>
<path d="M215.088 31.1214C215.892 31.3727 216.747 31.5738 217.551 31.8252C218.205 32.0263 218.808 31.9761 219.412 31.7247C220.719 31.2219 222.529 32.1772 223.132 33.3335C223.383 33.8363 223.283 34.4899 223.283 35.0932C223.283 35.3949 223.031 35.6463 222.931 35.9479C222.177 35.3446 221.523 34.7916 220.87 34.2888C220.015 33.6352 219.11 33.1827 217.903 33.7358C216.998 34.138 216.043 33.8866 215.239 33.4844C214.183 32.9816 214.183 32.0263 215.088 31.1214Z" fill="black"/>
<path d="M181 26.5462C183.061 26.2445 184.318 24.9876 185.123 23.2782C185.927 21.6693 187.435 20.8649 189.145 21.3174C190 21.5185 190.15 21.7699 190 22.876C189.597 22.876 189.195 22.876 188.793 22.876C187.737 22.8257 186.983 23.2279 186.581 24.1832C186.38 24.6356 186.179 25.0881 185.927 25.5406C185.223 26.9484 183.765 27.3003 182.559 27.9036C181.654 28.4064 181.151 27.9036 181 26.5462Z" fill="black"/>
<path d="M183.162 43.1878C182.709 42.3834 182.659 41.6795 183.112 41.0762C183.665 40.2717 184.369 39.5176 185.022 38.7634C185.374 38.4115 185.776 38.4115 186.279 38.4618C188.19 38.6629 190.352 37.6071 190.301 35.4452C190.301 35.2441 190.402 35.0932 190.502 34.8921C191.407 35.7971 191.558 36.3501 191.055 37.3557C190.502 38.5623 189.798 39.5176 188.391 39.6684C188.089 39.7187 187.787 39.9198 187.486 39.9701C187.184 40.0706 186.782 40.1712 186.53 40.0706C185.525 39.6684 185.475 39.9701 184.972 40.674C184.519 41.2773 184.218 42.0314 183.816 42.685C183.665 42.8359 183.413 42.9867 183.162 43.1878Z" fill="black"/>
<path d="M226.199 5.22879C225.746 5.02768 225.344 4.92713 224.992 4.72602C223.987 4.07242 223.031 4.07242 222.026 4.7763C221.523 5.12824 220.97 5.37962 220.417 5.58073C219.311 6.03322 218.104 5.22879 218.104 4.02215C218.104 3.31827 218.959 2.6144 219.562 2.96633C220.618 3.61993 221.523 3.31827 222.478 2.86578C223.233 2.51384 223.936 2.26246 224.841 2.56412C225.998 3.06689 226.4 3.67021 226.199 5.22879Z" fill="black"/>
<path d="M219.914 42.7353C219.613 42.4839 219.411 42.3834 219.311 42.2325C219.009 41.9309 218.758 41.5789 218.506 41.227C217.752 40.0204 216.093 40.0204 214.887 40.674C214.132 41.0762 213.328 41.4281 212.524 41.5789C211.166 41.8806 210.512 41.1767 210.563 39.7187C211.066 39.417 211.619 39.4673 212.071 39.769C212.674 40.1209 213.278 40.0706 213.881 39.769C214.283 39.5679 214.685 39.4673 215.037 39.2662C215.892 38.7634 216.747 38.864 217.652 39.0148C218.406 39.1154 219.06 39.5176 219.411 40.2717C219.713 40.9756 219.965 41.7298 219.914 42.7353Z" fill="black"/>
<path d="M185.827 0C187.184 1.3072 187.184 3.06689 185.877 4.62547C184.922 5.78184 183.614 5.88239 182.156 4.87685C182.106 4.17298 182.609 3.72049 183.112 3.36855C183.514 3.11716 183.966 2.96633 184.369 2.76523C185.072 2.36301 185.525 1.86024 185.575 1.00554C185.575 0.703876 185.726 0.351938 185.827 0Z" fill="black"/>
<path d="M182.357 32.2274C183.262 32.328 184.117 32.4286 184.922 32.4788C185.525 32.5291 186.028 32.5794 186.48 32.9816C187.033 33.4341 187.033 33.8363 186.43 34.2888C185.123 35.3446 183.162 34.9927 182.307 33.5346C182.156 33.233 182.156 32.881 182.357 32.2274Z" fill="black"/>
<path d="M196.184 43.2381C195.681 43.037 195.128 42.8359 194.675 42.5845C193.569 41.9309 192.564 42.2325 191.508 42.5845C191.156 42.7353 190.754 42.9867 190.502 42.4839C190.301 42.0817 190.402 41.6795 190.804 41.3778C192.212 40.2717 194.826 40.5231 195.932 41.9309C196.184 42.2325 196.284 42.6348 196.435 42.9867C196.334 43.0872 196.234 43.1375 196.184 43.2381Z" fill="black"/>
<path d="M217.953 25.8926C217.602 25.2892 217.903 24.9876 218.356 24.7362C219.261 24.2334 222.227 24.5351 223.031 25.239C223.132 25.2892 223.132 25.3898 223.233 25.5406C223.132 26.0937 222.679 26.0434 222.328 25.9428C220.869 25.3395 219.462 25.4904 217.953 25.8926Z" fill="black"/>
<path d="M237.21 6.98848C237.713 7.23986 238.216 7.49125 238.668 7.84319C240.378 8.99955 241.635 10.4576 242.389 12.4184C242.489 12.6698 242.59 12.9211 242.489 13.1223C242.188 14.2786 242.087 15.5355 241.283 16.5411C240.428 17.6472 240.579 18.703 241.786 19.4069C242.489 19.8593 243.143 20.2616 243.143 21.2671C243.143 22.2726 242.288 22.876 241.383 22.4235C240.227 21.8201 239.423 20.8649 239.322 19.5074C239.171 17.6472 239.272 15.7869 240.378 14.1781C240.529 13.9267 240.629 13.5747 240.78 13.3234C241.031 12.8709 240.931 12.4687 240.629 12.1167C240.227 11.6642 239.825 11.2117 239.372 10.8095C238.668 10.1056 237.965 9.40177 237.261 8.69789C236.708 8.04429 236.708 7.84319 237.21 6.98848Z" fill="black"/>
<path d="M251.087 21.6693C251.187 21.971 251.388 22.2224 251.439 22.524C251.64 23.8815 251.64 25.239 251.087 26.4959C250.785 27.25 250.785 27.5517 251.489 28.0042C252.042 28.3561 252.595 28.6578 253.249 28.7583C254.807 29.1103 255.712 30.3169 255.461 32.2274C255.411 32.5291 255.36 32.7805 255.209 33.0319C254.908 33.6352 254.405 33.7358 254.053 33.233C253.349 32.2274 252.344 31.8755 251.288 31.6241C249.679 31.2722 249.226 29.9147 248.724 28.6075C248.673 28.4567 248.724 28.2556 248.774 28.1047C248.875 27.8534 248.925 27.5517 249.076 27.3003C249.83 25.8423 250.282 24.334 250.433 22.7251C250.483 22.3732 250.685 22.0213 250.835 21.6693C250.886 21.6693 250.986 21.6693 251.087 21.6693Z" fill="black"/>
<path d="M241.635 1.40775C242.339 3.16744 244.199 3.92159 245.858 3.01661C246.562 2.66467 247.266 2.31273 248.07 2.36301C249.176 2.46356 250.182 3.16744 250.383 4.1227C250.534 4.82658 250.534 5.58073 249.88 6.2846C249.679 6.03322 249.528 5.88239 249.428 5.68128C248.573 4.42436 247.417 4.17298 246.109 4.92713C245.757 5.12824 245.406 5.37962 245.054 5.68128C244.651 6.0835 244.149 6.23433 243.596 6.23433C242.288 6.23433 241.182 5.68128 240.328 4.67574C240.026 4.32381 240.076 3.77076 240.026 3.26799C239.976 3.01661 240.076 2.76523 240.126 2.51384C240.177 1.60886 240.529 1.3072 241.635 1.40775Z" fill="black"/>
<path d="M257.723 8.19512C258.427 6.78737 257.371 5.37962 256.265 4.97741C255.913 4.82658 255.511 4.72602 255.159 4.57519C254.757 4.42436 254.656 4.1227 254.858 3.72049C255.209 3.01661 255.662 2.8155 256.416 3.06689C256.617 3.11716 256.818 3.21772 257.019 3.26799C258.829 4.07242 259.533 5.17851 259.232 7.13931C258.98 8.74817 259.533 9.90454 260.69 10.9101C260.991 11.1615 261.343 11.2117 261.695 11.4128C261.997 11.5637 262.298 11.6139 262.55 11.8151C262.902 12.1167 262.902 12.4687 262.65 12.8206C261.896 13.8764 260.388 14.53 258.93 12.9714C258.477 12.4687 258.025 11.8653 257.673 11.262C257.472 10.9603 257.371 10.5079 257.422 10.1559C257.522 9.45204 257.673 8.74817 257.723 8.19512Z" fill="black"/>
<path d="M233.842 9.15038C235.35 10.5581 235.601 12.72 234.345 14.1781C233.641 15.0328 232.736 15.2842 231.68 15.0328C231.177 14.9322 230.725 14.7814 230.222 14.6306C229.719 14.4295 229.417 14.53 229.166 15.0328C228.764 15.7869 228.311 16.5411 227.959 17.2952C227.809 17.5969 227.809 17.9991 227.658 18.3008C227.557 18.5521 227.406 18.9041 227.256 18.9544C226.853 19.0549 226.652 18.703 226.602 18.3008C226.451 17.2952 226.552 16.2897 227.105 15.3847C227.507 14.6808 228.06 14.0272 228.462 13.3736C229.065 12.4184 229.87 12.0664 230.976 12.2173C231.579 12.2675 232.183 12.2675 232.786 12.1167C233.641 11.9156 233.691 11.7648 233.59 10.9101C233.54 10.3068 233.389 9.70343 233.842 9.15038Z" fill="black"/>
<path d="M256.165 16.34C255.763 17.1947 255.109 17.4461 254.455 17.5969C253.902 17.7477 253.349 17.8483 252.796 17.9991C251.891 18.3008 251.087 18.0494 250.483 17.3455C250.031 16.7422 249.679 16.0383 249.327 15.3344C249.126 14.9322 249.025 14.4294 248.774 14.0775C247.869 12.9714 247.869 12.5189 246.361 13.2228C246.21 13.2731 246.009 13.2731 245.858 13.2731C245.808 13.1725 245.707 13.1223 245.707 13.072C245.808 11.4128 249.176 10.5079 250.232 11.7648C250.936 12.6195 251.74 13.3736 251.791 14.5803C251.791 14.7814 251.891 14.9825 251.992 15.1836C252.394 16.2394 252.947 16.5411 254.053 16.4908C254.757 16.4908 255.36 16.3902 256.165 16.34Z" fill="black"/>
<path d="M268.684 14.2786C269.036 15.3847 268.734 16.1389 268.332 16.7422C267.779 17.5969 267.125 18.3008 266.472 19.0549C266.321 19.256 266.019 19.4069 265.717 19.4571C264.762 19.608 263.807 19.8593 262.902 19.8091C261.595 19.7588 260.841 20.6638 260.69 21.6693C260.639 22.0213 260.589 22.3732 260.639 22.7251C260.841 23.5798 260.489 24.334 260.187 25.0881C260.086 25.3395 259.785 25.5909 259.533 25.6412C259.131 25.6915 258.93 25.3395 258.88 24.9373C258.578 22.2224 259.684 19.4069 262.248 17.9991C262.65 17.798 263.153 17.798 263.606 17.7477C264.159 17.6974 264.662 17.7477 265.215 17.6974C266.371 17.5466 267.276 16.9433 267.779 15.8875C268.03 15.435 268.281 14.9825 268.684 14.2786Z" fill="black"/>
<path d="M244.601 26.144C245.556 27.0992 245.255 28.7583 243.998 29.3617C242.942 29.8644 241.836 30.2667 240.579 29.965C240.126 29.8644 239.674 29.9147 239.221 29.965C238.367 30.1158 238.015 30.5683 237.965 31.423C237.914 31.9761 238.015 32.4788 237.914 33.0319C237.914 33.233 237.663 33.4341 237.462 33.5346C237.361 33.5849 237.11 33.3335 237.009 33.1827C236.456 32.0766 236.808 29.7136 237.562 28.8086C238.316 27.9036 239.372 27.6523 240.478 27.8534C242.238 28.1047 243.596 27.5014 244.601 26.144Z" fill="black"/>
<path d="M242.892 34.8921C243.344 34.4396 243.696 34.691 243.947 34.8921C245.003 35.7971 246.059 36.7021 245.958 38.2104C245.908 39.4673 246.562 40.0204 247.567 40.4226C247.97 40.6237 248.422 40.7242 248.875 40.9253C249.327 41.1264 249.83 41.2773 250.232 41.5789C251.187 42.1823 251.087 43.4895 250.031 43.9419C249.88 44.0425 249.629 43.9922 249.428 43.9419C247.97 43.4895 246.662 42.7856 245.556 41.78C244.903 41.1767 244.802 40.322 244.953 39.6181C245.305 37.9087 244.551 36.7524 243.445 35.596C243.294 35.3446 243.143 35.1435 242.892 34.8921Z" fill="black"/>
<path d="M260.338 31.1214C261.142 31.3727 261.997 31.5738 262.801 31.8252C263.455 32.0263 264.058 31.9761 264.662 31.7247C265.969 31.2219 267.779 32.1772 268.382 33.3335C268.633 33.8363 268.533 34.4899 268.533 35.0932C268.533 35.3949 268.281 35.6463 268.181 35.9479C267.427 35.3446 266.773 34.7916 266.12 34.2888C265.265 33.6352 264.36 33.1827 263.153 33.7358C262.248 34.138 261.293 33.8866 260.489 33.4844C259.433 32.9816 259.433 32.0263 260.338 31.1214Z" fill="black"/>
<path d="M226.25 26.5462C228.311 26.2445 229.568 24.9876 230.373 23.2782C231.177 21.6693 232.685 20.8649 234.395 21.3174C235.25 21.5185 235.4 21.7699 235.25 22.876C234.847 22.876 234.445 22.876 234.043 22.876C232.987 22.8257 232.233 23.2279 231.831 24.1832C231.63 24.6356 231.429 25.0881 231.177 25.5406C230.473 26.9484 229.015 27.3003 227.809 27.9036C226.904 28.4064 226.401 27.9036 226.25 26.5462Z" fill="black"/>
<path d="M228.412 43.1878C227.959 42.3834 227.909 41.6795 228.362 41.0762C228.915 40.2717 229.619 39.5176 230.272 38.7634C230.624 38.4115 231.026 38.4115 231.529 38.4618C233.44 38.6629 235.602 37.6071 235.551 35.4452C235.551 35.2441 235.652 35.0932 235.752 34.8921C236.657 35.7971 236.808 36.3501 236.305 37.3557C235.752 38.5623 235.048 39.5176 233.641 39.6684C233.339 39.7187 233.037 39.9198 232.736 39.9701C232.434 40.0706 232.032 40.1712 231.78 40.0706C230.775 39.6684 230.725 39.9701 230.222 40.674C229.769 41.2773 229.468 42.0314 229.066 42.685C228.915 42.8359 228.663 42.9867 228.412 43.1878Z" fill="black"/>
<path d="M271.449 5.22879C270.996 5.02768 270.594 4.92713 270.242 4.72602C269.237 4.07242 268.281 4.07242 267.276 4.7763C266.773 5.12824 266.22 5.37962 265.667 5.58073C264.561 6.03322 263.354 5.22879 263.354 4.02215C263.354 3.31827 264.209 2.6144 264.812 2.96633C265.868 3.61993 266.773 3.31827 267.728 2.86578C268.483 2.51384 269.186 2.26246 270.091 2.56412C271.248 3.06689 271.65 3.67021 271.449 5.22879Z" fill="black"/>
<path d="M265.164 42.7353C264.863 42.4839 264.661 42.3834 264.561 42.2325C264.259 41.9309 264.008 41.5789 263.756 41.227C263.002 40.0204 261.343 40.0204 260.137 40.674C259.382 41.0762 258.578 41.4281 257.774 41.5789C256.416 41.8806 255.762 41.1767 255.813 39.7187C256.316 39.417 256.869 39.4673 257.321 39.769C257.924 40.1209 258.528 40.0706 259.131 39.769C259.533 39.5679 259.935 39.4673 260.287 39.2662C261.142 38.7634 261.997 38.864 262.902 39.0148C263.656 39.1154 264.31 39.5176 264.661 40.2717C264.963 40.9756 265.215 41.7298 265.164 42.7353Z" fill="black"/>
<path d="M231.077 0C232.434 1.3072 232.434 3.06689 231.127 4.62547C230.172 5.78184 228.864 5.88239 227.406 4.87685C227.356 4.17298 227.859 3.72049 228.362 3.36855C228.764 3.11716 229.216 2.96633 229.619 2.76523C230.322 2.36301 230.775 1.86024 230.825 1.00554C230.825 0.703876 230.976 0.351938 231.077 0Z" fill="black"/>
<path d="M227.607 32.2274C228.512 32.328 229.367 32.4286 230.172 32.4788C230.775 32.5291 231.278 32.5794 231.73 32.9816C232.283 33.4341 232.283 33.8363 231.68 34.2888C230.373 35.3446 228.412 34.9927 227.557 33.5346C227.406 33.233 227.406 32.881 227.607 32.2274Z" fill="black"/>
<path d="M241.434 43.2381C240.931 43.037 240.378 42.8359 239.925 42.5845C238.819 41.9309 237.814 42.2325 236.758 42.5845C236.406 42.7353 236.004 42.9867 235.752 42.4839C235.551 42.0817 235.652 41.6795 236.054 41.3778C237.462 40.2717 240.076 40.5231 241.182 41.9309C241.434 42.2325 241.534 42.6348 241.685 42.9867C241.584 43.0872 241.484 43.1375 241.434 43.2381Z" fill="black"/>
<path d="M263.203 25.8926C262.852 25.2892 263.153 24.9876 263.606 24.7362C264.511 24.2334 267.477 24.5351 268.281 25.239C268.382 25.2892 268.382 25.3898 268.483 25.5406C268.382 26.0937 267.929 26.0434 267.578 25.9428C266.119 25.3395 264.712 25.4904 263.203 25.8926Z" fill="black"/>
<path d="M282.46 6.98848C282.963 7.23986 283.466 7.49125 283.918 7.84319C285.628 8.99955 286.885 10.4576 287.639 12.4184C287.739 12.6698 287.84 12.9211 287.739 13.1223C287.438 14.2786 287.337 15.5355 286.533 16.5411C285.678 17.6472 285.829 18.703 287.036 19.4069C287.739 19.8593 288.393 20.2616 288.393 21.2671C288.393 22.2726 287.538 22.876 286.633 22.4235C285.477 21.8201 284.673 20.8649 284.572 19.5074C284.421 17.6472 284.522 15.7869 285.628 14.1781C285.779 13.9267 285.879 13.5747 286.03 13.3234C286.281 12.8709 286.181 12.4687 285.879 12.1167C285.477 11.6642 285.075 11.2117 284.622 10.8095C283.918 10.1056 283.215 9.40177 282.511 8.69789C281.958 8.04429 281.958 7.84319 282.46 6.98848Z" fill="black"/>
<path d="M279.092 9.15038C280.6 10.5581 280.851 12.72 279.595 14.1781C278.891 15.0328 277.986 15.2842 276.93 15.0328C276.427 14.9322 275.975 14.7814 275.472 14.6306C274.969 14.4295 274.667 14.53 274.416 15.0328C274.014 15.7869 273.561 16.5411 273.209 17.2952C273.059 17.5969 273.059 17.9991 272.908 18.3008C272.807 18.5521 272.656 18.9041 272.506 18.9544C272.103 19.0549 271.902 18.703 271.852 18.3008C271.701 17.2952 271.802 16.2897 272.355 15.3847C272.757 14.6808 273.31 14.0272 273.712 13.3736C274.315 12.4184 275.12 12.0664 276.226 12.2173C276.829 12.2675 277.433 12.2675 278.036 12.1167C278.891 11.9156 278.941 11.7648 278.84 10.9101C278.79 10.3068 278.639 9.70343 279.092 9.15038Z" fill="black"/>
<path d="M289.851 26.144C290.806 27.0992 290.505 28.7583 289.248 29.3617C288.192 29.8644 287.086 30.2667 285.829 29.965C285.376 29.8644 284.924 29.9147 284.471 29.965C283.617 30.1158 283.265 30.5683 283.215 31.423C283.164 31.9761 283.265 32.4788 283.164 33.0319C283.164 33.233 282.913 33.4341 282.712 33.5346C282.611 33.5849 282.36 33.3335 282.259 33.1827C281.706 32.0766 282.058 29.7136 282.812 28.8086C283.566 27.9036 284.622 27.6523 285.728 27.8534C287.488 28.1047 288.846 27.5014 289.851 26.144Z" fill="black"/>
<path d="M271.5 26.5462C273.561 26.2445 274.818 24.9876 275.623 23.2782C276.427 21.6693 277.935 20.8649 279.645 21.3174C280.5 21.5185 280.65 21.7699 280.5 22.876C280.097 22.876 279.695 22.876 279.293 22.876C278.237 22.8257 277.483 23.2279 277.081 24.1832C276.88 24.6356 276.679 25.0881 276.427 25.5406C275.723 26.9484 274.265 27.3003 273.059 27.9036C272.154 28.4064 271.651 27.9036 271.5 26.5462Z" fill="black"/>
<path d="M273.662 43.1878C273.209 42.3834 273.159 41.6795 273.612 41.0762C274.165 40.2717 274.869 39.5176 275.522 38.7634C275.874 38.4115 276.276 38.4115 276.779 38.4618C278.69 38.6629 280.852 37.6071 280.801 35.4452C280.801 35.2441 280.902 35.0932 281.002 34.8921C281.907 35.7971 282.058 36.3501 281.555 37.3557C281.002 38.5623 280.298 39.5176 278.891 39.6684C278.589 39.7187 278.287 39.9198 277.986 39.9701C277.684 40.0706 277.282 40.1712 277.03 40.0706C276.025 39.6684 275.975 39.9701 275.472 40.674C275.019 41.2773 274.718 42.0314 274.316 42.685C274.165 42.8359 273.913 42.9867 273.662 43.1878Z" fill="black"/>
<path d="M276.327 0C277.684 1.3072 277.684 3.06689 276.377 4.62547C275.422 5.78184 274.114 5.88239 272.656 4.87685C272.606 4.17298 273.109 3.72049 273.612 3.36855C274.014 3.11716 274.466 2.96633 274.869 2.76523C275.572 2.36301 276.025 1.86024 276.075 1.00554C276.075 0.703876 276.226 0.351938 276.327 0Z" fill="black"/>
<path d="M272.857 32.2274C273.762 32.328 274.617 32.4286 275.422 32.4788C276.025 32.5291 276.528 32.5794 276.98 32.9816C277.533 33.4341 277.533 33.8363 276.93 34.2888C275.623 35.3446 273.662 34.9927 272.807 33.5346C272.656 33.233 272.656 32.881 272.857 32.2274Z" fill="black"/>
<path d="M286.684 43.2381C286.181 43.037 285.628 42.8359 285.175 42.5845C284.069 41.9309 283.064 42.2325 282.008 42.5845C281.656 42.7353 281.254 42.9867 281.002 42.4839C280.801 42.0817 280.902 41.6795 281.304 41.3778C282.712 40.2717 285.326 40.5231 286.432 41.9309C286.684 42.2325 286.784 42.6348 286.935 42.9867C286.834 43.0872 286.734 43.1375 286.684 43.2381Z" fill="black"/>
</svg>
