<svg width="282" height="44" viewBox="0 0 282 44" fill="none" xmlns="http://www.w3.org/2000/svg">
<path d="M66.5763 27.8418V29.4991C61.3559 29.4991 59.2015 15.7439 53.8983 15.7439C48.1808 15.7439 46.1092 29.0019 41.4689 29.0019C37.823 29.0019 32.0226 21.2128 29.2053 21.2128C23.7364 21.2128 21.7477 29.4991 16.3616 29.4991C9.64972 29.4991 10.1469 19.5556 3.68362 19.5556C-4.10546 19.5556 -2.94539 29.4991 -8 29.4991V27.8418C-1.70245 27.8418 -3.19397 16.2411 3.68362 16.2411C10.1469 16.2411 8.48965 28.6704 16.3616 28.6704C22.162 28.6704 24.4821 19.5556 29.2053 19.5556C32.8512 19.5556 36.6629 27.8418 42.049 27.8418C46.855 27.8418 48.0979 14.0866 53.8983 14.0866C60.0301 14.0866 60.5273 27.8418 66.5763 27.8418Z" fill="black"/>
<path d="M66.5763 13.7552V18.7269C61.3559 18.7269 60.0301 2.48588 54.7269 2.48588C49.0094 2.48588 46.1092 17.4011 41.4689 17.4011C37.823 17.4011 32.0226 6.29755 29.2053 6.29755C23.7364 6.29755 20.6704 18.7269 16.3616 18.7269C10.3955 18.7269 9.23541 3.81168 3.68362 3.81168C-2.36535 3.81168 -2.94539 18.7269 -8 18.7269V13.7552C-1.70245 13.7552 -3.19397 2.15443 3.68362 2.15443C10.1469 2.15443 8.48965 14.5838 16.3616 14.5838C22.162 14.5838 24.4821 2.15443 29.2053 2.15443C32.8512 2.15443 36.6629 15.4124 42.049 15.4124C46.855 15.4124 48.9266 0 54.7269 0C60.8588 0 60.5273 13.7552 66.5763 13.7552Z" fill="black"/>
<path d="M66.5763 23.6987V26.1846C61.3559 26.1846 59.2015 13.258 53.8983 13.258C48.1808 13.258 46.1092 25.6874 41.4689 25.6874C36.2486 25.6874 32.0226 17.8983 29.2053 17.8983C23.7364 17.8983 21.7477 27.0132 16.3616 27.0132C7.99247 27.0132 10.9755 13.7552 4.51224 13.7552C-3.27683 13.7552 -1.20527 26.1846 -8 26.1846V23.6987C-1.70245 23.6987 -2.36535 12.9266 4.51224 12.9266C10.9755 12.9266 8.48965 25.3559 16.3616 25.3559C22.162 25.3559 24.4821 13.7552 29.2053 13.7552C32.8512 13.7552 36.6629 24.5273 42.049 24.5273C46.855 24.5273 48.0979 12.4294 53.8983 12.4294C60.0301 12.4294 61.7702 23.6987 66.5763 23.6987Z" fill="black"/>
<path d="M66.5763 22.0414V22.8701C61.3559 22.8701 60.693 9.94351 53.8983 9.94351C48.1808 9.94351 46.1092 22.3729 41.4689 22.3729C36.2486 22.3729 32.0226 9.61206 29.2053 9.61206C23.7364 9.61206 21.7477 22.0414 16.3616 22.0414C7.99247 22.0414 10.9755 10.4407 4.51224 10.4407C-3.27683 10.4407 -1.20527 22.8701 -8 22.8701V22.0414C-1.70245 22.0414 -3.19397 7.12618 3.68362 7.12618C10.1469 7.12618 8.48965 20.3842 16.3616 20.3842C22.162 20.3842 24.4821 8.78343 29.2053 8.78343C32.8512 8.78343 36.6629 19.5556 42.049 19.5556C46.855 19.5556 48.9266 7.45763 54.7269 7.45763C60.8588 7.45763 61.7702 22.0414 66.5763 22.0414Z" fill="black"/>
<path d="M66.5763 34.0565V37.371C61.7702 37.371 60.0301 22.7872 53.8983 22.7872C48.0979 22.7872 46.855 34.8851 42.049 34.8851C36.6629 34.8851 32.9341 24.7759 29.2881 24.7759C24.565 24.7759 22.162 35.7137 16.3616 35.7137C8.48965 35.7137 10.1469 24.113 3.68362 24.113C-3.19397 24.113 -1.70245 37.371 -8 37.371V34.0565C-2.94539 34.0565 -2.36535 20.7985 3.68362 20.7985C9.23541 20.7985 10.3955 34.0565 16.3616 34.0565C20.6704 34.0565 23.7364 22.4557 29.2053 22.4557C31.9397 22.4557 37.7401 32.7307 41.4689 32.7307C46.1092 32.7307 48.1808 17.8154 53.8983 17.8154C59.2015 17.8983 61.3559 34.0565 66.5763 34.0565Z" fill="black"/>
<path d="M66.5763 38.1996V39.0282C61.7702 39.0282 60.0301 27.7589 53.8983 27.7589C48.0979 27.7589 46.275 39.774 41.4689 39.774C36.0829 39.774 32.8512 29.8305 29.2053 29.8305C24.4821 29.8305 22.162 40.6026 16.3616 40.6026C8.48965 40.6026 10.7269 26.8475 4.18079 26.8475C-2.61393 27.0132 -1.70245 39.0282 -8 39.0282V38.1996C-1.20527 38.1996 -3.85687 25.7702 3.9322 25.7702C10.3955 25.7702 7.99247 37.371 16.3616 37.371C21.7477 37.371 23.7364 26.5989 29.2053 26.5989C31.9397 26.5989 36.2486 37.7024 41.4689 37.7024C46.1092 37.7024 48.1808 25.2731 53.8983 25.2731C60.693 25.3559 61.3559 38.1996 66.5763 38.1996Z" fill="black"/>
<path d="M66.5763 41.5141V43.1714C60.5273 43.1714 60.0301 29.4162 53.8983 29.4162C48.0979 29.4162 46.855 43.1714 42.049 43.1714C36.6629 43.1714 32.8512 33.8908 29.2053 33.8908C24.4821 33.8908 22.162 44 16.3616 44C8.48965 44 10.3955 32.1507 3.9322 32.1507C-2.94539 32.1507 -1.70245 43.1714 -8 43.1714V41.5141C-1.20527 41.5141 -3.27683 29.0847 4.51224 29.0847C10.9755 29.0847 7.99247 42.3427 16.3616 42.3427C21.7477 42.3427 23.7364 33.2279 29.2053 33.2279C31.9397 33.2279 36.2486 41.0169 41.4689 41.0169C46.1092 41.0169 48.1808 28.5876 53.8983 28.5876C59.2015 28.6704 61.3559 41.5141 66.5763 41.5141Z" fill="black"/>
<path d="M141.153 27.8418V29.4991C135.932 29.4991 133.778 15.7439 128.475 15.7439C122.757 15.7439 120.686 29.0019 116.045 29.0019C112.399 29.0019 106.599 21.2128 103.782 21.2128C98.3126 21.2128 96.3239 29.4991 90.9379 29.4991C84.226 29.4991 84.7232 19.5556 78.2599 19.5556C70.4708 19.5556 71.6309 29.4991 66.5763 29.4991V27.8418C72.8738 27.8418 71.3823 16.2411 78.2599 16.2411C84.7232 16.2411 83.0659 28.6704 90.9379 28.6704C96.7383 28.6704 99.0584 19.5556 103.782 19.5556C107.428 19.5556 111.239 27.8418 116.625 27.8418C121.431 27.8418 122.674 14.0866 128.475 14.0866C134.606 14.0866 135.104 27.8418 141.153 27.8418Z" fill="black"/>
<path d="M141.153 13.7552V18.7269C135.932 18.7269 134.606 2.48588 129.303 2.48588C123.586 2.48588 120.686 17.4011 116.045 17.4011C112.399 17.4011 106.599 6.29755 103.782 6.29755C98.3126 6.29755 95.2467 18.7269 90.9379 18.7269C84.9718 18.7269 83.8117 3.81168 78.2599 3.81168C72.2109 3.81168 71.6309 18.7269 66.5763 18.7269V13.7552C72.8738 13.7552 71.3823 2.15443 78.2599 2.15443C84.7232 2.15443 83.0659 14.5838 90.9379 14.5838C96.7383 14.5838 99.0584 2.15443 103.782 2.15443C107.428 2.15443 111.239 15.4124 116.625 15.4124C121.431 15.4124 123.503 0 129.303 0C135.435 0 135.104 13.7552 141.153 13.7552Z" fill="black"/>
<path d="M141.153 23.6987V26.1846C135.932 26.1846 133.778 13.258 128.475 13.258C122.757 13.258 120.686 25.6874 116.045 25.6874C110.825 25.6874 106.599 17.8983 103.782 17.8983C98.3126 17.8983 96.3239 27.0132 90.9379 27.0132C82.5688 27.0132 85.5518 13.7552 79.0885 13.7552C71.2995 13.7552 73.371 26.1846 66.5763 26.1846V23.6987C72.8738 23.6987 72.2109 12.9266 79.0885 12.9266C85.5518 12.9266 83.0659 25.3559 90.9379 25.3559C96.7383 25.3559 99.0584 13.7552 103.782 13.7552C107.428 13.7552 111.239 24.5273 116.625 24.5273C121.431 24.5273 122.674 12.4294 128.475 12.4294C134.606 12.4294 136.347 23.6987 141.153 23.6987Z" fill="black"/>
<path d="M141.153 22.0414V22.8701C135.932 22.8701 135.269 9.94351 128.475 9.94351C122.757 9.94351 120.686 22.3729 116.045 22.3729C110.825 22.3729 106.599 9.61206 103.782 9.61206C98.3126 9.61206 96.3239 22.0414 90.9379 22.0414C82.5688 22.0414 85.5518 10.4407 79.0885 10.4407C71.2995 10.4407 73.371 22.8701 66.5763 22.8701V22.0414C72.8738 22.0414 71.3823 7.12618 78.2599 7.12618C84.7232 7.12618 83.0659 20.3842 90.9379 20.3842C96.7383 20.3842 99.0584 8.78343 103.782 8.78343C107.428 8.78343 111.239 19.5556 116.625 19.5556C121.431 19.5556 123.503 7.45763 129.303 7.45763C135.435 7.45763 136.347 22.0414 141.153 22.0414Z" fill="black"/>
<path d="M141.153 34.0565V37.371C136.347 37.371 134.606 22.7872 128.475 22.7872C122.674 22.7872 121.431 34.8851 116.625 34.8851C111.239 34.8851 107.51 24.7759 103.864 24.7759C99.1413 24.7759 96.7383 35.7137 90.9379 35.7137C83.0659 35.7137 84.7232 24.113 78.2599 24.113C71.3823 24.113 72.8738 37.371 66.5763 37.371V34.0565C71.6309 34.0565 72.2109 20.7985 78.2599 20.7985C83.8117 20.7985 84.9718 34.0565 90.9379 34.0565C95.2467 34.0565 98.3126 22.4557 103.782 22.4557C106.516 22.4557 112.316 32.7307 116.045 32.7307C120.686 32.7307 122.757 17.8154 128.475 17.8154C133.778 17.8983 135.932 34.0565 141.153 34.0565Z" fill="black"/>
<path d="M141.153 38.1996V39.0282C136.347 39.0282 134.606 27.7589 128.475 27.7589C122.674 27.7589 120.851 39.774 116.045 39.774C110.659 39.774 107.428 29.8305 103.782 29.8305C99.0584 29.8305 96.7383 40.6026 90.9379 40.6026C83.0659 40.6026 85.3032 26.8475 78.7571 26.8475C71.9624 27.0132 72.8738 39.0282 66.5763 39.0282V38.1996C73.371 38.1996 70.7194 25.7702 78.5085 25.7702C84.9718 25.7702 82.5688 37.371 90.9379 37.371C96.3239 37.371 98.3126 26.5989 103.782 26.5989C106.516 26.5989 110.825 37.7024 116.045 37.7024C120.686 37.7024 122.757 25.2731 128.475 25.2731C135.269 25.3559 135.932 38.1996 141.153 38.1996Z" fill="black"/>
<path d="M141.153 41.5141V43.1714C135.104 43.1714 134.606 29.4162 128.475 29.4162C122.674 29.4162 121.431 43.1714 116.625 43.1714C111.239 43.1714 107.428 33.8908 103.782 33.8908C99.0584 33.8908 96.7383 44 90.9379 44C83.0659 44 84.9718 32.1507 78.5085 32.1507C71.6309 32.1507 72.8738 43.1714 66.5763 43.1714V41.5141C73.371 41.5141 71.2995 29.0847 79.0885 29.0847C85.5518 29.0847 82.5688 42.3427 90.9379 42.3427C96.3239 42.3427 98.3126 33.2279 103.782 33.2279C106.516 33.2279 110.825 41.0169 116.045 41.0169C120.686 41.0169 122.757 28.5876 128.475 28.5876C133.778 28.6704 135.932 41.5141 141.153 41.5141Z" fill="black"/>
<path d="M215.729 27.8418V29.4991C210.509 29.4991 208.354 15.7439 203.051 15.7439C197.333 15.7439 195.262 29.0019 190.622 29.0019C186.976 29.0019 181.175 21.2128 178.358 21.2128C172.889 21.2128 170.9 29.4991 165.514 29.4991C158.802 29.4991 159.299 19.5556 152.836 19.5556C145.047 19.5556 146.207 29.4991 141.153 29.4991V27.8418C147.45 27.8418 145.959 16.2411 152.836 16.2411C159.299 16.2411 157.642 28.6704 165.514 28.6704C171.315 28.6704 173.635 19.5556 178.358 19.5556C182.004 19.5556 185.815 27.8418 191.202 27.8418C196.008 27.8418 197.251 14.0866 203.051 14.0866C209.183 14.0866 209.68 27.8418 215.729 27.8418Z" fill="black"/>
<path d="M215.729 13.7552V18.7269C210.509 18.7269 209.183 2.48588 203.88 2.48588C198.162 2.48588 195.262 17.4011 190.622 17.4011C186.976 17.4011 181.175 6.29755 178.358 6.29755C172.889 6.29755 169.823 18.7269 165.514 18.7269C159.548 18.7269 158.388 3.81168 152.836 3.81168C146.787 3.81168 146.207 18.7269 141.153 18.7269V13.7552C147.45 13.7552 145.959 2.15443 152.836 2.15443C159.299 2.15443 157.642 14.5838 165.514 14.5838C171.315 14.5838 173.635 2.15443 178.358 2.15443C182.004 2.15443 185.815 15.4124 191.202 15.4124C196.008 15.4124 198.079 0 203.88 0C210.011 0 209.68 13.7552 215.729 13.7552Z" fill="black"/>
<path d="M215.729 23.6987V26.1846C210.509 26.1846 208.354 13.258 203.051 13.258C197.333 13.258 195.262 25.6874 190.622 25.6874C185.401 25.6874 181.175 17.8983 178.358 17.8983C172.889 17.8983 170.9 27.0132 165.514 27.0132C157.145 27.0132 160.128 13.7552 153.665 13.7552C145.876 13.7552 147.947 26.1846 141.153 26.1846V23.6987C147.45 23.6987 146.787 12.9266 153.665 12.9266C160.128 12.9266 157.642 25.3559 165.514 25.3559C171.315 25.3559 173.635 13.7552 178.358 13.7552C182.004 13.7552 185.815 24.5273 191.202 24.5273C196.008 24.5273 197.251 12.4294 203.051 12.4294C209.183 12.4294 210.923 23.6987 215.729 23.6987Z" fill="black"/>
<path d="M215.729 22.0414V22.8701C210.509 22.8701 209.846 9.94351 203.051 9.94351C197.333 9.94351 195.262 22.3729 190.622 22.3729C185.401 22.3729 181.175 9.61206 178.358 9.61206C172.889 9.61206 170.9 22.0414 165.514 22.0414C157.145 22.0414 160.128 10.4407 153.665 10.4407C145.876 10.4407 147.947 22.8701 141.153 22.8701V22.0414C147.45 22.0414 145.959 7.12618 152.836 7.12618C159.299 7.12618 157.642 20.3842 165.514 20.3842C171.315 20.3842 173.635 8.78343 178.358 8.78343C182.004 8.78343 185.815 19.5556 191.202 19.5556C196.008 19.5556 198.079 7.45763 203.88 7.45763C210.011 7.45763 210.923 22.0414 215.729 22.0414Z" fill="black"/>
<path d="M215.729 34.0565V37.371C210.923 37.371 209.183 22.7872 203.051 22.7872C197.251 22.7872 196.008 34.8851 191.202 34.8851C185.815 34.8851 182.087 24.7759 178.441 24.7759C173.718 24.7759 171.315 35.7137 165.514 35.7137C157.642 35.7137 159.299 24.113 152.836 24.113C145.959 24.113 147.45 37.371 141.153 37.371V34.0565C146.207 34.0565 146.787 20.7985 152.836 20.7985C158.388 20.7985 159.548 34.0565 165.514 34.0565C169.823 34.0565 172.889 22.4557 178.358 22.4557C181.092 22.4557 186.893 32.7307 190.622 32.7307C195.262 32.7307 197.333 17.8154 203.051 17.8154C208.354 17.8983 210.509 34.0565 215.729 34.0565Z" fill="black"/>
<path d="M215.729 38.1996V39.0282C210.923 39.0282 209.183 27.7589 203.051 27.7589C197.251 27.7589 195.428 39.774 190.622 39.774C185.235 39.774 182.004 29.8305 178.358 29.8305C173.635 29.8305 171.315 40.6026 165.514 40.6026C157.642 40.6026 159.88 26.8475 153.333 26.8475C146.539 27.0132 147.45 39.0282 141.153 39.0282V38.1996C147.947 38.1996 145.296 25.7702 153.085 25.7702C159.548 25.7702 157.145 37.371 165.514 37.371C170.9 37.371 172.889 26.5989 178.358 26.5989C181.092 26.5989 185.401 37.7024 190.622 37.7024C195.262 37.7024 197.333 25.2731 203.051 25.2731C209.846 25.3559 210.509 38.1996 215.729 38.1996Z" fill="black"/>
<path d="M215.729 41.5141V43.1714C209.68 43.1714 209.183 29.4162 203.051 29.4162C197.251 29.4162 196.008 43.1714 191.202 43.1714C185.815 43.1714 182.004 33.8908 178.358 33.8908C173.635 33.8908 171.315 44 165.514 44C157.642 44 159.548 32.1507 153.085 32.1507C146.207 32.1507 147.45 43.1714 141.153 43.1714V41.5141C147.947 41.5141 145.876 29.0847 153.665 29.0847C160.128 29.0847 157.145 42.3427 165.514 42.3427C170.9 42.3427 172.889 33.2279 178.358 33.2279C181.092 33.2279 185.401 41.0169 190.622 41.0169C195.262 41.0169 197.333 28.5876 203.051 28.5876C208.354 28.6704 210.509 41.5141 215.729 41.5141Z" fill="black"/>
<path d="M290.305 27.8418V29.4991C285.085 29.4991 282.93 15.7439 277.627 15.7439C271.91 15.7439 269.838 29.0019 265.198 29.0019C261.552 29.0019 255.751 21.2128 252.934 21.2128C247.465 21.2128 245.477 29.4991 240.09 29.4991C233.379 29.4991 233.876 19.5556 227.412 19.5556C219.623 19.5556 220.783 29.4991 215.729 29.4991V27.8418C222.026 27.8418 220.535 16.2411 227.412 16.2411C233.876 16.2411 232.219 28.6704 240.09 28.6704C245.891 28.6704 248.211 19.5556 252.934 19.5556C256.58 19.5556 260.392 27.8418 265.778 27.8418C270.584 27.8418 271.827 14.0866 277.627 14.0866C283.759 14.0866 284.256 27.8418 290.305 27.8418Z" fill="black"/>
<path d="M290.305 13.7552V18.7269C285.085 18.7269 283.759 2.48588 278.456 2.48588C272.738 2.48588 269.838 17.4011 265.198 17.4011C261.552 17.4011 255.751 6.29755 252.934 6.29755C247.465 6.29755 244.399 18.7269 240.09 18.7269C234.124 18.7269 232.964 3.81168 227.412 3.81168C221.364 3.81168 220.783 18.7269 215.729 18.7269V13.7552C222.026 13.7552 220.535 2.15443 227.412 2.15443C233.876 2.15443 232.219 14.5838 240.09 14.5838C245.891 14.5838 248.211 2.15443 252.934 2.15443C256.58 2.15443 260.392 15.4124 265.778 15.4124C270.584 15.4124 272.655 0 278.456 0C284.588 0 284.256 13.7552 290.305 13.7552Z" fill="black"/>
<path d="M290.305 23.6987V26.1846C285.085 26.1846 282.93 13.258 277.627 13.258C271.91 13.258 269.838 25.6874 265.198 25.6874C259.977 25.6874 255.751 17.8983 252.934 17.8983C247.465 17.8983 245.477 27.0132 240.09 27.0132C231.721 27.0132 234.704 13.7552 228.241 13.7552C220.452 13.7552 222.524 26.1846 215.729 26.1846V23.6987C222.026 23.6987 221.364 12.9266 228.241 12.9266C234.704 12.9266 232.219 25.3559 240.09 25.3559C245.891 25.3559 248.211 13.7552 252.934 13.7552C256.58 13.7552 260.392 24.5273 265.778 24.5273C270.584 24.5273 271.827 12.4294 277.627 12.4294C283.759 12.4294 285.499 23.6987 290.305 23.6987Z" fill="black"/>
<path d="M290.305 22.0414V22.8701C285.085 22.8701 284.422 9.94351 277.627 9.94351C271.91 9.94351 269.838 22.3729 265.198 22.3729C259.977 22.3729 255.751 9.61206 252.934 9.61206C247.465 9.61206 245.477 22.0414 240.09 22.0414C231.721 22.0414 234.704 10.4407 228.241 10.4407C220.452 10.4407 222.524 22.8701 215.729 22.8701V22.0414C222.026 22.0414 220.535 7.12618 227.412 7.12618C233.876 7.12618 232.219 20.3842 240.09 20.3842C245.891 20.3842 248.211 8.78343 252.934 8.78343C256.58 8.78343 260.392 19.5556 265.778 19.5556C270.584 19.5556 272.655 7.45763 278.456 7.45763C284.588 7.45763 285.499 22.0414 290.305 22.0414Z" fill="black"/>
<path d="M290.305 34.0565V37.371C285.499 37.371 283.759 22.7872 277.627 22.7872C271.827 22.7872 270.584 34.8851 265.778 34.8851C260.392 34.8851 256.663 24.7759 253.017 24.7759C248.294 24.7759 245.891 35.7137 240.09 35.7137C232.219 35.7137 233.876 24.113 227.412 24.113C220.535 24.113 222.026 37.371 215.729 37.371V34.0565C220.783 34.0565 221.364 20.7985 227.412 20.7985C232.964 20.7985 234.124 34.0565 240.09 34.0565C244.399 34.0565 247.465 22.4557 252.934 22.4557C255.669 22.4557 261.469 32.7307 265.198 32.7307C269.838 32.7307 271.91 17.8154 277.627 17.8154C282.93 17.8983 285.085 34.0565 290.305 34.0565Z" fill="black"/>
<path d="M290.305 38.1996V39.0282C285.499 39.0282 283.759 27.7589 277.627 27.7589C271.827 27.7589 270.004 39.774 265.198 39.774C259.812 39.774 256.58 29.8305 252.934 29.8305C248.211 29.8305 245.891 40.6026 240.09 40.6026C232.219 40.6026 234.456 26.8475 227.91 26.8475C221.115 27.0132 222.026 39.0282 215.729 39.0282V38.1996C222.524 38.1996 219.872 25.7702 227.661 25.7702C234.124 25.7702 231.721 37.371 240.09 37.371C245.477 37.371 247.465 26.5989 252.934 26.5989C255.669 26.5989 259.977 37.7024 265.198 37.7024C269.838 37.7024 271.91 25.2731 277.627 25.2731C284.422 25.3559 285.085 38.1996 290.305 38.1996Z" fill="black"/>
<path d="M290.305 41.5141V43.1714C284.256 43.1714 283.759 29.4162 277.627 29.4162C271.827 29.4162 270.584 43.1714 265.778 43.1714C260.392 43.1714 256.58 33.8908 252.934 33.8908C248.211 33.8908 245.891 44 240.09 44C232.219 44 234.124 32.1507 227.661 32.1507C220.783 32.1507 222.026 43.1714 215.729 43.1714V41.5141C222.524 41.5141 220.452 29.0847 228.241 29.0847C234.704 29.0847 231.721 42.3427 240.09 42.3427C245.477 42.3427 247.465 33.2279 252.934 33.2279C255.669 33.2279 259.977 41.0169 265.198 41.0169C269.838 41.0169 271.91 28.5876 277.627 28.5876C282.93 28.6704 285.085 41.5141 290.305 41.5141Z" fill="black"/>
</svg>
