<svg width="100" height="100" viewBox="0 0 100 100" fill="none" xmlns="http://www.w3.org/2000/svg">
<path d="M50.0001 7.62939e-05C22.4001 7.62939e-05 8.39233e-05 22.4001 8.39233e-05 50.0001C8.39233e-05 77.6001 22.4001 100 50.0001 100C77.6001 100 100 77.6001 100 50.0001C100 22.4001 77.6001 7.62939e-05 50.0001 7.62939e-05ZM37.5001 63.3501V36.6501C37.5001 32.7001 41.9001 30.3001 45.2001 32.4501L65.9501 45.8001C69.0001 47.7501 69.0001 52.2501 65.9501 54.2001L45.2001 67.5501C41.9001 69.7001 37.5001 67.3001 37.5001 63.3501Z" fill="#7C4DFF"/>
</svg>
