<svg width="32" height="32" viewBox="0 0 32 32" fill="none" xmlns="http://www.w3.org/2000/svg">
<path d="M29.5281 4.19329C29.0481 3.78625 28.2942 3.72801 27.5147 4.04097H27.5134C26.6936 4.36993 4.30636 13.9725 3.395 14.3648C3.22924 14.4224 1.78156 14.9626 1.93068 16.1658C2.0638 17.2506 3.22732 17.6999 3.3694 17.7517L9.06092 19.7005C9.43852 20.9575 10.8305 25.5949 11.1384 26.5856C11.3304 27.2032 11.6433 28.0147 12.1918 28.1818C12.6731 28.3674 13.1518 28.1978 13.4616 27.9546L16.9412 24.7271L22.5585 29.1079L22.6923 29.1879C23.0737 29.3568 23.4392 29.4413 23.788 29.4413C24.0574 29.4413 24.316 29.3907 24.563 29.2896C25.4046 28.944 25.7412 28.1421 25.7764 28.0512L29.9723 6.24193C30.2283 5.07713 29.8724 4.48449 29.5281 4.19329ZM14.0804 20.48L12.1604 25.6L10.2404 19.2L24.9604 8.32001L14.0804 20.48Z" fill="white"/>
</svg>
