<svg width="32" height="32" viewBox="0 0 32 32" fill="none" xmlns="http://www.w3.org/2000/svg">
<path d="M15.9993 1.28003C7.88282 1.28003 1.2793 7.88355 1.2793 16C1.2793 24.1165 7.88282 30.72 15.9993 30.72C24.1164 30.72 30.7193 24.1165 30.7193 16C30.7193 7.88355 24.1164 1.28003 15.9993 1.28003ZM22.382 18.9024C23.8137 20.1735 24.1113 20.6272 24.1599 20.7047C24.7532 21.6455 23.502 21.76 23.502 21.76H20.8652C20.8652 21.76 20.2233 21.7671 19.6748 21.4035C18.7807 20.8179 17.8444 19.6826 17.1865 19.8797C16.6342 20.0448 16.6393 20.7911 16.6393 21.4291C16.6393 21.6576 16.4428 21.76 15.9993 21.76C15.5558 21.76 15.3715 21.76 15.175 21.76C13.7305 21.76 12.1631 21.2736 10.5996 19.6397C8.38778 17.3299 6.44794 12.6771 6.44794 12.6771C6.44794 12.6771 6.33338 12.4429 6.45818 12.3002C6.59962 12.1402 6.98426 12.1607 6.98426 12.1607L9.54106 12.16C9.54106 12.16 9.7817 12.2055 9.9545 12.3271C10.0972 12.4269 10.1766 12.6176 10.1766 12.6176C10.1766 12.6176 10.606 14.0359 11.1532 14.9402C12.222 16.7053 12.7193 16.7501 13.0822 16.56C13.6121 16.2848 13.4393 14.4083 13.4393 14.4083C13.4393 14.4083 13.463 13.6026 13.1865 13.2435C12.9734 12.9658 12.5657 12.8179 12.3878 12.7949C12.2438 12.7763 12.4844 12.5242 12.791 12.3802C13.2006 12.1978 13.758 12.1511 14.7193 12.16C15.4675 12.1671 15.6831 12.2119 15.975 12.2791C16.8575 12.4826 16.6393 13.0195 16.6393 14.905C16.6393 15.5091 16.5561 16.3584 17.0118 16.64C17.2083 16.7616 17.8815 16.9101 19.0796 14.9645C19.6486 14.0416 20.1011 12.5107 20.1011 12.5107C20.1011 12.5107 20.1945 12.3424 20.3398 12.2592C20.4883 12.1741 20.4838 12.176 20.6873 12.176C20.8908 12.176 22.9318 12.16 23.3798 12.16C23.8271 12.16 24.247 12.1549 24.3193 12.4173C24.423 12.7943 23.9891 14.0858 22.8895 15.4874C21.0828 17.7875 20.8825 17.5725 22.382 18.9024Z" fill="white"/>
</svg>
